<?xml version="1.0" encoding="UTF-8" standalone="no"?>
<!DOCTYPE svg PUBLIC "-//W3C//DTD SVG 1.1//EN"
 "http://www.w3.org/Graphics/SVG/1.1/DTD/svg11.dtd">
<!-- Generated by graphviz version 2.40.1 (20161225.0304)
 -->
<!-- Title: Ogre::SceneQueryListener Pages: 1 -->
<svg width="891pt" height="263pt"
 viewBox="0.00 0.00 891.00 262.50" xmlns="http://www.w3.org/2000/svg" xmlns:xlink="http://www.w3.org/1999/xlink">
<g id="graph0" class="graph" transform="scale(1 1) rotate(0) translate(4 258.5)">
<title>Ogre::SceneQueryListener</title>
<!-- Node0 -->
<g id="node1" class="node">
<title>Node0</title>
<polygon fill="#bfbfbf" stroke="#000000" points="0,-73.5 0,-92.5 132,-92.5 132,-73.5 0,-73.5"/>
<text text-anchor="middle" x="66" y="-80.5" font-family="Helvetica,sans-Serif" font-size="10.00" fill="#000000">Ogre::SceneQueryListener</text>
</g>
<!-- Node1 -->
<g id="node2" class="node">
<title>Node1</title>
<g id="a_node2"><a xlink:href="class_ogre_1_1_region_scene_query.html" target="_top" xlink:title="Abstract class defining a query which returns single results from a region. ">
<polygon fill="none" stroke="#000000" points="188,-98.5 188,-117.5 316,-117.5 316,-98.5 188,-98.5"/>
<text text-anchor="middle" x="252" y="-105.5" font-family="Helvetica,sans-Serif" font-size="10.00" fill="#000000">Ogre::RegionSceneQuery</text>
</a>
</g>
</g>
<!-- Node0&#45;&gt;Node1 -->
<g id="edge1" class="edge">
<title>Node0&#45;&gt;Node1</title>
<path fill="none" stroke="#191970" d="M142.0215,-93.2179C157.2847,-95.2694 173.1795,-97.4058 187.9853,-99.3959"/>
<polygon fill="#191970" stroke="#191970" points="142.4775,-89.7478 132.1004,-91.8845 141.545,-96.6855 142.4775,-89.7478"/>
</g>
<!-- Node14 -->
<g id="node15" class="node">
<title>Node14</title>
<g id="a_node15"><a xlink:href="class_ogre_1_1_scene_manager_1_1_shadow_renderer_1_1_shadow_caster_scene_query_listener.html" target="_top" xlink:title="Inner class to use as callback for shadow caster scene query. ">
<polygon fill="none" stroke="#000000" points="168,-38.5 168,-79.5 336,-79.5 336,-38.5 168,-38.5"/>
<text text-anchor="start" x="176" y="-67.5" font-family="Helvetica,sans-Serif" font-size="10.00" fill="#000000">Ogre::SceneManager</text>
<text text-anchor="start" x="176" y="-56.5" font-family="Helvetica,sans-Serif" font-size="10.00" fill="#000000">::ShadowRenderer::ShadowCaster</text>
<text text-anchor="middle" x="252" y="-45.5" font-family="Helvetica,sans-Serif" font-size="10.00" fill="#000000">SceneQueryListener</text>
</a>
</g>
</g>
<!-- Node0&#45;&gt;Node14 -->
<g id="edge14" class="edge">
<title>Node0&#45;&gt;Node14</title>
<path fill="none" stroke="#191970" d="M142.2847,-73.1568C150.7273,-72.0674 159.3599,-70.9536 167.8918,-69.8527"/>
<polygon fill="#191970" stroke="#191970" points="141.5702,-69.7199 132.1004,-74.4709 142.4661,-76.6623 141.5702,-69.7199"/>
</g>
<!-- Node2 -->
<g id="node3" class="node">
<title>Node2</title>
<g id="a_node3"><a xlink:href="class_ogre_1_1_axis_aligned_box_scene_query.html" target="_top" xlink:title="Specialises the SceneQuery class for querying within an axis aligned box. ">
<polygon fill="none" stroke="#000000" points="372,-164 372,-194 512,-194 512,-164 372,-164"/>
<text text-anchor="start" x="380" y="-182" font-family="Helvetica,sans-Serif" font-size="10.00" fill="#000000">Ogre::AxisAlignedBoxScene</text>
<text text-anchor="middle" x="442" y="-171" font-family="Helvetica,sans-Serif" font-size="10.00" fill="#000000">Query</text>
</a>
</g>
</g>
<!-- Node1&#45;&gt;Node2 -->
<g id="edge2" class="edge">
<title>Node1&#45;&gt;Node2</title>
<path fill="none" stroke="#191970" d="M287.1382,-121.1306C319.5205,-133.2313 367.5625,-151.1839 401.5351,-163.8789"/>
<polygon fill="#191970" stroke="#191970" points="288.2168,-117.7973 277.6242,-117.5754 285.7664,-124.3544 288.2168,-117.7973"/>
</g>
<!-- Node6 -->
<g id="node7" class="node">
<title>Node6</title>
<g id="a_node7"><a xlink:href="class_ogre_1_1_plane_bounded_volume_list_scene_query.html" target="_top" xlink:title="Specialises the SceneQuery class for querying within a plane&#45;bounded volume. ">
<polygon fill="none" stroke="#000000" points="372,-93 372,-123 512,-123 512,-93 372,-93"/>
<text text-anchor="start" x="380" y="-111" font-family="Helvetica,sans-Serif" font-size="10.00" fill="#000000">Ogre::PlaneBoundedVolume</text>
<text text-anchor="middle" x="442" y="-100" font-family="Helvetica,sans-Serif" font-size="10.00" fill="#000000">ListSceneQuery</text>
</a>
</g>
</g>
<!-- Node1&#45;&gt;Node6 -->
<g id="edge6" class="edge">
<title>Node1&#45;&gt;Node6</title>
<path fill="none" stroke="#191970" d="M326.2737,-108C341.2204,-108 356.8866,-108 371.6928,-108"/>
<polygon fill="#191970" stroke="#191970" points="326.0605,-104.5001 316.0604,-108 326.0604,-111.5001 326.0605,-104.5001"/>
</g>
<!-- Node10 -->
<g id="node11" class="node">
<title>Node10</title>
<g id="a_node11"><a xlink:href="class_ogre_1_1_sphere_scene_query.html" target="_top" xlink:title="Specialises the SceneQuery class for querying within a sphere. ">
<polygon fill="none" stroke="#000000" points="378,-52.5 378,-71.5 506,-71.5 506,-52.5 378,-52.5"/>
<text text-anchor="middle" x="442" y="-59.5" font-family="Helvetica,sans-Serif" font-size="10.00" fill="#000000">Ogre::SphereSceneQuery</text>
</a>
</g>
</g>
<!-- Node1&#45;&gt;Node10 -->
<g id="edge10" class="edge">
<title>Node1&#45;&gt;Node10</title>
<path fill="none" stroke="#191970" d="M305.2621,-96.1802C315.4762,-93.8492 326.0781,-91.3853 336,-89 359.0804,-83.4513 384.8937,-76.884 405.2683,-71.6156"/>
<polygon fill="#191970" stroke="#191970" points="304.1945,-92.8334 295.2167,-98.4592 305.7433,-99.6599 304.1945,-92.8334"/>
</g>
<!-- Node3 -->
<g id="node4" class="node">
<title>Node3</title>
<g id="a_node4"><a xlink:href="class_ogre_1_1_default_axis_aligned_box_scene_query.html" target="_top" xlink:title="Default implementation of AxisAlignedBoxSceneQuery. ">
<polygon fill="none" stroke="#000000" points="553.5,-175 553.5,-205 680.5,-205 680.5,-175 553.5,-175"/>
<text text-anchor="start" x="561.5" y="-193" font-family="Helvetica,sans-Serif" font-size="10.00" fill="#000000">Ogre::DefaultAxisAligned</text>
<text text-anchor="middle" x="617" y="-182" font-family="Helvetica,sans-Serif" font-size="10.00" fill="#000000">BoxSceneQuery</text>
</a>
</g>
</g>
<!-- Node2&#45;&gt;Node3 -->
<g id="edge3" class="edge">
<title>Node2&#45;&gt;Node3</title>
<path fill="none" stroke="#191970" d="M522.4567,-184.0573C532.8083,-184.708 543.2923,-185.3669 553.324,-185.9975"/>
<polygon fill="#191970" stroke="#191970" points="522.3708,-180.5451 512.1709,-183.4107 521.9316,-187.5313 522.3708,-180.5451"/>
</g>
<!-- Node4 -->
<g id="node5" class="node">
<title>Node4</title>
<g id="a_node5"><a xlink:href="class_ogre_1_1_octree_axis_aligned_box_scene_query.html" target="_top" xlink:title="Octree implementation of AxisAlignedBoxSceneQuery. ">
<polygon fill="none" stroke="#000000" points="731.5,-224 731.5,-254 873.5,-254 873.5,-224 731.5,-224"/>
<text text-anchor="start" x="739.5" y="-242" font-family="Helvetica,sans-Serif" font-size="10.00" fill="#000000">Ogre::OctreeAxisAlignedBox</text>
<text text-anchor="middle" x="802.5" y="-231" font-family="Helvetica,sans-Serif" font-size="10.00" fill="#000000">SceneQuery</text>
</a>
</g>
</g>
<!-- Node3&#45;&gt;Node4 -->
<g id="edge4" class="edge">
<title>Node3&#45;&gt;Node4</title>
<path fill="none" stroke="#191970" d="M683.7152,-207.6229C704.0097,-212.9837 726.1139,-218.8225 745.6909,-223.9938"/>
<polygon fill="#191970" stroke="#191970" points="684.479,-204.2047 673.9168,-205.0346 682.6912,-210.9725 684.479,-204.2047"/>
</g>
<!-- Node5 -->
<g id="node6" class="node">
<title>Node5</title>
<g id="a_node6"><a xlink:href="class_ogre_1_1_p_c_z_axis_aligned_box_scene_query.html" target="_top" xlink:title="PCZ implementation of AxisAlignedBoxSceneQuery. ">
<polygon fill="none" stroke="#000000" points="722,-175 722,-205 883,-205 883,-175 722,-175"/>
<text text-anchor="start" x="730" y="-193" font-family="Helvetica,sans-Serif" font-size="10.00" fill="#000000">Ogre::PCZAxisAlignedBoxScene</text>
<text text-anchor="middle" x="802.5" y="-182" font-family="Helvetica,sans-Serif" font-size="10.00" fill="#000000">Query</text>
</a>
</g>
</g>
<!-- Node3&#45;&gt;Node5 -->
<g id="edge5" class="edge">
<title>Node3&#45;&gt;Node5</title>
<path fill="none" stroke="#191970" d="M690.7167,-190C700.9824,-190 711.5732,-190 721.9563,-190"/>
<polygon fill="#191970" stroke="#191970" points="690.5791,-186.5001 680.5791,-190 690.579,-193.5001 690.5791,-186.5001"/>
</g>
<!-- Node7 -->
<g id="node8" class="node">
<title>Node7</title>
<g id="a_node8"><a xlink:href="class_ogre_1_1_default_plane_bounded_volume_list_scene_query.html" target="_top" xlink:title="Default implementation of PlaneBoundedVolumeListSceneQuery. ">
<polygon fill="none" stroke="#000000" points="548,-93 548,-123 686,-123 686,-93 548,-93"/>
<text text-anchor="start" x="556" y="-111" font-family="Helvetica,sans-Serif" font-size="10.00" fill="#000000">Ogre::DefaultPlaneBounded</text>
<text text-anchor="middle" x="617" y="-100" font-family="Helvetica,sans-Serif" font-size="10.00" fill="#000000">VolumeListSceneQuery</text>
</a>
</g>
</g>
<!-- Node6&#45;&gt;Node7 -->
<g id="edge7" class="edge">
<title>Node6&#45;&gt;Node7</title>
<path fill="none" stroke="#191970" d="M522.2034,-108C530.8038,-108 539.4989,-108 547.9531,-108"/>
<polygon fill="#191970" stroke="#191970" points="522.1709,-104.5001 512.1709,-108 522.1708,-111.5001 522.1709,-104.5001"/>
</g>
<!-- Node8 -->
<g id="node9" class="node">
<title>Node8</title>
<g id="a_node9"><a xlink:href="class_ogre_1_1_octree_plane_bounded_volume_list_scene_query.html" target="_top" xlink:title="Octree implementation of PlaneBoundedVolumeListSceneQuery. ">
<polygon fill="none" stroke="#000000" points="734.5,-126 734.5,-156 870.5,-156 870.5,-126 734.5,-126"/>
<text text-anchor="start" x="742.5" y="-144" font-family="Helvetica,sans-Serif" font-size="10.00" fill="#000000">Ogre::OctreePlaneBounded</text>
<text text-anchor="middle" x="802.5" y="-133" font-family="Helvetica,sans-Serif" font-size="10.00" fill="#000000">VolumeListSceneQuery</text>
</a>
</g>
</g>
<!-- Node7&#45;&gt;Node8 -->
<g id="edge8" class="edge">
<title>Node7&#45;&gt;Node8</title>
<path fill="none" stroke="#191970" d="M696.1584,-122.0821C708.8497,-124.3398 721.8881,-126.6593 734.295,-128.8665"/>
<polygon fill="#191970" stroke="#191970" points="696.5318,-118.5936 686.0734,-120.288 695.3057,-125.4854 696.5318,-118.5936"/>
</g>
<!-- Node9 -->
<g id="node10" class="node">
<title>Node9</title>
<g id="a_node10"><a xlink:href="class_ogre_1_1_p_c_z_plane_bounded_volume_list_scene_query.html" target="_top" xlink:title="PCZ implementation of PlaneBoundedVolumeListSceneQuery. ">
<polygon fill="none" stroke="#000000" points="722.5,-77 722.5,-107 882.5,-107 882.5,-77 722.5,-77"/>
<text text-anchor="start" x="730.5" y="-95" font-family="Helvetica,sans-Serif" font-size="10.00" fill="#000000">Ogre::PCZPlaneBoundedVolume</text>
<text text-anchor="middle" x="802.5" y="-84" font-family="Helvetica,sans-Serif" font-size="10.00" fill="#000000">ListSceneQuery</text>
</a>
</g>
</g>
<!-- Node7&#45;&gt;Node9 -->
<g id="edge9" class="edge">
<title>Node7&#45;&gt;Node9</title>
<path fill="none" stroke="#191970" d="M696.1806,-101.1704C704.8701,-100.4209 713.7219,-99.6574 722.4222,-98.907"/>
<polygon fill="#191970" stroke="#191970" points="695.7356,-97.6957 686.0734,-102.0422 696.3372,-104.6698 695.7356,-97.6957"/>
</g>
<!-- Node11 -->
<g id="node12" class="node">
<title>Node11</title>
<g id="a_node12"><a xlink:href="class_ogre_1_1_default_sphere_scene_query.html" target="_top" xlink:title="Default implementation of SphereSceneQuery. ">
<polygon fill="none" stroke="#000000" points="550,-33 550,-63 684,-63 684,-33 550,-33"/>
<text text-anchor="start" x="558" y="-51" font-family="Helvetica,sans-Serif" font-size="10.00" fill="#000000">Ogre::DefaultSphereScene</text>
<text text-anchor="middle" x="617" y="-40" font-family="Helvetica,sans-Serif" font-size="10.00" fill="#000000">Query</text>
</a>
</g>
</g>
<!-- Node10&#45;&gt;Node11 -->
<g id="edge11" class="edge">
<title>Node10&#45;&gt;Node11</title>
<path fill="none" stroke="#191970" d="M516.309,-56.0553C527.4623,-55.163 538.9083,-54.2473 549.8995,-53.368"/>
<polygon fill="#191970" stroke="#191970" points="515.8589,-52.58 506.1698,-56.8664 516.4171,-59.5577 515.8589,-52.58"/>
</g>
<!-- Node12 -->
<g id="node13" class="node">
<title>Node12</title>
<g id="a_node13"><a xlink:href="class_ogre_1_1_octree_sphere_scene_query.html" target="_top" xlink:title="Octree implementation of SphereSceneQuery. ">
<polygon fill="none" stroke="#000000" points="723.5,-38.5 723.5,-57.5 881.5,-57.5 881.5,-38.5 723.5,-38.5"/>
<text text-anchor="middle" x="802.5" y="-45.5" font-family="Helvetica,sans-Serif" font-size="10.00" fill="#000000">Ogre::OctreeSphereSceneQuery</text>
</a>
</g>
</g>
<!-- Node11&#45;&gt;Node12 -->
<g id="edge12" class="edge">
<title>Node11&#45;&gt;Node12</title>
<path fill="none" stroke="#191970" d="M694.438,-48C703.9412,-48 713.6651,-48 723.1955,-48"/>
<polygon fill="#191970" stroke="#191970" points="694.2321,-44.5001 684.232,-48 694.232,-51.5001 694.2321,-44.5001"/>
</g>
<!-- Node13 -->
<g id="node14" class="node">
<title>Node13</title>
<g id="a_node14"><a xlink:href="class_ogre_1_1_p_c_z_sphere_scene_query.html" target="_top" xlink:title="PCZ implementation of SphereSceneQuery. ">
<polygon fill="none" stroke="#000000" points="728,-.5 728,-19.5 877,-19.5 877,-.5 728,-.5"/>
<text text-anchor="middle" x="802.5" y="-7.5" font-family="Helvetica,sans-Serif" font-size="10.00" fill="#000000">Ogre::PCZSphereSceneQuery</text>
</a>
</g>
</g>
<!-- Node11&#45;&gt;Node13 -->
<g id="edge13" class="edge">
<title>Node11&#45;&gt;Node13</title>
<path fill="none" stroke="#191970" d="M694.1322,-32.1993C715.1825,-27.8871 737.3379,-23.3486 756.0916,-19.5069"/>
<polygon fill="#191970" stroke="#191970" points="693.3262,-28.7917 684.232,-34.2274 694.731,-35.6493 693.3262,-28.7917"/>
</g>
</g>
</svg>
