<?xml version="1.0" encoding="UTF-8" standalone="no"?>
<!DOCTYPE svg PUBLIC "-//W3C//DTD SVG 1.1//EN"
 "http://www.w3.org/Graphics/SVG/1.1/DTD/svg11.dtd">
<!-- Generated by graphviz version 2.40.1 (20161225.0304)
 -->
<!-- Title: Ogre::ScriptCompilerEvent Pages: 1 -->
<svg width="529pt" height="382pt"
 viewBox="0.00 0.00 529.00 382.00" xmlns="http://www.w3.org/2000/svg" xmlns:xlink="http://www.w3.org/1999/xlink">
<g id="graph0" class="graph" transform="scale(1 1) rotate(0) translate(4 378)">
<title>Ogre::ScriptCompilerEvent</title>
<!-- Node0 -->
<g id="node1" class="node">
<title>Node0</title>
<polygon fill="#bfbfbf" stroke="#000000" points="0,-177 0,-196 134,-196 134,-177 0,-177"/>
<text text-anchor="middle" x="67" y="-184" font-family="Helvetica,sans-Serif" font-size="10.00" fill="#000000">Ogre::ScriptCompilerEvent</text>
</g>
<!-- Node1 -->
<g id="node2" class="node">
<title>Node1</title>
<g id="a_node2"><a xlink:href="class_ogre_1_1_create_compositor_script_compiler_event.html" target="_top" xlink:title="Ogre::CreateCompositorScript\lCompilerEvent">
<polygon fill="none" stroke="#000000" points="181.5,-343.5 181.5,-373.5 330.5,-373.5 330.5,-343.5 181.5,-343.5"/>
<text text-anchor="start" x="189.5" y="-361.5" font-family="Helvetica,sans-Serif" font-size="10.00" fill="#000000">Ogre::CreateCompositorScript</text>
<text text-anchor="middle" x="256" y="-350.5" font-family="Helvetica,sans-Serif" font-size="10.00" fill="#000000">CompilerEvent</text>
</a>
</g>
</g>
<!-- Node0&#45;&gt;Node1 -->
<g id="edge1" class="edge">
<title>Node0&#45;&gt;Node1</title>
<path fill="none" stroke="#191970" d="M75.0408,-205.6364C89.3555,-237.3438 122.3022,-300.6298 170,-334.5 174.8027,-337.9104 180.0745,-340.8371 185.5703,-343.3487"/>
<polygon fill="#191970" stroke="#191970" points="78.1198,-203.9418 70.9061,-196.1821 71.7063,-206.7467 78.1198,-203.9418"/>
</g>
<!-- Node2 -->
<g id="node3" class="node">
<title>Node2</title>
<g id="a_node3"><a xlink:href="class_ogre_1_1_create_gpu_program_script_compiler_event.html" target="_top" xlink:title="Ogre::CreateGpuProgramScript\lCompilerEvent">
<polygon fill="none" stroke="#000000" points="179.5,-294.5 179.5,-324.5 332.5,-324.5 332.5,-294.5 179.5,-294.5"/>
<text text-anchor="start" x="187.5" y="-312.5" font-family="Helvetica,sans-Serif" font-size="10.00" fill="#000000">Ogre::CreateGpuProgramScript</text>
<text text-anchor="middle" x="256" y="-301.5" font-family="Helvetica,sans-Serif" font-size="10.00" fill="#000000">CompilerEvent</text>
</a>
</g>
</g>
<!-- Node0&#45;&gt;Node2 -->
<g id="edge2" class="edge">
<title>Node0&#45;&gt;Node2</title>
<path fill="none" stroke="#191970" d="M80.7005,-204.2496C98.7882,-226.4773 132.7323,-264.2177 170,-285.5 175.9227,-288.8823 182.3501,-291.8109 188.9336,-294.3418"/>
<polygon fill="#191970" stroke="#191970" points="83.332,-201.9356 74.3649,-196.2927 77.8559,-206.296 83.332,-201.9356"/>
</g>
<!-- Node4 -->
<g id="node5" class="node">
<title>Node4</title>
<g id="a_node5"><a xlink:href="class_ogre_1_1_create_gpu_shared_parameters_script_compiler_event.html" target="_top" xlink:title="Ogre::CreateGpuSharedParameters\lScriptCompilerEvent">
<polygon fill="none" stroke="#000000" points="170,-245.5 170,-275.5 342,-275.5 342,-245.5 170,-245.5"/>
<text text-anchor="start" x="178" y="-263.5" font-family="Helvetica,sans-Serif" font-size="10.00" fill="#000000">Ogre::CreateGpuSharedParameters</text>
<text text-anchor="middle" x="256" y="-252.5" font-family="Helvetica,sans-Serif" font-size="10.00" fill="#000000">ScriptCompilerEvent</text>
</a>
</g>
</g>
<!-- Node0&#45;&gt;Node4 -->
<g id="edge4" class="edge">
<title>Node0&#45;&gt;Node4</title>
<path fill="none" stroke="#191970" d="M93.4517,-200.9778C113.9198,-211.775 143.2006,-226.3502 170,-236.5 178.5528,-239.7392 187.7312,-242.7601 196.7926,-245.4913"/>
<polygon fill="#191970" stroke="#191970" points="94.905,-197.7862 84.435,-196.1647 91.6086,-203.9615 94.905,-197.7862"/>
</g>
<!-- Node5 -->
<g id="node6" class="node">
<title>Node5</title>
<g id="a_node6"><a xlink:href="class_ogre_1_1_create_material_script_compiler_event.html" target="_top" xlink:title="Ogre::CreateMaterialScript\lCompilerEvent">
<polygon fill="none" stroke="#000000" points="189.5,-196.5 189.5,-226.5 322.5,-226.5 322.5,-196.5 189.5,-196.5"/>
<text text-anchor="start" x="197.5" y="-214.5" font-family="Helvetica,sans-Serif" font-size="10.00" fill="#000000">Ogre::CreateMaterialScript</text>
<text text-anchor="middle" x="256" y="-203.5" font-family="Helvetica,sans-Serif" font-size="10.00" fill="#000000">CompilerEvent</text>
</a>
</g>
</g>
<!-- Node0&#45;&gt;Node5 -->
<g id="edge5" class="edge">
<title>Node0&#45;&gt;Node5</title>
<path fill="none" stroke="#191970" d="M144.3852,-196.7361C159.3091,-198.7102 174.8221,-200.7622 189.3677,-202.6862"/>
<polygon fill="#191970" stroke="#191970" points="144.5391,-193.2261 134.1665,-195.3845 143.6211,-200.1656 144.5391,-193.2261"/>
</g>
<!-- Node6 -->
<g id="node7" class="node">
<title>Node6</title>
<g id="a_node7"><a xlink:href="class_ogre_1_1_create_particle_system_script_compiler_event.html" target="_top" xlink:title="Ogre::CreateParticleSystem\lScriptCompilerEvent">
<polygon fill="none" stroke="#000000" points="186,-147.5 186,-177.5 326,-177.5 326,-147.5 186,-147.5"/>
<text text-anchor="start" x="194" y="-165.5" font-family="Helvetica,sans-Serif" font-size="10.00" fill="#000000">Ogre::CreateParticleSystem</text>
<text text-anchor="middle" x="256" y="-154.5" font-family="Helvetica,sans-Serif" font-size="10.00" fill="#000000">ScriptCompilerEvent</text>
</a>
</g>
</g>
<!-- Node0&#45;&gt;Node6 -->
<g id="edge6" class="edge">
<title>Node0&#45;&gt;Node6</title>
<path fill="none" stroke="#191970" d="M144.1152,-176.7076C157.9269,-174.9537 172.2518,-173.1347 185.8542,-171.4074"/>
<polygon fill="#191970" stroke="#191970" points="143.6459,-173.239 134.1665,-177.9709 144.5278,-180.1832 143.6459,-173.239"/>
</g>
<!-- Node7 -->
<g id="node8" class="node">
<title>Node7</title>
<g id="a_node8"><a xlink:href="class_ogre_1_1_pre_apply_texture_aliases_script_compiler_event.html" target="_top" xlink:title="Ogre::PreApplyTextureAliases\lScriptCompilerEvent">
<polygon fill="none" stroke="#000000" points="181.5,-98.5 181.5,-128.5 330.5,-128.5 330.5,-98.5 181.5,-98.5"/>
<text text-anchor="start" x="189.5" y="-116.5" font-family="Helvetica,sans-Serif" font-size="10.00" fill="#000000">Ogre::PreApplyTextureAliases</text>
<text text-anchor="middle" x="256" y="-105.5" font-family="Helvetica,sans-Serif" font-size="10.00" fill="#000000">ScriptCompilerEvent</text>
</a>
</g>
</g>
<!-- Node0&#45;&gt;Node7 -->
<g id="edge7" class="edge">
<title>Node0&#45;&gt;Node7</title>
<path fill="none" stroke="#191970" d="M94.2933,-172.3803C114.7747,-162.1313 143.6951,-148.3862 170,-138.5 179.4605,-134.9445 189.6612,-131.5827 199.6162,-128.5457"/>
<polygon fill="#191970" stroke="#191970" points="92.5858,-169.3216 85.2411,-176.9575 95.7445,-175.5685 92.5858,-169.3216"/>
</g>
<!-- Node8 -->
<g id="node9" class="node">
<title>Node8</title>
<g id="a_node9"><a xlink:href="class_ogre_1_1_process_name_exclusion_script_compiler_event.html" target="_top" xlink:title="Ogre::ProcessNameExclusion\lScriptCompilerEvent">
<polygon fill="none" stroke="#000000" points="181.5,-49.5 181.5,-79.5 330.5,-79.5 330.5,-49.5 181.5,-49.5"/>
<text text-anchor="start" x="189.5" y="-67.5" font-family="Helvetica,sans-Serif" font-size="10.00" fill="#000000">Ogre::ProcessNameExclusion</text>
<text text-anchor="middle" x="256" y="-56.5" font-family="Helvetica,sans-Serif" font-size="10.00" fill="#000000">ScriptCompilerEvent</text>
</a>
</g>
</g>
<!-- Node0&#45;&gt;Node8 -->
<g id="edge8" class="edge">
<title>Node0&#45;&gt;Node8</title>
<path fill="none" stroke="#191970" d="M80.8157,-169.183C99.0252,-147.4827 133.0978,-110.5873 170,-89.5 176.75,-85.6428 184.1439,-82.3387 191.6727,-79.5187"/>
<polygon fill="#191970" stroke="#191970" points="78.0786,-167.001 74.4332,-176.9489 83.4866,-171.4456 78.0786,-167.001"/>
</g>
<!-- Node9 -->
<g id="node10" class="node">
<title>Node9</title>
<g id="a_node10"><a xlink:href="class_ogre_1_1_process_resource_name_script_compiler_event.html" target="_top" xlink:title="Ogre::ProcessResourceName\lScriptCompilerEvent">
<polygon fill="none" stroke="#000000" points="182,-.5 182,-30.5 330,-30.5 330,-.5 182,-.5"/>
<text text-anchor="start" x="190" y="-18.5" font-family="Helvetica,sans-Serif" font-size="10.00" fill="#000000">Ogre::ProcessResourceName</text>
<text text-anchor="middle" x="256" y="-7.5" font-family="Helvetica,sans-Serif" font-size="10.00" fill="#000000">ScriptCompilerEvent</text>
</a>
</g>
</g>
<!-- Node0&#45;&gt;Node9 -->
<g id="edge9" class="edge">
<title>Node0&#45;&gt;Node9</title>
<path fill="none" stroke="#191970" d="M75.1516,-167.6776C89.6291,-136.4799 122.8087,-74.1655 170,-40.5 175.4429,-36.6171 181.4836,-33.3334 187.7679,-30.5569"/>
<polygon fill="#191970" stroke="#191970" points="71.8781,-166.4229 70.9655,-176.9784 78.2614,-169.2959 71.8781,-166.4229"/>
</g>
<!-- Node3 -->
<g id="node4" class="node">
<title>Node3</title>
<g id="a_node4"><a xlink:href="class_ogre_1_1_create_high_level_gpu_program_script_compiler_event.html" target="_top" xlink:title="Ogre::CreateHighLevelGpu\lProgramScriptCompilerEvent">
<polygon fill="none" stroke="#000000" points="378,-294.5 378,-324.5 521,-324.5 521,-294.5 378,-294.5"/>
<text text-anchor="start" x="386" y="-312.5" font-family="Helvetica,sans-Serif" font-size="10.00" fill="#000000">Ogre::CreateHighLevelGpu</text>
<text text-anchor="middle" x="449.5" y="-301.5" font-family="Helvetica,sans-Serif" font-size="10.00" fill="#000000">ProgramScriptCompilerEvent</text>
</a>
</g>
</g>
<!-- Node2&#45;&gt;Node3 -->
<g id="edge3" class="edge">
<title>Node2&#45;&gt;Node3</title>
<path fill="none" stroke="#191970" d="M342.9507,-309.5C354.6296,-309.5 366.501,-309.5 377.8746,-309.5"/>
<polygon fill="#191970" stroke="#191970" points="342.7543,-306.0001 332.7542,-309.5 342.7542,-313.0001 342.7543,-306.0001"/>
</g>
</g>
</svg>
