<?xml version="1.0" encoding="UTF-8" standalone="no"?>
<!DOCTYPE svg PUBLIC "-//W3C//DTD SVG 1.1//EN"
 "http://www.w3.org/Graphics/SVG/1.1/DTD/svg11.dtd">
<!-- Generated by graphviz version 2.40.1 (20161225.0304)
 -->
<!-- Title: Ogre::GLGpuProgram Pages: 1 -->
<svg width="337pt" height="252pt"
 viewBox="0.00 0.00 336.50 252.00" xmlns="http://www.w3.org/2000/svg" xmlns:xlink="http://www.w3.org/1999/xlink">
<g id="graph0" class="graph" transform="scale(1 1) rotate(0) translate(4 248)">
<title>Ogre::GLGpuProgram</title>
<!-- Node0 -->
<g id="node1" class="node">
<title>Node0</title>
<polygon fill="#bfbfbf" stroke="#000000" points="121,-56.5 121,-75.5 232,-75.5 232,-56.5 121,-56.5"/>
<text text-anchor="middle" x="176.5" y="-63.5" font-family="Helvetica,sans-Serif" font-size="10.00" fill="#000000">Ogre::GLGpuProgram</text>
</g>
<!-- Node6 -->
<g id="node7" class="node">
<title>Node6</title>
<g id="a_node7"><a xlink:href="class_ogre_1_1_g_l_arb_gpu_program.html" target="_top" xlink:title="Specialisation of the GL low&#45;level program for ARB programs. ">
<polygon fill="none" stroke="#000000" points="36.5,-.5 36.5,-19.5 162.5,-19.5 162.5,-.5 36.5,-.5"/>
<text text-anchor="middle" x="99.5" y="-7.5" font-family="Helvetica,sans-Serif" font-size="10.00" fill="#000000">Ogre::GLArbGpuProgram</text>
</a>
</g>
</g>
<!-- Node0&#45;&gt;Node6 -->
<g id="edge6" class="edge">
<title>Node0&#45;&gt;Node6</title>
<path fill="none" stroke="#191970" d="M154.7884,-50.2097C141.2647,-40.3743 124.3042,-28.0394 112.7587,-19.6427"/>
<polygon fill="#191970" stroke="#191970" points="152.9416,-53.1944 163.0876,-56.2455 157.0589,-47.5332 152.9416,-53.1944"/>
</g>
<!-- Node7 -->
<g id="node8" class="node">
<title>Node7</title>
<g id="a_node8"><a xlink:href="class_ogre_1_1_g_l_gpu_nvparse_program.html" target="_top" xlink:title="Ogre::GLGpuNvparseProgram">
<polygon fill="none" stroke="#000000" points="180.5,-.5 180.5,-19.5 328.5,-19.5 328.5,-.5 180.5,-.5"/>
<text text-anchor="middle" x="254.5" y="-7.5" font-family="Helvetica,sans-Serif" font-size="10.00" fill="#000000">Ogre::GLGpuNvparseProgram</text>
</a>
</g>
</g>
<!-- Node0&#45;&gt;Node7 -->
<g id="edge7" class="edge">
<title>Node0&#45;&gt;Node7</title>
<path fill="none" stroke="#191970" d="M198.4936,-50.2097C212.1929,-40.3743 229.3736,-28.0394 241.0691,-19.6427"/>
<polygon fill="#191970" stroke="#191970" points="196.1686,-47.5703 190.0866,-56.2455 200.2511,-53.2566 196.1686,-47.5703"/>
</g>
<!-- Node1 -->
<g id="node2" class="node">
<title>Node1</title>
<g id="a_node2"><a xlink:href="class_ogre_1_1_gpu_program.html" target="_top" xlink:title="Defines a program which runs on the GPU such as a vertex or fragment program. ">
<polygon fill="none" stroke="#000000" points="60.5,-112.5 60.5,-131.5 158.5,-131.5 158.5,-112.5 60.5,-112.5"/>
<text text-anchor="middle" x="109.5" y="-119.5" font-family="Helvetica,sans-Serif" font-size="10.00" fill="#000000">Ogre::GpuProgram</text>
</a>
</g>
</g>
<!-- Node1&#45;&gt;Node0 -->
<g id="edge1" class="edge">
<title>Node1&#45;&gt;Node0</title>
<path fill="none" stroke="#191970" d="M129.0676,-105.645C140.7198,-95.9058 155.1084,-83.8795 164.9632,-75.6427"/>
<polygon fill="#191970" stroke="#191970" points="126.5988,-103.1469 121.1705,-112.2455 131.0879,-108.5179 126.5988,-103.1469"/>
</g>
<!-- Node2 -->
<g id="node3" class="node">
<title>Node2</title>
<g id="a_node3"><a xlink:href="class_ogre_1_1_resource.html" target="_top" xlink:title="Abstract class representing a loadable resource. ">
<polygon fill="none" stroke="#000000" points="66.5,-168.5 66.5,-187.5 152.5,-187.5 152.5,-168.5 66.5,-168.5"/>
<text text-anchor="middle" x="109.5" y="-175.5" font-family="Helvetica,sans-Serif" font-size="10.00" fill="#000000">Ogre::Resource</text>
</a>
</g>
</g>
<!-- Node2&#45;&gt;Node1 -->
<g id="edge2" class="edge">
<title>Node2&#45;&gt;Node1</title>
<path fill="none" stroke="#191970" d="M109.5,-158.1575C109.5,-149.155 109.5,-138.9199 109.5,-131.6427"/>
<polygon fill="#191970" stroke="#191970" points="106.0001,-158.2455 109.5,-168.2455 113.0001,-158.2456 106.0001,-158.2455"/>
</g>
<!-- Node3 -->
<g id="node4" class="node">
<title>Node3</title>
<g id="a_node4"><a xlink:href="class_ogre_1_1_string_interface.html" target="_top" xlink:title="Class defining the common interface which classes can use to present a reflection&#45;style, self&#45;defining parameter set to callers. ">
<polygon fill="none" stroke="#000000" points="0,-224.5 0,-243.5 107,-243.5 107,-224.5 0,-224.5"/>
<text text-anchor="middle" x="53.5" y="-231.5" font-family="Helvetica,sans-Serif" font-size="10.00" fill="#000000">Ogre::StringInterface</text>
</a>
</g>
</g>
<!-- Node3&#45;&gt;Node2 -->
<g id="edge3" class="edge">
<title>Node3&#45;&gt;Node2</title>
<path fill="none" stroke="#191970" d="M70.4249,-217.0751C80.0598,-207.4402 91.7804,-195.7196 99.8573,-187.6427"/>
<polygon fill="#191970" stroke="#191970" points="67.8507,-214.6996 63.2545,-224.2455 72.8004,-219.6493 67.8507,-214.6996"/>
</g>
<!-- Node4 -->
<g id="node5" class="node">
<title>Node4</title>
<g id="a_node5"><a xlink:href="class_ogre_1_1_allocated_object.html" target="_top" xlink:title="ResourceAlloc">
<polygon fill="none" stroke="#000000" points="125.5,-224.5 125.5,-243.5 205.5,-243.5 205.5,-224.5 125.5,-224.5"/>
<text text-anchor="middle" x="165.5" y="-231.5" font-family="Helvetica,sans-Serif" font-size="10.00" fill="#000000">ResourceAlloc</text>
</a>
</g>
</g>
<!-- Node4&#45;&gt;Node2 -->
<g id="edge4" class="edge">
<title>Node4&#45;&gt;Node2</title>
<path fill="none" stroke="#191970" d="M148.5751,-217.0751C138.9402,-207.4402 127.2196,-195.7196 119.1427,-187.6427"/>
<polygon fill="#191970" stroke="#191970" points="146.1996,-219.6493 155.7455,-224.2455 151.1493,-214.6996 146.1996,-219.6493"/>
</g>
<!-- Node5 -->
<g id="node6" class="node">
<title>Node5</title>
<g id="a_node6"><a xlink:href="struct_ogre_1_1_g_l_gpu_program_base.html" target="_top" xlink:title="Ogre::GLGpuProgramBase">
<polygon fill="none" stroke="#000000" points="176.5,-112.5 176.5,-131.5 310.5,-131.5 310.5,-112.5 176.5,-112.5"/>
<text text-anchor="middle" x="243.5" y="-119.5" font-family="Helvetica,sans-Serif" font-size="10.00" fill="#000000">Ogre::GLGpuProgramBase</text>
</a>
</g>
</g>
<!-- Node5&#45;&gt;Node0 -->
<g id="edge5" class="edge">
<title>Node5&#45;&gt;Node0</title>
<path fill="none" stroke="#191970" d="M223.9324,-105.645C212.2802,-95.9058 197.8916,-83.8795 188.0368,-75.6427"/>
<polygon fill="#191970" stroke="#191970" points="221.9121,-108.5179 231.8295,-112.2455 226.4012,-103.1469 221.9121,-108.5179"/>
</g>
</g>
</svg>
