<?xml version="1.0" encoding="UTF-8" standalone="no"?>
<!DOCTYPE svg PUBLIC "-//W3C//DTD SVG 1.1//EN"
 "http://www.w3.org/Graphics/SVG/1.1/DTD/svg11.dtd">
<!-- Generated by graphviz version 2.40.1 (20161225.0304)
 -->
<!-- Title: Ogre::GLWindow Pages: 1 -->
<svg width="252pt" height="196pt"
 viewBox="0.00 0.00 252.00 196.00" xmlns="http://www.w3.org/2000/svg" xmlns:xlink="http://www.w3.org/1999/xlink">
<g id="graph0" class="graph" transform="scale(1 1) rotate(0) translate(4 192)">
<title>Ogre::GLWindow</title>
<!-- Node0 -->
<g id="node1" class="node">
<title>Node0</title>
<polygon fill="#bfbfbf" stroke="#000000" points="74,-.5 74,-19.5 166,-19.5 166,-.5 74,-.5"/>
<text text-anchor="middle" x="120" y="-7.5" font-family="Helvetica,sans-Serif" font-size="10.00" fill="#000000">Ogre::GLWindow</text>
</g>
<!-- Node1 -->
<g id="node2" class="node">
<title>Node1</title>
<g id="a_node2"><a xlink:href="class_ogre_1_1_render_window.html" target="_top" xlink:title="Manages the target rendering window. ">
<polygon fill="none" stroke="#000000" points="0,-56.5 0,-75.5 110,-75.5 110,-56.5 0,-56.5"/>
<text text-anchor="middle" x="55" y="-63.5" font-family="Helvetica,sans-Serif" font-size="10.00" fill="#000000">Ogre::RenderWindow</text>
</a>
</g>
</g>
<!-- Node1&#45;&gt;Node0 -->
<g id="edge1" class="edge">
<title>Node1&#45;&gt;Node0</title>
<path fill="none" stroke="#191970" d="M73.9835,-49.645C85.2879,-39.9058 99.247,-27.8795 108.8076,-19.6427"/>
<polygon fill="#191970" stroke="#191970" points="71.6138,-47.0668 66.3221,-56.2455 76.1827,-52.3701 71.6138,-47.0668"/>
</g>
<!-- Node2 -->
<g id="node3" class="node">
<title>Node2</title>
<g id="a_node3"><a xlink:href="class_ogre_1_1_render_target.html" target="_top" xlink:title="A &#39;canvas&#39; which can receive the results of a rendering operation. ">
<polygon fill="none" stroke="#000000" points="3.5,-112.5 3.5,-131.5 106.5,-131.5 106.5,-112.5 3.5,-112.5"/>
<text text-anchor="middle" x="55" y="-119.5" font-family="Helvetica,sans-Serif" font-size="10.00" fill="#000000">Ogre::RenderTarget</text>
</a>
</g>
</g>
<!-- Node2&#45;&gt;Node1 -->
<g id="edge2" class="edge">
<title>Node2&#45;&gt;Node1</title>
<path fill="none" stroke="#191970" d="M55,-102.1575C55,-93.155 55,-82.9199 55,-75.6427"/>
<polygon fill="#191970" stroke="#191970" points="51.5001,-102.2455 55,-112.2455 58.5001,-102.2456 51.5001,-102.2455"/>
</g>
<!-- Node3 -->
<g id="node4" class="node">
<title>Node3</title>
<g id="a_node4"><a xlink:href="class_ogre_1_1_allocated_object.html" target="_top" xlink:title="RenderSysAlloc">
<polygon fill="none" stroke="#000000" points="11.5,-168.5 11.5,-187.5 98.5,-187.5 98.5,-168.5 11.5,-168.5"/>
<text text-anchor="middle" x="55" y="-175.5" font-family="Helvetica,sans-Serif" font-size="10.00" fill="#000000">RenderSysAlloc</text>
</a>
</g>
</g>
<!-- Node3&#45;&gt;Node2 -->
<g id="edge3" class="edge">
<title>Node3&#45;&gt;Node2</title>
<path fill="none" stroke="#191970" d="M55,-158.1575C55,-149.155 55,-138.9199 55,-131.6427"/>
<polygon fill="#191970" stroke="#191970" points="51.5001,-158.2455 55,-168.2455 58.5001,-158.2456 51.5001,-158.2455"/>
</g>
<!-- Node4 -->
<g id="node5" class="node">
<title>Node4</title>
<g id="a_node5"><a xlink:href="class_ogre_1_1_g_l_render_target.html" target="_top" xlink:title="Ogre::GLRenderTarget">
<polygon fill="none" stroke="#000000" points="128,-56.5 128,-75.5 244,-75.5 244,-56.5 128,-56.5"/>
<text text-anchor="middle" x="186" y="-63.5" font-family="Helvetica,sans-Serif" font-size="10.00" fill="#000000">Ogre::GLRenderTarget</text>
</a>
</g>
</g>
<!-- Node4&#45;&gt;Node0 -->
<g id="edge4" class="edge">
<title>Node4&#45;&gt;Node0</title>
<path fill="none" stroke="#191970" d="M166.7245,-49.645C155.2462,-39.9058 141.0723,-27.8795 131.3646,-19.6427"/>
<polygon fill="#191970" stroke="#191970" points="164.6141,-52.4445 174.5037,-56.2455 169.143,-47.1069 164.6141,-52.4445"/>
</g>
</g>
</svg>
