<?xml version="1.0" encoding="UTF-8" standalone="no"?>
<!DOCTYPE svg PUBLIC "-//W3C//DTD SVG 1.1//EN"
 "http://www.w3.org/Graphics/SVG/1.1/DTD/svg11.dtd">
<!-- Generated by graphviz version 2.40.1 (20161225.0304)
 -->
<!-- Title: Ogre::HighLevelGpuProgramFactory Pages: 1 -->
<svg width="462pt" height="344pt"
 viewBox="0.00 0.00 462.00 343.50" xmlns="http://www.w3.org/2000/svg" xmlns:xlink="http://www.w3.org/1999/xlink">
<g id="graph0" class="graph" transform="scale(1 1) rotate(0) translate(4 339.5)">
<title>Ogre::HighLevelGpuProgramFactory</title>
<!-- Node0 -->
<g id="node1" class="node">
<title>Node0</title>
<polygon fill="#bfbfbf" stroke="#000000" points="107,-158.5 107,-188.5 249,-188.5 249,-158.5 107,-158.5"/>
<text text-anchor="start" x="115" y="-176.5" font-family="Helvetica,sans-Serif" font-size="10.00" fill="#000000">Ogre::HighLevelGpuProgram</text>
<text text-anchor="middle" x="178" y="-165.5" font-family="Helvetica,sans-Serif" font-size="10.00" fill="#000000">Factory</text>
</g>
<!-- Node2 -->
<g id="node3" class="node">
<title>Node2</title>
<g id="a_node3"><a xlink:href="class_ogre_1_1_cg_program_factory.html" target="_top" xlink:title="Factory class for Cg programs. ">
<polygon fill="none" stroke="#000000" points="306.5,-316 306.5,-335 432.5,-335 432.5,-316 306.5,-316"/>
<text text-anchor="middle" x="369.5" y="-323" font-family="Helvetica,sans-Serif" font-size="10.00" fill="#000000">Ogre::CgProgramFactory</text>
</a>
</g>
</g>
<!-- Node0&#45;&gt;Node2 -->
<g id="edge2" class="edge">
<title>Node0&#45;&gt;Node2</title>
<path fill="none" stroke="#191970" d="M190.6531,-197.6946C207.8229,-228.0321 241.4244,-279.3474 285,-306.5 291.5084,-310.5555 298.7773,-313.7492 306.2454,-316.2636"/>
<polygon fill="#191970" stroke="#191970" points="193.5552,-195.7089 185.6641,-188.6392 187.4241,-199.0868 193.5552,-195.7089"/>
</g>
<!-- Node3 -->
<g id="node4" class="node">
<title>Node3</title>
<g id="a_node4"><a xlink:href="class_ogre_1_1_d3_d11_h_l_s_l_program_factory.html" target="_top" xlink:title="Factory class for D3D11 HLSL programs. ">
<polygon fill="none" stroke="#000000" points="285,-278 285,-297 454,-297 454,-278 285,-278"/>
<text text-anchor="middle" x="369.5" y="-285" font-family="Helvetica,sans-Serif" font-size="10.00" fill="#000000">Ogre::D3D11HLSLProgramFactory</text>
</a>
</g>
</g>
<!-- Node0&#45;&gt;Node3 -->
<g id="edge3" class="edge">
<title>Node0&#45;&gt;Node3</title>
<path fill="none" stroke="#191970" d="M197.1477,-196.1482C216.9128,-218.0293 249.7564,-250.4368 285,-268.5 292.6273,-272.4092 301.0473,-275.5195 309.5287,-277.9929"/>
<polygon fill="#191970" stroke="#191970" points="199.725,-193.7792 190.4773,-188.609 194.4824,-198.4177 199.725,-193.7792"/>
</g>
<!-- Node4 -->
<g id="node5" class="node">
<title>Node4</title>
<g id="a_node5"><a xlink:href="class_ogre_1_1_d3_d9_h_l_s_l_program_factory.html" target="_top" xlink:title="Factory class for D3D9 HLSL programs. ">
<polygon fill="none" stroke="#000000" points="287.5,-240 287.5,-259 451.5,-259 451.5,-240 287.5,-240"/>
<text text-anchor="middle" x="369.5" y="-247" font-family="Helvetica,sans-Serif" font-size="10.00" fill="#000000">Ogre::D3D9HLSLProgramFactory</text>
</a>
</g>
</g>
<!-- Node0&#45;&gt;Node4 -->
<g id="edge4" class="edge">
<title>Node0&#45;&gt;Node4</title>
<path fill="none" stroke="#191970" d="M210.4687,-193.7495C231.1483,-205.8905 258.8722,-220.8047 285,-230.5 295.009,-234.2141 305.9658,-237.3294 316.5748,-239.8926"/>
<polygon fill="#191970" stroke="#191970" points="212.1603,-190.6832 201.7788,-188.5676 208.5751,-196.6954 212.1603,-190.6832"/>
</g>
<!-- Node5 -->
<g id="node6" class="node">
<title>Node5</title>
<g id="a_node6"><a xlink:href="class_ogre_1_1_g_l_s_l_1_1_g_l_s_l_program_factory.html" target="_top" xlink:title="Factory class for GLSL programs. ">
<polygon fill="none" stroke="#000000" points="285,-202 285,-221 454,-221 454,-202 285,-202"/>
<text text-anchor="middle" x="369.5" y="-209" font-family="Helvetica,sans-Serif" font-size="10.00" fill="#000000">Ogre::GLSL::GLSLProgramFactory</text>
</a>
</g>
</g>
<!-- Node0&#45;&gt;Node5 -->
<g id="edge5" class="edge">
<title>Node0&#45;&gt;Node5</title>
<path fill="none" stroke="#191970" d="M259.055,-189.584C280.3373,-193.8071 302.6118,-198.2271 321.537,-201.9825"/>
<polygon fill="#191970" stroke="#191970" points="259.5254,-186.1092 249.0354,-187.5958 258.1629,-192.9753 259.5254,-186.1092"/>
</g>
<!-- Node6 -->
<g id="node7" class="node">
<title>Node6</title>
<g id="a_node7"><a xlink:href="class_ogre_1_1_g_l_s_l_e_s_cg_program_factory.html" target="_top" xlink:title="Factory class for GLSL ES programs. ">
<polygon fill="none" stroke="#000000" points="287.5,-164 287.5,-183 451.5,-183 451.5,-164 287.5,-164"/>
<text text-anchor="middle" x="369.5" y="-171" font-family="Helvetica,sans-Serif" font-size="10.00" fill="#000000">Ogre::GLSLESCgProgramFactory</text>
</a>
</g>
</g>
<!-- Node0&#45;&gt;Node6 -->
<g id="edge6" class="edge">
<title>Node0&#45;&gt;Node6</title>
<path fill="none" stroke="#191970" d="M259.069,-173.5C268.4005,-173.5 277.9226,-173.5 287.2693,-173.5"/>
<polygon fill="#191970" stroke="#191970" points="259.0354,-170.0001 249.0354,-173.5 259.0354,-177.0001 259.0354,-170.0001"/>
</g>
<!-- Node7 -->
<g id="node8" class="node">
<title>Node7</title>
<g id="a_node8"><a xlink:href="class_ogre_1_1_g_l_s_l_e_s_program_factory.html" target="_top" xlink:title="Factory class for GLSL ES programs. ">
<polygon fill="none" stroke="#000000" points="293.5,-126 293.5,-145 445.5,-145 445.5,-126 293.5,-126"/>
<text text-anchor="middle" x="369.5" y="-133" font-family="Helvetica,sans-Serif" font-size="10.00" fill="#000000">Ogre::GLSLESProgramFactory</text>
</a>
</g>
</g>
<!-- Node0&#45;&gt;Node7 -->
<g id="edge7" class="edge">
<title>Node0&#45;&gt;Node7</title>
<path fill="none" stroke="#191970" d="M259.055,-157.416C280.3373,-153.1929 302.6118,-148.7729 321.537,-145.0175"/>
<polygon fill="#191970" stroke="#191970" points="258.1629,-154.0247 249.0354,-159.4042 259.5254,-160.8908 258.1629,-154.0247"/>
</g>
<!-- Node8 -->
<g id="node9" class="node">
<title>Node8</title>
<g id="a_node9"><a xlink:href="class_ogre_1_1_g_l_s_l_shader_factory.html" target="_top" xlink:title="Factory class for GLSL shaders. ">
<polygon fill="none" stroke="#000000" points="303.5,-88 303.5,-107 435.5,-107 435.5,-88 303.5,-88"/>
<text text-anchor="middle" x="369.5" y="-95" font-family="Helvetica,sans-Serif" font-size="10.00" fill="#000000">Ogre::GLSLShaderFactory</text>
</a>
</g>
</g>
<!-- Node0&#45;&gt;Node8 -->
<g id="edge8" class="edge">
<title>Node0&#45;&gt;Node8</title>
<path fill="none" stroke="#191970" d="M210.4687,-153.2505C231.1483,-141.1095 258.8722,-126.1953 285,-116.5 295.009,-112.7859 305.9658,-109.6706 316.5748,-107.1074"/>
<polygon fill="#191970" stroke="#191970" points="208.5751,-150.3046 201.7788,-158.4324 212.1603,-156.3168 208.5751,-150.3046"/>
</g>
<!-- Node9 -->
<g id="node10" class="node">
<title>Node9</title>
<g id="a_node10"><a xlink:href="class_ogre_1_1_s_p_i_r_v_shader_factory.html" target="_top" xlink:title="Ogre::SPIRVShaderFactory">
<polygon fill="none" stroke="#000000" points="300.5,-50 300.5,-69 438.5,-69 438.5,-50 300.5,-50"/>
<text text-anchor="middle" x="369.5" y="-57" font-family="Helvetica,sans-Serif" font-size="10.00" fill="#000000">Ogre::SPIRVShaderFactory</text>
</a>
</g>
</g>
<!-- Node0&#45;&gt;Node9 -->
<g id="edge9" class="edge">
<title>Node0&#45;&gt;Node9</title>
<path fill="none" stroke="#191970" d="M197.1477,-150.8518C216.9128,-128.9707 249.7564,-96.5632 285,-78.5 292.6273,-74.5908 301.0473,-71.4805 309.5287,-69.0071"/>
<polygon fill="#191970" stroke="#191970" points="194.4824,-148.5823 190.4773,-158.391 199.725,-153.2208 194.4824,-148.5823"/>
</g>
<!-- Node10 -->
<g id="node11" class="node">
<title>Node10</title>
<g id="a_node11"><a xlink:href="class_ogre_1_1_unified_high_level_gpu_program_factory.html" target="_top" xlink:title="Factory class for Unified programs. ">
<polygon fill="none" stroke="#000000" points="301.5,-.5 301.5,-30.5 437.5,-30.5 437.5,-.5 301.5,-.5"/>
<text text-anchor="start" x="309.5" y="-18.5" font-family="Helvetica,sans-Serif" font-size="10.00" fill="#000000">Ogre::UnifiedHighLevelGpu</text>
<text text-anchor="middle" x="369.5" y="-7.5" font-family="Helvetica,sans-Serif" font-size="10.00" fill="#000000">ProgramFactory</text>
</a>
</g>
</g>
<!-- Node0&#45;&gt;Node10 -->
<g id="edge10" class="edge">
<title>Node0&#45;&gt;Node10</title>
<path fill="none" stroke="#191970" d="M191.218,-149.2863C208.7755,-119.3657 242.573,-68.9369 285,-40.5 290.7187,-36.667 297.0379,-33.4091 303.5698,-30.6425"/>
<polygon fill="#191970" stroke="#191970" points="188.0306,-147.8093 186.0977,-158.2263 194.1049,-151.2882 188.0306,-147.8093"/>
</g>
<!-- Node1 -->
<g id="node2" class="node">
<title>Node1</title>
<g id="a_node2"><a xlink:href="class_ogre_1_1_allocated_object.html" target="_top" xlink:title="FactoryAlloc">
<polygon fill="none" stroke="#000000" points="0,-164 0,-183 71,-183 71,-164 0,-164"/>
<text text-anchor="middle" x="35.5" y="-171" font-family="Helvetica,sans-Serif" font-size="10.00" fill="#000000">FactoryAlloc</text>
</a>
</g>
</g>
<!-- Node1&#45;&gt;Node0 -->
<g id="edge1" class="edge">
<title>Node1&#45;&gt;Node0</title>
<path fill="none" stroke="#191970" d="M81.1388,-173.5C89.3216,-173.5 98.0241,-173.5 106.7272,-173.5"/>
<polygon fill="#191970" stroke="#191970" points="81.0912,-170.0001 71.0912,-173.5 81.0911,-177.0001 81.0912,-170.0001"/>
</g>
</g>
</svg>
