<?xml version="1.0" encoding="UTF-8" standalone="no"?>
<!DOCTYPE svg PUBLIC "-//W3C//DTD SVG 1.1//EN"
 "http://www.w3.org/Graphics/SVG/1.1/DTD/svg11.dtd">
<!-- Generated by graphviz version 2.40.1 (20161225.0304)
 -->
<!-- Title: Ogre::SceneManager::ShadowRenderer::ShadowCasterSceneQueryListener Pages: 1 -->
<svg width="242pt" height="106pt"
 viewBox="0.00 0.00 241.50 106.00" xmlns="http://www.w3.org/2000/svg" xmlns:xlink="http://www.w3.org/1999/xlink">
<g id="graph0" class="graph" transform="scale(1 1) rotate(0) translate(4 102)">
<title>Ogre::SceneManager::ShadowRenderer::ShadowCasterSceneQueryListener</title>
<!-- Node0 -->
<g id="node1" class="node">
<title>Node0</title>
<polygon fill="#bfbfbf" stroke="#000000" points="45,-.5 45,-41.5 213,-41.5 213,-.5 45,-.5"/>
<text text-anchor="start" x="53" y="-29.5" font-family="Helvetica,sans-Serif" font-size="10.00" fill="#000000">Ogre::SceneManager</text>
<text text-anchor="start" x="53" y="-18.5" font-family="Helvetica,sans-Serif" font-size="10.00" fill="#000000">::ShadowRenderer::ShadowCaster</text>
<text text-anchor="middle" x="129" y="-7.5" font-family="Helvetica,sans-Serif" font-size="10.00" fill="#000000">SceneQueryListener</text>
</g>
<!-- Node1 -->
<g id="node2" class="node">
<title>Node1</title>
<g id="a_node2"><a xlink:href="class_ogre_1_1_scene_query_listener.html" target="_top" xlink:title="This optional class allows you to receive per&#45;result callbacks from SceneQuery executions instead of ...">
<polygon fill="none" stroke="#000000" points="0,-78.5 0,-97.5 132,-97.5 132,-78.5 0,-78.5"/>
<text text-anchor="middle" x="66" y="-85.5" font-family="Helvetica,sans-Serif" font-size="10.00" fill="#000000">Ogre::SceneQueryListener</text>
</a>
</g>
</g>
<!-- Node1&#45;&gt;Node0 -->
<g id="edge1" class="edge">
<title>Node1&#45;&gt;Node0</title>
<path fill="none" stroke="#191970" d="M82.082,-70.8969C90.4636,-61.9831 100.7783,-51.0135 109.6,-41.6318"/>
<polygon fill="#191970" stroke="#191970" points="79.3268,-68.7177 75.0264,-78.4005 84.4265,-73.5129 79.3268,-68.7177"/>
</g>
<!-- Node2 -->
<g id="node3" class="node">
<title>Node2</title>
<g id="a_node3"><a xlink:href="class_ogre_1_1_allocated_object.html" target="_top" xlink:title="SceneMgtAlloc">
<polygon fill="none" stroke="#000000" points="150.5,-78.5 150.5,-97.5 233.5,-97.5 233.5,-78.5 150.5,-78.5"/>
<text text-anchor="middle" x="192" y="-85.5" font-family="Helvetica,sans-Serif" font-size="10.00" fill="#000000">SceneMgtAlloc</text>
</a>
</g>
</g>
<!-- Node2&#45;&gt;Node0 -->
<g id="edge2" class="edge">
<title>Node2&#45;&gt;Node0</title>
<path fill="none" stroke="#191970" d="M175.918,-70.8969C167.5364,-61.9831 157.2217,-51.0135 148.4,-41.6318"/>
<polygon fill="#191970" stroke="#191970" points="173.5735,-73.5129 182.9736,-78.4005 178.6732,-68.7177 173.5735,-73.5129"/>
</g>
</g>
</svg>
