<?xml version="1.0" encoding="UTF-8" standalone="no"?>
<!DOCTYPE svg PUBLIC "-//W3C//DTD SVG 1.1//EN"
 "http://www.w3.org/Graphics/SVG/1.1/DTD/svg11.dtd">
<!-- Generated by graphviz version 2.40.1 (20161225.0304)
 -->
<!-- Title: Ogre::RTShader::SubRenderState Pages: 1 -->
<svg width="878pt" height="453pt"
 viewBox="0.00 0.00 878.00 452.50" xmlns="http://www.w3.org/2000/svg" xmlns:xlink="http://www.w3.org/1999/xlink">
<g id="graph0" class="graph" transform="scale(1 1) rotate(0) translate(4 448.5)">
<title>Ogre::RTShader::SubRenderState</title>
<!-- Node0 -->
<g id="node1" class="node">
<title>Node0</title>
<polygon fill="#bfbfbf" stroke="#000000" points="152,-229.5 152,-259.5 295,-259.5 295,-229.5 152,-229.5"/>
<text text-anchor="start" x="160" y="-247.5" font-family="Helvetica,sans-Serif" font-size="10.00" fill="#000000">Ogre::RTShader::SubRender</text>
<text text-anchor="middle" x="223.5" y="-236.5" font-family="Helvetica,sans-Serif" font-size="10.00" fill="#000000">State</text>
</g>
<!-- Node2 -->
<g id="node3" class="node">
<title>Node2</title>
<g id="a_node3"><a xlink:href="class_ogre_1_1_r_t_shader_1_1_f_f_p_alpha_test.html" target="_top" xlink:title="A factory that enables creation of LayeredBlending instances. ">
<polygon fill="none" stroke="#000000" points="331,-425 331,-444 488,-444 488,-425 331,-425"/>
<text text-anchor="middle" x="409.5" y="-432" font-family="Helvetica,sans-Serif" font-size="10.00" fill="#000000">Ogre::RTShader::FFPAlphaTest</text>
</a>
</g>
</g>
<!-- Node0&#45;&gt;Node2 -->
<g id="edge2" class="edge">
<title>Node0&#45;&gt;Node2</title>
<path fill="none" stroke="#191970" d="M232.0741,-269.2593C246.4228,-306.8953 278.957,-378.0686 331,-415.5 336.3502,-419.3481 342.3819,-422.4236 348.6644,-424.8806"/>
<polygon fill="#191970" stroke="#191970" points="235.252,-267.7607 228.5082,-259.5893 228.6843,-270.1827 235.252,-267.7607"/>
</g>
<!-- Node3 -->
<g id="node4" class="node">
<title>Node3</title>
<g id="a_node4"><a xlink:href="class_ogre_1_1_r_t_shader_1_1_f_f_p_colour.html" target="_top" xlink:title="Colour sub render state implementation of the Fixed Function Pipeline. ">
<polygon fill="none" stroke="#000000" points="339,-387 339,-406 480,-406 480,-387 339,-387"/>
<text text-anchor="middle" x="409.5" y="-394" font-family="Helvetica,sans-Serif" font-size="10.00" fill="#000000">Ogre::RTShader::FFPColour</text>
</a>
</g>
</g>
<!-- Node0&#45;&gt;Node3 -->
<g id="edge3" class="edge">
<title>Node0&#45;&gt;Node3</title>
<path fill="none" stroke="#191970" d="M236.3111,-268.5833C253.6661,-298.8025 287.536,-349.9921 331,-377.5 337.1612,-381.3993 344.0583,-384.4985 351.1381,-386.9617"/>
<polygon fill="#191970" stroke="#191970" points="239.2027,-266.5832 231.2654,-259.5653 233.0938,-270.0012 239.2027,-266.5832"/>
</g>
<!-- Node4 -->
<g id="node5" class="node">
<title>Node4</title>
<g id="a_node5"><a xlink:href="class_ogre_1_1_r_t_shader_1_1_f_f_p_fog.html" target="_top" xlink:title="Fog sub render state implementation of the Fixed Function Pipeline. ">
<polygon fill="none" stroke="#000000" points="345,-349 345,-368 474,-368 474,-349 345,-349"/>
<text text-anchor="middle" x="409.5" y="-356" font-family="Helvetica,sans-Serif" font-size="10.00" fill="#000000">Ogre::RTShader::FFPFog</text>
</a>
</g>
</g>
<!-- Node0&#45;&gt;Node4 -->
<g id="edge4" class="edge">
<title>Node0&#45;&gt;Node4</title>
<path fill="none" stroke="#191970" d="M242.8226,-267.0227C262.7455,-288.8076 295.7917,-321.1429 331,-339.5 338.4601,-343.3896 346.7354,-346.4996 355.034,-348.9819"/>
<polygon fill="#191970" stroke="#191970" points="245.3777,-264.6295 236.0966,-259.5195 240.1653,-269.3019 245.3777,-264.6295"/>
</g>
<!-- Node5 -->
<g id="node6" class="node">
<title>Node5</title>
<g id="a_node6"><a xlink:href="class_ogre_1_1_r_t_shader_1_1_f_f_p_lighting.html" target="_top" xlink:title="Lighting sub render state implementation of the Fixed Function Pipeline. ">
<polygon fill="none" stroke="#000000" points="336.5,-311 336.5,-330 482.5,-330 482.5,-311 336.5,-311"/>
<text text-anchor="middle" x="409.5" y="-318" font-family="Helvetica,sans-Serif" font-size="10.00" fill="#000000">Ogre::RTShader::FFPLighting</text>
</a>
</g>
</g>
<!-- Node0&#45;&gt;Node5 -->
<g id="edge5" class="edge">
<title>Node0&#45;&gt;Node5</title>
<path fill="none" stroke="#191970" d="M256.6001,-264.8321C277.3573,-276.8707 305.0197,-291.6466 331,-301.5 340.7019,-305.1796 351.3542,-308.3195 361.5966,-310.9243"/>
<polygon fill="#191970" stroke="#191970" points="258.26,-261.7479 247.8664,-259.6923 254.7095,-267.7807 258.26,-261.7479"/>
</g>
<!-- Node8 -->
<g id="node9" class="node">
<title>Node8</title>
<g id="a_node9"><a xlink:href="class_ogre_1_1_r_t_shader_1_1_f_f_p_texturing.html" target="_top" xlink:title="Texturing sub render state implementation of the Fixed Function Pipeline. ">
<polygon fill="none" stroke="#000000" points="333,-273 333,-292 486,-292 486,-273 333,-273"/>
<text text-anchor="middle" x="409.5" y="-280" font-family="Helvetica,sans-Serif" font-size="10.00" fill="#000000">Ogre::RTShader::FFPTexturing</text>
</a>
</g>
</g>
<!-- Node0&#45;&gt;Node8 -->
<g id="edge8" class="edge">
<title>Node0&#45;&gt;Node8</title>
<path fill="none" stroke="#191970" d="M305.0922,-261.1694C324.8679,-265.2096 345.3422,-269.3925 362.8653,-272.9725"/>
<polygon fill="#191970" stroke="#191970" points="305.6446,-257.71 295.1464,-259.1374 304.2434,-264.5683 305.6446,-257.71"/>
</g>
<!-- Node10 -->
<g id="node11" class="node">
<title>Node10</title>
<g id="a_node11"><a xlink:href="class_ogre_1_1_r_t_shader_1_1_f_f_p_transform.html" target="_top" xlink:title="Transform sub render state implementation of the Fixed Function Pipeline. ">
<polygon fill="none" stroke="#000000" points="331,-235 331,-254 488,-254 488,-235 331,-235"/>
<text text-anchor="middle" x="409.5" y="-242" font-family="Helvetica,sans-Serif" font-size="10.00" fill="#000000">Ogre::RTShader::FFPTransform</text>
</a>
</g>
</g>
<!-- Node0&#45;&gt;Node10 -->
<g id="edge10" class="edge">
<title>Node0&#45;&gt;Node10</title>
<path fill="none" stroke="#191970" d="M305.3632,-244.5C313.8052,-244.5 322.3715,-244.5 330.7783,-244.5"/>
<polygon fill="#191970" stroke="#191970" points="305.1464,-241.0001 295.1464,-244.5 305.1464,-248.0001 305.1464,-241.0001"/>
</g>
<!-- Node11 -->
<g id="node12" class="node">
<title>Node11</title>
<g id="a_node12"><a xlink:href="class_ogre_1_1_r_t_shader_1_1_g_buffer.html" target="_top" xlink:title="Transform sub render state implementation of writing to GBuffers. ">
<polygon fill="none" stroke="#000000" points="345.5,-197 345.5,-216 473.5,-216 473.5,-197 345.5,-197"/>
<text text-anchor="middle" x="409.5" y="-204" font-family="Helvetica,sans-Serif" font-size="10.00" fill="#000000">Ogre::RTShader::GBuffer</text>
</a>
</g>
</g>
<!-- Node0&#45;&gt;Node11 -->
<g id="edge11" class="edge">
<title>Node0&#45;&gt;Node11</title>
<path fill="none" stroke="#191970" d="M305.0922,-227.8306C324.8679,-223.7904 345.3422,-219.6075 362.8653,-216.0275"/>
<polygon fill="#191970" stroke="#191970" points="304.2434,-224.4317 295.1464,-229.8626 305.6446,-231.29 304.2434,-224.4317"/>
</g>
<!-- Node12 -->
<g id="node13" class="node">
<title>Node12</title>
<g id="a_node13"><a xlink:href="class_ogre_1_1_r_t_shader_1_1_hardware_skinning.html" target="_top" xlink:title="Implement a sub render state which performs hardware skinning. ">
<polygon fill="none" stroke="#000000" points="341.5,-147.5 341.5,-177.5 477.5,-177.5 477.5,-147.5 341.5,-147.5"/>
<text text-anchor="start" x="349.5" y="-165.5" font-family="Helvetica,sans-Serif" font-size="10.00" fill="#000000">Ogre::RTShader::Hardware</text>
<text text-anchor="middle" x="409.5" y="-154.5" font-family="Helvetica,sans-Serif" font-size="10.00" fill="#000000">Skinning</text>
</a>
</g>
</g>
<!-- Node0&#45;&gt;Node12 -->
<g id="edge12" class="edge">
<title>Node0&#45;&gt;Node12</title>
<path fill="none" stroke="#191970" d="M257.6912,-224.3457C278.4451,-212.6279 305.7242,-198.1247 331,-187.5 339.4386,-183.9528 348.5642,-180.6167 357.5058,-177.6078"/>
<polygon fill="#191970" stroke="#191970" points="255.8845,-221.3468 248.934,-229.3431 259.354,-227.4265 255.8845,-221.3468"/>
</g>
<!-- Node13 -->
<g id="node14" class="node">
<title>Node13</title>
<g id="a_node14"><a xlink:href="class_ogre_1_1_r_t_shader_1_1_integrated_p_s_s_m3.html" target="_top" xlink:title="Integrated PSSM shadow receiver with 3 splits sub render state implementation. ">
<polygon fill="none" stroke="#000000" points="341,-98.5 341,-128.5 478,-128.5 478,-98.5 341,-98.5"/>
<text text-anchor="start" x="349" y="-116.5" font-family="Helvetica,sans-Serif" font-size="10.00" fill="#000000">Ogre::RTShader::Integrated</text>
<text text-anchor="middle" x="409.5" y="-105.5" font-family="Helvetica,sans-Serif" font-size="10.00" fill="#000000">PSSM3</text>
</a>
</g>
</g>
<!-- Node0&#45;&gt;Node13 -->
<g id="edge13" class="edge">
<title>Node0&#45;&gt;Node13</title>
<path fill="none" stroke="#191970" d="M240.9269,-221.4429C260.3811,-197.2302 294.0251,-159.6582 331,-137.5 336.6231,-134.1302 342.76,-131.1965 349.0445,-128.651"/>
<polygon fill="#191970" stroke="#191970" points="238.0949,-219.3819 234.6553,-229.4029 243.5934,-223.714 238.0949,-219.3819"/>
</g>
<!-- Node14 -->
<g id="node15" class="node">
<title>Node14</title>
<g id="a_node15"><a xlink:href="class_ogre_1_1_r_t_shader_1_1_texture_atlas_sampler.html" target="_top" xlink:title="Implements texture atlas sampling. ">
<polygon fill="none" stroke="#000000" points="335,-49.5 335,-79.5 484,-79.5 484,-49.5 335,-49.5"/>
<text text-anchor="start" x="343" y="-67.5" font-family="Helvetica,sans-Serif" font-size="10.00" fill="#000000">Ogre::RTShader::TextureAtlas</text>
<text text-anchor="middle" x="409.5" y="-56.5" font-family="Helvetica,sans-Serif" font-size="10.00" fill="#000000">Sampler</text>
</a>
</g>
</g>
<!-- Node0&#45;&gt;Node14 -->
<g id="edge14" class="edge">
<title>Node0&#45;&gt;Node14</title>
<path fill="none" stroke="#191970" d="M234.0971,-219.7387C250.0969,-185.2696 283.6608,-123.1656 331,-88.5 335.7142,-85.0479 340.9319,-82.0859 346.3709,-79.5457"/>
<polygon fill="#191970" stroke="#191970" points="230.8021,-218.5312 229.8761,-229.0855 237.1817,-221.4123 230.8021,-218.5312"/>
</g>
<!-- Node15 -->
<g id="node16" class="node">
<title>Node15</title>
<g id="a_node16"><a xlink:href="class_ogre_1_1_r_t_shader_1_1_triplanar_texturing.html" target="_top" xlink:title="Triplanar Texturing. ">
<polygon fill="none" stroke="#000000" points="344,-.5 344,-30.5 475,-30.5 475,-.5 344,-.5"/>
<text text-anchor="start" x="352" y="-18.5" font-family="Helvetica,sans-Serif" font-size="10.00" fill="#000000">Ogre::RTShader::Triplanar</text>
<text text-anchor="middle" x="409.5" y="-7.5" font-family="Helvetica,sans-Serif" font-size="10.00" fill="#000000">Texturing</text>
</a>
</g>
</g>
<!-- Node0&#45;&gt;Node15 -->
<g id="edge15" class="edge">
<title>Node0&#45;&gt;Node15</title>
<path fill="none" stroke="#191970" d="M229.736,-219.6339C241.8265,-176.5409 272.5551,-87.9599 331,-39.5 335.1688,-36.0434 339.8297,-33.0842 344.7446,-30.5508"/>
<polygon fill="#191970" stroke="#191970" points="226.3491,-218.7508 227.1203,-229.3175 233.1069,-220.5762 226.3491,-218.7508"/>
</g>
<!-- Node1 -->
<g id="node2" class="node">
<title>Node1</title>
<g id="a_node2"><a xlink:href="class_ogre_1_1_allocated_object.html" target="_top" xlink:title="RTShaderSystemAlloc">
<polygon fill="none" stroke="#000000" points="0,-235 0,-254 116,-254 116,-235 0,-235"/>
<text text-anchor="middle" x="58" y="-242" font-family="Helvetica,sans-Serif" font-size="10.00" fill="#000000">RTShaderSystemAlloc</text>
</a>
</g>
</g>
<!-- Node1&#45;&gt;Node0 -->
<g id="edge1" class="edge">
<title>Node1&#45;&gt;Node0</title>
<path fill="none" stroke="#191970" d="M126.4232,-244.5C134.7836,-244.5 143.3452,-244.5 151.7525,-244.5"/>
<polygon fill="#191970" stroke="#191970" points="126.3491,-241.0001 116.3491,-244.5 126.3491,-248.0001 126.3491,-241.0001"/>
</g>
<!-- Node6 -->
<g id="node7" class="node">
<title>Node6</title>
<g id="a_node7"><a xlink:href="class_ogre_1_1_r_t_shader_1_1_per_pixel_lighting.html" target="_top" xlink:title="Per pixel Lighting extension sub render state implementation. ">
<polygon fill="none" stroke="#000000" points="541.5,-308.5 541.5,-338.5 672.5,-338.5 672.5,-308.5 541.5,-308.5"/>
<text text-anchor="start" x="549.5" y="-326.5" font-family="Helvetica,sans-Serif" font-size="10.00" fill="#000000">Ogre::RTShader::PerPixel</text>
<text text-anchor="middle" x="607" y="-315.5" font-family="Helvetica,sans-Serif" font-size="10.00" fill="#000000">Lighting</text>
</a>
</g>
</g>
<!-- Node5&#45;&gt;Node6 -->
<g id="edge6" class="edge">
<title>Node5&#45;&gt;Node6</title>
<path fill="none" stroke="#191970" d="M492.7731,-321.7649C508.9976,-322.0114 525.7938,-322.2665 541.3506,-322.5028"/>
<polygon fill="#191970" stroke="#191970" points="492.8131,-318.2652 482.761,-321.6128 492.7067,-325.2644 492.8131,-318.2652"/>
</g>
<!-- Node7 -->
<g id="node8" class="node">
<title>Node7</title>
<g id="a_node8"><a xlink:href="class_ogre_1_1_r_t_shader_1_1_normal_map_lighting.html" target="_top" xlink:title="Normal Map Lighting extension sub render state implementation. ">
<polygon fill="none" stroke="#000000" points="726,-308.5 726,-338.5 870,-338.5 870,-308.5 726,-308.5"/>
<text text-anchor="start" x="734" y="-326.5" font-family="Helvetica,sans-Serif" font-size="10.00" fill="#000000">Ogre::RTShader::NormalMap</text>
<text text-anchor="middle" x="798" y="-315.5" font-family="Helvetica,sans-Serif" font-size="10.00" fill="#000000">Lighting</text>
</a>
</g>
</g>
<!-- Node6&#45;&gt;Node7 -->
<g id="edge7" class="edge">
<title>Node6&#45;&gt;Node7</title>
<path fill="none" stroke="#191970" d="M682.9287,-323.5C697.105,-323.5 711.8824,-323.5 725.9378,-323.5"/>
<polygon fill="#191970" stroke="#191970" points="682.7314,-320.0001 672.7314,-323.5 682.7313,-327.0001 682.7314,-320.0001"/>
</g>
<!-- Node9 -->
<g id="node10" class="node">
<title>Node9</title>
<g id="a_node10"><a xlink:href="class_ogre_1_1_r_t_shader_1_1_layered_blending.html" target="_top" xlink:title="Texturing sub render state implementation of layered blending. ">
<polygon fill="none" stroke="#000000" points="524,-270 524,-289 690,-289 690,-270 524,-270"/>
<text text-anchor="middle" x="607" y="-277" font-family="Helvetica,sans-Serif" font-size="10.00" fill="#000000">Ogre::RTShader::LayeredBlending</text>
</a>
</g>
</g>
<!-- Node8&#45;&gt;Node9 -->
<g id="edge9" class="edge">
<title>Node8&#45;&gt;Node9</title>
<path fill="none" stroke="#191970" d="M496.3735,-281.1804C505.503,-281.0417 514.7699,-280.901 523.856,-280.7629"/>
<polygon fill="#191970" stroke="#191970" points="496.087,-277.6843 486.1413,-281.3358 496.1934,-284.6834 496.087,-277.6843"/>
</g>
</g>
</svg>
