<?xml version="1.0" encoding="UTF-8" standalone="no"?>
<!DOCTYPE svg PUBLIC "-//W3C//DTD SVG 1.1//EN"
 "http://www.w3.org/Graphics/SVG/1.1/DTD/svg11.dtd">
<!-- Generated by graphviz version 2.40.1 (20161225.0304)
 -->
<!-- Title: Ogre::GpuProgram Pages: 1 -->
<svg width="1089pt" height="344pt"
 viewBox="0.00 0.00 1089.00 343.50" xmlns="http://www.w3.org/2000/svg" xmlns:xlink="http://www.w3.org/1999/xlink">
<g id="graph0" class="graph" transform="scale(1 1) rotate(0) translate(4 339.5)">
<title>Ogre::GpuProgram</title>
<!-- Node0 -->
<g id="node1" class="node">
<title>Node0</title>
<polygon fill="#bfbfbf" stroke="#000000" points="265,-221 265,-240 363,-240 363,-221 265,-221"/>
<text text-anchor="middle" x="314" y="-228" font-family="Helvetica,sans-Serif" font-size="10.00" fill="#000000">Ogre::GpuProgram</text>
</g>
<!-- Node4 -->
<g id="node5" class="node">
<title>Node4</title>
<g id="a_node5"><a xlink:href="class_ogre_1_1_d3_d9_gpu_program.html" target="_top" xlink:title="Direct3D implementation of a few things common to low&#45;level vertex &amp; fragment programs. ">
<polygon fill="none" stroke="#000000" points="408,-278 408,-297 532,-297 532,-278 408,-278"/>
<text text-anchor="middle" x="470" y="-285" font-family="Helvetica,sans-Serif" font-size="10.00" fill="#000000">Ogre::D3D9GpuProgram</text>
</a>
</g>
</g>
<!-- Node0&#45;&gt;Node4 -->
<g id="edge4" class="edge">
<title>Node0&#45;&gt;Node4</title>
<path fill="none" stroke="#191970" d="M349.7582,-243.5655C378.4329,-254.0428 418.0139,-268.5051 443.8039,-277.9284"/>
<polygon fill="#191970" stroke="#191970" points="350.7047,-240.1851 340.1109,-240.0405 348.3024,-246.7599 350.7047,-240.1851"/>
</g>
<!-- Node7 -->
<g id="node8" class="node">
<title>Node7</title>
<g id="a_node8"><a xlink:href="class_ogre_1_1_g_l_gpu_program.html" target="_top" xlink:title="Generalised low&#45;level GL program, can be applied to multiple types (eg ARB and NV) ...">
<polygon fill="none" stroke="#000000" points="414.5,-221 414.5,-240 525.5,-240 525.5,-221 414.5,-221"/>
<text text-anchor="middle" x="470" y="-228" font-family="Helvetica,sans-Serif" font-size="10.00" fill="#000000">Ogre::GLGpuProgram</text>
</a>
</g>
</g>
<!-- Node0&#45;&gt;Node7 -->
<g id="edge7" class="edge">
<title>Node0&#45;&gt;Node7</title>
<path fill="none" stroke="#191970" d="M373.4689,-230.5C386.9256,-230.5 401.1635,-230.5 414.4511,-230.5"/>
<polygon fill="#191970" stroke="#191970" points="373.3594,-227.0001 363.3594,-230.5 373.3593,-234.0001 373.3594,-227.0001"/>
</g>
<!-- Node10 -->
<g id="node11" class="node">
<title>Node10</title>
<g id="a_node11"><a xlink:href="class_ogre_1_1_high_level_gpu_program.html" target="_top" xlink:title="Abstract base class representing a high&#45;level program (a vertex or fragment program). ">
<polygon fill="none" stroke="#000000" points="399,-107 399,-126 541,-126 541,-107 399,-107"/>
<text text-anchor="middle" x="470" y="-114" font-family="Helvetica,sans-Serif" font-size="10.00" fill="#000000">Ogre::HighLevelGpuProgram</text>
</a>
</g>
</g>
<!-- Node0&#45;&gt;Node10 -->
<g id="edge10" class="edge">
<title>Node0&#45;&gt;Node10</title>
<path fill="none" stroke="#191970" d="M335.4507,-214.8245C368.1852,-190.9031 429.6487,-145.9875 456.6743,-126.238"/>
<polygon fill="#191970" stroke="#191970" points="333.041,-212.2504 327.0322,-220.9765 337.1712,-217.9022 333.041,-212.2504"/>
</g>
<!-- Node1 -->
<g id="node2" class="node">
<title>Node1</title>
<g id="a_node2"><a xlink:href="class_ogre_1_1_resource.html" target="_top" xlink:title="Abstract class representing a loadable resource. ">
<polygon fill="none" stroke="#000000" points="143,-221 143,-240 229,-240 229,-221 143,-221"/>
<text text-anchor="middle" x="186" y="-228" font-family="Helvetica,sans-Serif" font-size="10.00" fill="#000000">Ogre::Resource</text>
</a>
</g>
</g>
<!-- Node1&#45;&gt;Node0 -->
<g id="edge1" class="edge">
<title>Node1&#45;&gt;Node0</title>
<path fill="none" stroke="#191970" d="M239.4794,-230.5C247.932,-230.5 256.6364,-230.5 264.9808,-230.5"/>
<polygon fill="#191970" stroke="#191970" points="239.335,-227.0001 229.335,-230.5 239.3349,-234.0001 239.335,-227.0001"/>
</g>
<!-- Node2 -->
<g id="node3" class="node">
<title>Node2</title>
<g id="a_node3"><a xlink:href="class_ogre_1_1_string_interface.html" target="_top" xlink:title="Class defining the common interface which classes can use to present a reflection&#45;style, self&#45;defining parameter set to callers. ">
<polygon fill="none" stroke="#000000" points="0,-240 0,-259 107,-259 107,-240 0,-240"/>
<text text-anchor="middle" x="53.5" y="-247" font-family="Helvetica,sans-Serif" font-size="10.00" fill="#000000">Ogre::StringInterface</text>
</a>
</g>
</g>
<!-- Node2&#45;&gt;Node1 -->
<g id="edge2" class="edge">
<title>Node2&#45;&gt;Node1</title>
<path fill="none" stroke="#191970" d="M117.1703,-240.3699C125.8787,-239.1212 134.6466,-237.8639 142.8709,-236.6846"/>
<polygon fill="#191970" stroke="#191970" points="116.4128,-236.9427 107.0109,-241.8267 117.4065,-243.8718 116.4128,-236.9427"/>
</g>
<!-- Node3 -->
<g id="node4" class="node">
<title>Node3</title>
<g id="a_node4"><a xlink:href="class_ogre_1_1_allocated_object.html" target="_top" xlink:title="ResourceAlloc">
<polygon fill="none" stroke="#000000" points="13.5,-202 13.5,-221 93.5,-221 93.5,-202 13.5,-202"/>
<text text-anchor="middle" x="53.5" y="-209" font-family="Helvetica,sans-Serif" font-size="10.00" fill="#000000">ResourceAlloc</text>
</a>
</g>
</g>
<!-- Node3&#45;&gt;Node1 -->
<g id="edge3" class="edge">
<title>Node3&#45;&gt;Node1</title>
<path fill="none" stroke="#191970" d="M103.7115,-218.7001C116.5821,-220.5457 130.312,-222.5146 142.795,-224.3046"/>
<polygon fill="#191970" stroke="#191970" points="104.0095,-215.2072 93.6139,-217.2522 103.0159,-222.1363 104.0095,-215.2072"/>
</g>
<!-- Node5 -->
<g id="node6" class="node">
<title>Node5</title>
<g id="a_node6"><a xlink:href="class_ogre_1_1_d3_d9_gpu_fragment_program.html" target="_top" xlink:title="Direct3D implementation of low&#45;level fragment programs. ">
<polygon fill="none" stroke="#000000" points="577,-316 577,-335 742,-335 742,-316 577,-316"/>
<text text-anchor="middle" x="659.5" y="-323" font-family="Helvetica,sans-Serif" font-size="10.00" fill="#000000">Ogre::D3D9GpuFragmentProgram</text>
</a>
</g>
</g>
<!-- Node4&#45;&gt;Node5 -->
<g id="edge5" class="edge">
<title>Node4&#45;&gt;Node5</title>
<path fill="none" stroke="#191970" d="M527.8948,-299.1095C554.846,-304.514 586.5102,-310.8635 612.025,-315.9799"/>
<polygon fill="#191970" stroke="#191970" points="528.3118,-295.6235 517.8189,-297.089 526.9355,-302.4869 528.3118,-295.6235"/>
</g>
<!-- Node6 -->
<g id="node7" class="node">
<title>Node6</title>
<g id="a_node7"><a xlink:href="class_ogre_1_1_d3_d9_gpu_vertex_program.html" target="_top" xlink:title="Direct3D implementation of low&#45;level vertex programs. ">
<polygon fill="none" stroke="#000000" points="583.5,-278 583.5,-297 735.5,-297 735.5,-278 583.5,-278"/>
<text text-anchor="middle" x="659.5" y="-285" font-family="Helvetica,sans-Serif" font-size="10.00" fill="#000000">Ogre::D3D9GpuVertexProgram</text>
</a>
</g>
</g>
<!-- Node4&#45;&gt;Node6 -->
<g id="edge6" class="edge">
<title>Node4&#45;&gt;Node6</title>
<path fill="none" stroke="#191970" d="M542.2125,-287.5C555.693,-287.5 569.8197,-287.5 583.4127,-287.5"/>
<polygon fill="#191970" stroke="#191970" points="542.0494,-284.0001 532.0494,-287.5 542.0494,-291.0001 542.0494,-284.0001"/>
</g>
<!-- Node8 -->
<g id="node9" class="node">
<title>Node8</title>
<g id="a_node9"><a xlink:href="class_ogre_1_1_g_l_arb_gpu_program.html" target="_top" xlink:title="Specialisation of the GL low&#45;level program for ARB programs. ">
<polygon fill="none" stroke="#000000" points="596.5,-240 596.5,-259 722.5,-259 722.5,-240 596.5,-240"/>
<text text-anchor="middle" x="659.5" y="-247" font-family="Helvetica,sans-Serif" font-size="10.00" fill="#000000">Ogre::GLArbGpuProgram</text>
</a>
</g>
</g>
<!-- Node7&#45;&gt;Node8 -->
<g id="edge8" class="edge">
<title>Node7&#45;&gt;Node8</title>
<path fill="none" stroke="#191970" d="M535.6575,-237.0831C555.2974,-239.0522 576.7841,-241.2066 596.265,-243.1598"/>
<polygon fill="#191970" stroke="#191970" points="535.8751,-233.5874 525.5758,-236.0722 535.1767,-240.5525 535.8751,-233.5874"/>
</g>
<!-- Node9 -->
<g id="node10" class="node">
<title>Node9</title>
<g id="a_node10"><a xlink:href="class_ogre_1_1_g_l_gpu_nvparse_program.html" target="_top" xlink:title="Ogre::GLGpuNvparseProgram">
<polygon fill="none" stroke="#000000" points="585.5,-202 585.5,-221 733.5,-221 733.5,-202 585.5,-202"/>
<text text-anchor="middle" x="659.5" y="-209" font-family="Helvetica,sans-Serif" font-size="10.00" fill="#000000">Ogre::GLGpuNvparseProgram</text>
</a>
</g>
</g>
<!-- Node7&#45;&gt;Node9 -->
<g id="edge9" class="edge">
<title>Node7&#45;&gt;Node9</title>
<path fill="none" stroke="#191970" d="M535.8599,-223.8966C551.807,-222.2977 568.9614,-220.5777 585.2647,-218.9431"/>
<polygon fill="#191970" stroke="#191970" points="535.1767,-220.4475 525.5758,-224.9278 535.8751,-227.4126 535.1767,-220.4475"/>
</g>
<!-- Node11 -->
<g id="node12" class="node">
<title>Node11</title>
<g id="a_node12"><a xlink:href="class_ogre_1_1_cg_program.html" target="_top" xlink:title="Specialisation of HighLevelGpuProgram to provide support for nVidia&#39;s CG language. ">
<polygon fill="none" stroke="#000000" points="613,-164 613,-183 706,-183 706,-164 613,-164"/>
<text text-anchor="middle" x="659.5" y="-171" font-family="Helvetica,sans-Serif" font-size="10.00" fill="#000000">Ogre::CgProgram</text>
</a>
</g>
</g>
<!-- Node10&#45;&gt;Node11 -->
<g id="edge11" class="edge">
<title>Node10&#45;&gt;Node11</title>
<path fill="none" stroke="#191970" d="M503.7829,-129.621C524.6797,-137.4553 552.1675,-147.257 577,-154.5 588.8523,-157.957 601.809,-161.191 613.8692,-163.9762"/>
<polygon fill="#191970" stroke="#191970" points="504.9788,-126.3313 494.3873,-126.0648 502.5008,-132.8781 504.9788,-126.3313"/>
</g>
<!-- Node12 -->
<g id="node13" class="node">
<title>Node12</title>
<g id="a_node13"><a xlink:href="class_ogre_1_1_d3_d11_h_l_s_l_program.html" target="_top" xlink:title="Specialization of HighLevelGpuProgram to provide support for D3D11 High&#45;Level Shader Language (HLSL)...">
<polygon fill="none" stroke="#000000" points="591.5,-126 591.5,-145 727.5,-145 727.5,-126 591.5,-126"/>
<text text-anchor="middle" x="659.5" y="-133" font-family="Helvetica,sans-Serif" font-size="10.00" fill="#000000">Ogre::D3D11HLSLProgram</text>
</a>
</g>
</g>
<!-- Node10&#45;&gt;Node12 -->
<g id="edge12" class="edge">
<title>Node10&#45;&gt;Node12</title>
<path fill="none" stroke="#191970" d="M551.2577,-124.6472C564.6559,-125.9906 578.4215,-127.3708 591.4532,-128.6774"/>
<polygon fill="#191970" stroke="#191970" points="551.4013,-121.1441 541.102,-123.629 550.7029,-128.1092 551.4013,-121.1441"/>
</g>
<!-- Node13 -->
<g id="node14" class="node">
<title>Node13</title>
<g id="a_node14"><a xlink:href="class_ogre_1_1_d3_d9_h_l_s_l_program.html" target="_top" xlink:title="Specialisation of HighLevelGpuProgram to provide support for D3D9 High&#45;Level Shader Language (HLSL)...">
<polygon fill="none" stroke="#000000" points="594,-88 594,-107 725,-107 725,-88 594,-88"/>
<text text-anchor="middle" x="659.5" y="-95" font-family="Helvetica,sans-Serif" font-size="10.00" fill="#000000">Ogre::D3D9HLSLProgram</text>
</a>
</g>
</g>
<!-- Node10&#45;&gt;Node13 -->
<g id="edge13" class="edge">
<title>Node10&#45;&gt;Node13</title>
<path fill="none" stroke="#191970" d="M551.3657,-108.342C565.5867,-106.9161 580.2181,-105.4491 593.9438,-104.0729"/>
<polygon fill="#191970" stroke="#191970" points="550.7029,-104.8908 541.102,-109.371 551.4013,-111.8559 550.7029,-104.8908"/>
</g>
<!-- Node14 -->
<g id="node15" class="node">
<title>Node14</title>
<g id="a_node15"><a xlink:href="class_ogre_1_1_g_l_s_l_shader_common.html" target="_top" xlink:title="Specialisation of HighLevelGpuProgram to provide support for OpenGL Shader Language (GLSL)...">
<polygon fill="none" stroke="#000000" points="590,-50 590,-69 729,-69 729,-50 590,-50"/>
<text text-anchor="middle" x="659.5" y="-57" font-family="Helvetica,sans-Serif" font-size="10.00" fill="#000000">Ogre::GLSLShaderCommon</text>
</a>
</g>
</g>
<!-- Node10&#45;&gt;Node14 -->
<g id="edge14" class="edge">
<title>Node10&#45;&gt;Node14</title>
<path fill="none" stroke="#191970" d="M503.7829,-103.379C524.6797,-95.5447 552.1675,-85.743 577,-78.5 588.8523,-75.043 601.809,-71.809 613.8692,-69.0238"/>
<polygon fill="#191970" stroke="#191970" points="502.5008,-100.1219 494.3873,-106.9352 504.9788,-106.6687 502.5008,-100.1219"/>
</g>
<!-- Node20 -->
<g id="node21" class="node">
<title>Node20</title>
<g id="a_node21"><a xlink:href="class_ogre_1_1_unified_high_level_gpu_program.html" target="_top" xlink:title="Specialisation of HighLevelGpuProgram which just delegates its implementation to one other GpuProgram...">
<polygon fill="none" stroke="#000000" points="591.5,-.5 591.5,-30.5 727.5,-30.5 727.5,-.5 591.5,-.5"/>
<text text-anchor="start" x="599.5" y="-18.5" font-family="Helvetica,sans-Serif" font-size="10.00" fill="#000000">Ogre::UnifiedHighLevelGpu</text>
<text text-anchor="middle" x="659.5" y="-7.5" font-family="Helvetica,sans-Serif" font-size="10.00" fill="#000000">Program</text>
</a>
</g>
</g>
<!-- Node10&#45;&gt;Node20 -->
<g id="edge20" class="edge">
<title>Node10&#45;&gt;Node20</title>
<path fill="none" stroke="#191970" d="M488.9953,-100.0935C509.4977,-83.1113 543.7044,-56.8271 577,-40.5 584.6593,-36.7441 592.9979,-33.4213 601.3335,-30.5251"/>
<polygon fill="#191970" stroke="#191970" points="486.4879,-97.6291 481.0902,-106.7458 490.9951,-102.985 486.4879,-97.6291"/>
</g>
<!-- Node15 -->
<g id="node16" class="node">
<title>Node15</title>
<g id="a_node16"><a xlink:href="class_ogre_1_1_g_l_s_l_1_1_g_l_s_l_program.html" target="_top" xlink:title="Ogre::GLSL::GLSLProgram">
<polygon fill="none" stroke="#000000" points="778,-88 778,-107 914,-107 914,-88 778,-88"/>
<text text-anchor="middle" x="846" y="-95" font-family="Helvetica,sans-Serif" font-size="10.00" fill="#000000">Ogre::GLSL::GLSLProgram</text>
</a>
</g>
</g>
<!-- Node14&#45;&gt;Node15 -->
<g id="edge15" class="edge">
<title>Node14&#45;&gt;Node15</title>
<path fill="none" stroke="#191970" d="M716.4782,-71.1095C743.0028,-76.514 774.1657,-82.8635 799.2766,-87.9799"/>
<polygon fill="#191970" stroke="#191970" points="717.0593,-67.6561 706.5618,-69.089 715.6617,-74.5151 717.0593,-67.6561"/>
</g>
<!-- Node16 -->
<g id="node17" class="node">
<title>Node16</title>
<g id="a_node17"><a xlink:href="class_ogre_1_1_g_l_s_l_e_s_program.html" target="_top" xlink:title="Ogre::GLSLESProgram">
<polygon fill="none" stroke="#000000" points="786.5,-50 786.5,-69 905.5,-69 905.5,-50 786.5,-50"/>
<text text-anchor="middle" x="846" y="-57" font-family="Helvetica,sans-Serif" font-size="10.00" fill="#000000">Ogre::GLSLESProgram</text>
</a>
</g>
</g>
<!-- Node14&#45;&gt;Node16 -->
<g id="edge16" class="edge">
<title>Node14&#45;&gt;Node16</title>
<path fill="none" stroke="#191970" d="M739.4748,-59.5C755.2365,-59.5 771.5147,-59.5 786.4584,-59.5"/>
<polygon fill="#191970" stroke="#191970" points="739.211,-56.0001 729.2109,-59.5 739.2109,-63.0001 739.211,-56.0001"/>
</g>
<!-- Node18 -->
<g id="node19" class="node">
<title>Node18</title>
<g id="a_node19"><a xlink:href="class_ogre_1_1_g_l_s_l_shader.html" target="_top" xlink:title="Ogre::GLSLShader">
<polygon fill="none" stroke="#000000" points="796.5,-12 796.5,-31 895.5,-31 895.5,-12 796.5,-12"/>
<text text-anchor="middle" x="846" y="-19" font-family="Helvetica,sans-Serif" font-size="10.00" fill="#000000">Ogre::GLSLShader</text>
</a>
</g>
</g>
<!-- Node14&#45;&gt;Node18 -->
<g id="edge18" class="edge">
<title>Node14&#45;&gt;Node18</title>
<path fill="none" stroke="#191970" d="M716.4782,-47.8905C743.0028,-42.486 774.1657,-36.1365 799.2766,-31.0201"/>
<polygon fill="#191970" stroke="#191970" points="715.6617,-44.4849 706.5618,-49.911 717.0593,-51.3439 715.6617,-44.4849"/>
</g>
<!-- Node17 -->
<g id="node18" class="node">
<title>Node17</title>
<g id="a_node18"><a xlink:href="class_ogre_1_1_g_l_s_l_e_s_cg_program.html" target="_top" xlink:title="Specialisation of HighLevelGpuProgram to provide support for CG. ">
<polygon fill="none" stroke="#000000" points="950,-50 950,-69 1081,-69 1081,-50 950,-50"/>
<text text-anchor="middle" x="1015.5" y="-57" font-family="Helvetica,sans-Serif" font-size="10.00" fill="#000000">Ogre::GLSLESCgProgram</text>
</a>
</g>
</g>
<!-- Node16&#45;&gt;Node17 -->
<g id="edge17" class="edge">
<title>Node16&#45;&gt;Node17</title>
<path fill="none" stroke="#191970" d="M915.9599,-59.5C927.2027,-59.5 938.8038,-59.5 949.9385,-59.5"/>
<polygon fill="#191970" stroke="#191970" points="915.7594,-56.0001 905.7594,-59.5 915.7593,-63.0001 915.7594,-56.0001"/>
</g>
<!-- Node19 -->
<g id="node20" class="node">
<title>Node19</title>
<g id="a_node20"><a xlink:href="class_ogre_1_1_s_p_i_r_v_shader.html" target="_top" xlink:title="Ogre::SPIRVShader">
<polygon fill="none" stroke="#000000" points="963,-12 963,-31 1068,-31 1068,-12 963,-12"/>
<text text-anchor="middle" x="1015.5" y="-19" font-family="Helvetica,sans-Serif" font-size="10.00" fill="#000000">Ogre::SPIRVShader</text>
</a>
</g>
</g>
<!-- Node18&#45;&gt;Node19 -->
<g id="edge19" class="edge">
<title>Node18&#45;&gt;Node19</title>
<path fill="none" stroke="#191970" d="M906.0557,-21.5C924.6332,-21.5 944.9453,-21.5 962.972,-21.5"/>
<polygon fill="#191970" stroke="#191970" points="905.9389,-18.0001 895.9388,-21.5 905.9388,-25.0001 905.9389,-18.0001"/>
</g>
</g>
</svg>
