<?xml version="1.0" encoding="UTF-8" standalone="no"?>
<!DOCTYPE svg PUBLIC "-//W3C//DTD SVG 1.1//EN"
 "http://www.w3.org/Graphics/SVG/1.1/DTD/svg11.dtd">
<!-- Generated by graphviz version 2.40.1 (20161225.0304)
 -->
<!-- Title: Ogre::SceneLoader Pages: 1 -->
<svg width="260pt" height="84pt"
 viewBox="0.00 0.00 260.00 84.00" xmlns="http://www.w3.org/2000/svg" xmlns:xlink="http://www.w3.org/1999/xlink">
<g id="graph0" class="graph" transform="scale(1 1) rotate(0) translate(4 80)">
<title>Ogre::SceneLoader</title>
<!-- Node0 -->
<g id="node1" class="node">
<title>Node0</title>
<polygon fill="#bfbfbf" stroke="#000000" points="75.5,-56.5 75.5,-75.5 176.5,-75.5 176.5,-56.5 75.5,-56.5"/>
<text text-anchor="middle" x="126" y="-63.5" font-family="Helvetica,sans-Serif" font-size="10.00" fill="#000000">Ogre::SceneLoader</text>
</g>
<!-- Node1 -->
<g id="node2" class="node">
<title>Node1</title>
<g id="a_node2"><a xlink:href="class_ogre_1_1_bsp_scene_loader.html" target="_top" xlink:title="Manages the locating and loading of BSP&#45;based indoor levels. ">
<polygon fill="none" stroke="#000000" points="0,-.5 0,-19.5 118,-19.5 118,-.5 0,-.5"/>
<text text-anchor="middle" x="59" y="-7.5" font-family="Helvetica,sans-Serif" font-size="10.00" fill="#000000">Ogre::BspSceneLoader</text>
</a>
</g>
</g>
<!-- Node0&#45;&gt;Node1 -->
<g id="edge1" class="edge">
<title>Node0&#45;&gt;Node1</title>
<path fill="none" stroke="#191970" d="M106.4324,-49.645C94.7802,-39.9058 80.3916,-27.8795 70.5368,-19.6427"/>
<polygon fill="#191970" stroke="#191970" points="104.4121,-52.5179 114.3295,-56.2455 108.9012,-47.1469 104.4121,-52.5179"/>
</g>
<!-- Node2 -->
<g id="node3" class="node">
<title>Node2</title>
<g id="a_node3"><a xlink:href="class_ogre_1_1_dot_scene_loader.html" target="_top" xlink:title="Ogre::DotSceneLoader">
<polygon fill="none" stroke="#000000" points="136,-.5 136,-19.5 252,-19.5 252,-.5 136,-.5"/>
<text text-anchor="middle" x="194" y="-7.5" font-family="Helvetica,sans-Serif" font-size="10.00" fill="#000000">Ogre::DotSceneLoader</text>
</a>
</g>
</g>
<!-- Node0&#45;&gt;Node2 -->
<g id="edge2" class="edge">
<title>Node0&#45;&gt;Node2</title>
<path fill="none" stroke="#191970" d="M145.8596,-49.645C157.6858,-39.9058 172.2892,-27.8795 182.291,-19.6427"/>
<polygon fill="#191970" stroke="#191970" points="143.339,-47.1867 137.8447,-56.2455 147.789,-52.5902 143.339,-47.1867"/>
</g>
</g>
</svg>
