<?xml version="1.0" encoding="UTF-8" standalone="no"?>
<!DOCTYPE svg PUBLIC "-//W3C//DTD SVG 1.1//EN"
 "http://www.w3.org/Graphics/SVG/1.1/DTD/svg11.dtd">
<!-- Generated by graphviz version 2.40.1 (20161225.0304)
 -->
<!-- Title: OgreBites::ApplicationContextQt Pages: 1 -->
<svg width="250pt" height="140pt"
 viewBox="0.00 0.00 250.00 140.00" xmlns="http://www.w3.org/2000/svg" xmlns:xlink="http://www.w3.org/1999/xlink">
<g id="graph0" class="graph" transform="scale(1 1) rotate(0) translate(4 136)">
<title>OgreBites::ApplicationContextQt</title>
<!-- Node0 -->
<g id="node1" class="node">
<title>Node0</title>
<polygon fill="#bfbfbf" stroke="#000000" points="12,-.5 12,-19.5 171,-19.5 171,-.5 12,-.5"/>
<text text-anchor="middle" x="91.5" y="-7.5" font-family="Helvetica,sans-Serif" font-size="10.00" fill="#000000">OgreBites::ApplicationContextQt</text>
</g>
<!-- Node1 -->
<g id="node2" class="node">
<title>Node1</title>
<polygon fill="none" stroke="#bfbfbf" points="0,-56.5 0,-75.5 53,-75.5 53,-56.5 0,-56.5"/>
<text text-anchor="middle" x="26.5" y="-63.5" font-family="Helvetica,sans-Serif" font-size="10.00" fill="#000000">QObject</text>
</g>
<!-- Node1&#45;&gt;Node0 -->
<g id="edge1" class="edge">
<title>Node1&#45;&gt;Node0</title>
<path fill="none" stroke="#191970" d="M45.4835,-49.645C56.7879,-39.9058 70.747,-27.8795 80.3076,-19.6427"/>
<polygon fill="#191970" stroke="#191970" points="43.1138,-47.0668 37.8221,-56.2455 47.6827,-52.3701 43.1138,-47.0668"/>
</g>
<!-- Node2 -->
<g id="node3" class="node">
<title>Node2</title>
<g id="a_node3"><a xlink:href="class_ogre_bites_1_1_application_context_base.html" target="_top" xlink:title="Base class responsible for setting up a common context for applications. ">
<polygon fill="none" stroke="#000000" points="71,-56.5 71,-75.5 242,-75.5 242,-56.5 71,-56.5"/>
<text text-anchor="middle" x="156.5" y="-63.5" font-family="Helvetica,sans-Serif" font-size="10.00" fill="#000000">OgreBites::ApplicationContextBase</text>
</a>
</g>
</g>
<!-- Node2&#45;&gt;Node0 -->
<g id="edge2" class="edge">
<title>Node2&#45;&gt;Node0</title>
<path fill="none" stroke="#191970" d="M137.5165,-49.645C126.2121,-39.9058 112.253,-27.8795 102.6924,-19.6427"/>
<polygon fill="#191970" stroke="#191970" points="135.3173,-52.3701 145.1779,-56.2455 139.8862,-47.0668 135.3173,-52.3701"/>
</g>
<!-- Node3 -->
<g id="node4" class="node">
<title>Node3</title>
<g id="a_node4"><a xlink:href="class_ogre_1_1_frame_listener.html" target="_top" xlink:title="A interface class defining a listener which can be used to receive notifications of frame events...">
<polygon fill="none" stroke="#000000" points="103.5,-112.5 103.5,-131.5 209.5,-131.5 209.5,-112.5 103.5,-112.5"/>
<text text-anchor="middle" x="156.5" y="-119.5" font-family="Helvetica,sans-Serif" font-size="10.00" fill="#000000">Ogre::FrameListener</text>
</a>
</g>
</g>
<!-- Node3&#45;&gt;Node2 -->
<g id="edge3" class="edge">
<title>Node3&#45;&gt;Node2</title>
<path fill="none" stroke="#191970" d="M156.5,-102.1575C156.5,-93.155 156.5,-82.9199 156.5,-75.6427"/>
<polygon fill="#191970" stroke="#191970" points="153.0001,-102.2455 156.5,-112.2455 160.0001,-102.2456 153.0001,-102.2455"/>
</g>
</g>
</svg>
