<?xml version="1.0" encoding="UTF-8" standalone="no"?>
<!DOCTYPE svg PUBLIC "-//W3C//DTD SVG 1.1//EN"
 "http://www.w3.org/Graphics/SVG/1.1/DTD/svg11.dtd">
<!-- Generated by graphviz version 2.40.1 (20161225.0304)
 -->
<!-- Title: Ogre::RenderWindow Pages: 1 -->
<svg width="437pt" height="263pt"
 viewBox="0.00 0.00 437.00 263.00" xmlns="http://www.w3.org/2000/svg" xmlns:xlink="http://www.w3.org/1999/xlink">
<g id="graph0" class="graph" transform="scale(1 1) rotate(0) translate(4 259)">
<title>Ogre::RenderWindow</title>
<!-- Node0 -->
<g id="node1" class="node">
<title>Node0</title>
<polygon fill="#bfbfbf" stroke="#000000" points="196,-123.5 196,-142.5 306,-142.5 306,-123.5 196,-123.5"/>
<text text-anchor="middle" x="251" y="-130.5" font-family="Helvetica,sans-Serif" font-size="10.00" fill="#000000">Ogre::RenderWindow</text>
</g>
<!-- Node3 -->
<g id="node4" class="node">
<title>Node3</title>
<g id="a_node4"><a xlink:href="class_ogre_1_1_d3_d11_render_window_base.html" target="_top" xlink:title="Ogre::D3D11RenderWindowBase">
<polygon fill="none" stroke="#000000" points="1,-67.5 1,-86.5 165,-86.5 165,-67.5 1,-67.5"/>
<text text-anchor="middle" x="83" y="-74.5" font-family="Helvetica,sans-Serif" font-size="10.00" fill="#000000">Ogre::D3D11RenderWindowBase</text>
</a>
</g>
</g>
<!-- Node0&#45;&gt;Node3 -->
<g id="edge3" class="edge">
<title>Node0&#45;&gt;Node3</title>
<path fill="none" stroke="#191970" d="M212.5714,-120.1905C181.7927,-109.9309 139.3074,-95.7691 111.5034,-86.5011"/>
<polygon fill="#191970" stroke="#191970" points="211.5261,-123.5313 222.1198,-123.3733 213.7398,-116.8905 211.5261,-123.5313"/>
</g>
<!-- Node5 -->
<g id="node6" class="node">
<title>Node5</title>
<g id="a_node6"><a xlink:href="class_ogre_1_1_d3_d9_render_window.html" target="_top" xlink:title="Ogre::D3D9RenderWindow">
<polygon fill="none" stroke="#000000" points="183,-67.5 183,-86.5 319,-86.5 319,-67.5 183,-67.5"/>
<text text-anchor="middle" x="251" y="-74.5" font-family="Helvetica,sans-Serif" font-size="10.00" fill="#000000">Ogre::D3D9RenderWindow</text>
</a>
</g>
</g>
<!-- Node0&#45;&gt;Node5 -->
<g id="edge5" class="edge">
<title>Node0&#45;&gt;Node5</title>
<path fill="none" stroke="#191970" d="M251,-113.1575C251,-104.155 251,-93.9199 251,-86.6427"/>
<polygon fill="#191970" stroke="#191970" points="247.5001,-113.2455 251,-123.2455 254.5001,-113.2456 247.5001,-113.2455"/>
</g>
<!-- Node6 -->
<g id="node7" class="node">
<title>Node6</title>
<g id="a_node7"><a xlink:href="class_ogre_1_1_g_l_window.html" target="_top" xlink:title="Ogre::GLWindow">
<polygon fill="none" stroke="#000000" points="337,-67.5 337,-86.5 429,-86.5 429,-67.5 337,-67.5"/>
<text text-anchor="middle" x="383" y="-74.5" font-family="Helvetica,sans-Serif" font-size="10.00" fill="#000000">Ogre::GLWindow</text>
</a>
</g>
</g>
<!-- Node0&#45;&gt;Node6 -->
<g id="edge6" class="edge">
<title>Node0&#45;&gt;Node6</title>
<path fill="none" stroke="#191970" d="M283.0965,-119.3833C307.1035,-109.1985 339.3259,-95.5284 360.6045,-86.5011"/>
<polygon fill="#191970" stroke="#191970" points="281.5305,-116.2457 273.6916,-123.3733 284.2644,-122.6897 281.5305,-116.2457"/>
</g>
<!-- Node1 -->
<g id="node2" class="node">
<title>Node1</title>
<g id="a_node2"><a xlink:href="class_ogre_1_1_render_target.html" target="_top" xlink:title="A &#39;canvas&#39; which can receive the results of a rendering operation. ">
<polygon fill="none" stroke="#000000" points="199.5,-179.5 199.5,-198.5 302.5,-198.5 302.5,-179.5 199.5,-179.5"/>
<text text-anchor="middle" x="251" y="-186.5" font-family="Helvetica,sans-Serif" font-size="10.00" fill="#000000">Ogre::RenderTarget</text>
</a>
</g>
</g>
<!-- Node1&#45;&gt;Node0 -->
<g id="edge1" class="edge">
<title>Node1&#45;&gt;Node0</title>
<path fill="none" stroke="#191970" d="M251,-169.1575C251,-160.155 251,-149.9199 251,-142.6427"/>
<polygon fill="#191970" stroke="#191970" points="247.5001,-169.2455 251,-179.2455 254.5001,-169.2456 247.5001,-169.2455"/>
</g>
<!-- Node2 -->
<g id="node3" class="node">
<title>Node2</title>
<g id="a_node3"><a xlink:href="class_ogre_1_1_allocated_object.html" target="_top" xlink:title="RenderSysAlloc">
<polygon fill="none" stroke="#000000" points="207.5,-235.5 207.5,-254.5 294.5,-254.5 294.5,-235.5 207.5,-235.5"/>
<text text-anchor="middle" x="251" y="-242.5" font-family="Helvetica,sans-Serif" font-size="10.00" fill="#000000">RenderSysAlloc</text>
</a>
</g>
</g>
<!-- Node2&#45;&gt;Node1 -->
<g id="edge2" class="edge">
<title>Node2&#45;&gt;Node1</title>
<path fill="none" stroke="#191970" d="M251,-225.1575C251,-216.155 251,-205.9199 251,-198.6427"/>
<polygon fill="#191970" stroke="#191970" points="247.5001,-225.2455 251,-235.2455 254.5001,-225.2456 247.5001,-225.2455"/>
</g>
<!-- Node4 -->
<g id="node5" class="node">
<title>Node4</title>
<g id="a_node5"><a xlink:href="class_ogre_1_1_d3_d11_render_window_swap_chain_based.html" target="_top" xlink:title="Ogre::D3D11RenderWindowSwap\lChainBased">
<polygon fill="none" stroke="#000000" points="0,-.5 0,-30.5 166,-30.5 166,-.5 0,-.5"/>
<text text-anchor="start" x="8" y="-18.5" font-family="Helvetica,sans-Serif" font-size="10.00" fill="#000000">Ogre::D3D11RenderWindowSwap</text>
<text text-anchor="middle" x="83" y="-7.5" font-family="Helvetica,sans-Serif" font-size="10.00" fill="#000000">ChainBased</text>
</a>
</g>
</g>
<!-- Node3&#45;&gt;Node4 -->
<g id="edge4" class="edge">
<title>Node3&#45;&gt;Node4</title>
<path fill="none" stroke="#191970" d="M83,-57.3693C83,-48.681 83,-38.6241 83,-30.5446"/>
<polygon fill="#191970" stroke="#191970" points="79.5001,-57.3906 83,-67.3906 86.5001,-57.3907 79.5001,-57.3906"/>
</g>
</g>
</svg>
