<?xml version="1.0" encoding="UTF-8" standalone="no"?>
<!DOCTYPE svg PUBLIC "-//W3C//DTD SVG 1.1//EN"
 "http://www.w3.org/Graphics/SVG/1.1/DTD/svg11.dtd">
<!-- Generated by graphviz version 2.40.1 (20161225.0304)
 -->
<!-- Title: Ogre::RenderTarget Pages: 1 -->
<svg width="796pt" height="472pt"
 viewBox="0.00 0.00 796.00 472.00" xmlns="http://www.w3.org/2000/svg" xmlns:xlink="http://www.w3.org/1999/xlink">
<g id="graph0" class="graph" transform="scale(1 1) rotate(0) translate(4 468)">
<title>Ogre::RenderTarget</title>
<!-- Node0 -->
<g id="node1" class="node">
<title>Node0</title>
<polygon fill="#bfbfbf" stroke="#000000" points="123,-193.5 123,-212.5 226,-212.5 226,-193.5 123,-193.5"/>
<text text-anchor="middle" x="174.5" y="-200.5" font-family="Helvetica,sans-Serif" font-size="10.00" fill="#000000">Ogre::RenderTarget</text>
</g>
<!-- Node2 -->
<g id="node3" class="node">
<title>Node2</title>
<g id="a_node3"><a xlink:href="class_ogre_1_1_multi_render_target.html" target="_top" xlink:title="This class represents a render target that renders to multiple RenderTextures at once. ">
<polygon fill="none" stroke="#000000" points="262,-337.5 262,-356.5 386,-356.5 386,-337.5 262,-337.5"/>
<text text-anchor="middle" x="324" y="-344.5" font-family="Helvetica,sans-Serif" font-size="10.00" fill="#000000">Ogre::MultiRenderTarget</text>
</a>
</g>
</g>
<!-- Node0&#45;&gt;Node2 -->
<g id="edge2" class="edge">
<title>Node0&#45;&gt;Node2</title>
<path fill="none" stroke="#191970" d="M192.0288,-219.8839C223.6088,-250.3021 289.0915,-313.3758 314.0461,-337.4123"/>
<polygon fill="#191970" stroke="#191970" points="194.4062,-217.3143 184.7757,-212.8977 189.55,-222.3559 194.4062,-217.3143"/>
</g>
<!-- Node8 -->
<g id="node9" class="node">
<title>Node8</title>
<g id="a_node9"><a xlink:href="class_ogre_1_1_render_texture.html" target="_top" xlink:title="This class represents a RenderTarget that renders to a Texture. ">
<polygon fill="none" stroke="#000000" points="270,-193.5 270,-212.5 378,-212.5 378,-193.5 270,-193.5"/>
<text text-anchor="middle" x="324" y="-200.5" font-family="Helvetica,sans-Serif" font-size="10.00" fill="#000000">Ogre::RenderTexture</text>
</a>
</g>
</g>
<!-- Node0&#45;&gt;Node8 -->
<g id="edge8" class="edge">
<title>Node0&#45;&gt;Node8</title>
<path fill="none" stroke="#191970" d="M236.4393,-203C247.5567,-203 259.0638,-203 269.9371,-203"/>
<polygon fill="#191970" stroke="#191970" points="236.3683,-199.5001 226.3683,-203 236.3682,-206.5001 236.3683,-199.5001"/>
</g>
<!-- Node17 -->
<g id="node18" class="node">
<title>Node17</title>
<g id="a_node18"><a xlink:href="class_ogre_1_1_render_window.html" target="_top" xlink:title="Manages the target rendering window. ">
<polygon fill="none" stroke="#000000" points="269,-57.5 269,-76.5 379,-76.5 379,-57.5 269,-57.5"/>
<text text-anchor="middle" x="324" y="-64.5" font-family="Helvetica,sans-Serif" font-size="10.00" fill="#000000">Ogre::RenderWindow</text>
</a>
</g>
</g>
<!-- Node0&#45;&gt;Node17 -->
<g id="edge17" class="edge">
<title>Node0&#45;&gt;Node17</title>
<path fill="none" stroke="#191970" d="M192.9072,-186.255C224.5111,-157.505 288.1232,-99.6371 313.3457,-76.6922"/>
<polygon fill="#191970" stroke="#191970" points="190.2936,-183.901 185.2517,-193.2192 195.0041,-189.079 190.2936,-183.901"/>
</g>
<!-- Node1 -->
<g id="node2" class="node">
<title>Node1</title>
<g id="a_node2"><a xlink:href="class_ogre_1_1_allocated_object.html" target="_top" xlink:title="RenderSysAlloc">
<polygon fill="none" stroke="#000000" points="0,-193.5 0,-212.5 87,-212.5 87,-193.5 0,-193.5"/>
<text text-anchor="middle" x="43.5" y="-200.5" font-family="Helvetica,sans-Serif" font-size="10.00" fill="#000000">RenderSysAlloc</text>
</a>
</g>
</g>
<!-- Node1&#45;&gt;Node0 -->
<g id="edge1" class="edge">
<title>Node1&#45;&gt;Node0</title>
<path fill="none" stroke="#191970" d="M97.2744,-203C105.7407,-203 114.4771,-203 122.8928,-203"/>
<polygon fill="#191970" stroke="#191970" points="97.1211,-199.5001 87.1211,-203 97.1211,-206.5001 97.1211,-199.5001"/>
</g>
<!-- Node3 -->
<g id="node4" class="node">
<title>Node3</title>
<g id="a_node4"><a xlink:href="class_ogre_1_1_d3_d11_multi_render_target.html" target="_top" xlink:title="Ogre::D3D11MultiRenderTarget">
<polygon fill="none" stroke="#000000" points="426.5,-444.5 426.5,-463.5 581.5,-463.5 581.5,-444.5 426.5,-444.5"/>
<text text-anchor="middle" x="504" y="-451.5" font-family="Helvetica,sans-Serif" font-size="10.00" fill="#000000">Ogre::D3D11MultiRenderTarget</text>
</a>
</g>
</g>
<!-- Node2&#45;&gt;Node3 -->
<g id="edge3" class="edge">
<title>Node2&#45;&gt;Node3</title>
<path fill="none" stroke="#191970" d="M338.4228,-364.4477C356.0361,-384.5754 387.7422,-417.1786 422,-435 429.3895,-438.8441 437.5536,-441.9183 445.7809,-444.3749"/>
<polygon fill="#191970" stroke="#191970" points="340.9286,-361.9925 331.7707,-356.6648 335.6074,-366.5406 340.9286,-361.9925"/>
</g>
<!-- Node4 -->
<g id="node5" class="node">
<title>Node4</title>
<g id="a_node5"><a xlink:href="class_ogre_1_1_d3_d9_multi_render_target.html" target="_top" xlink:title="Ogre::D3D9MultiRenderTarget">
<polygon fill="none" stroke="#000000" points="429.5,-406.5 429.5,-425.5 578.5,-425.5 578.5,-406.5 429.5,-406.5"/>
<text text-anchor="middle" x="504" y="-413.5" font-family="Helvetica,sans-Serif" font-size="10.00" fill="#000000">Ogre::D3D9MultiRenderTarget</text>
</a>
</g>
</g>
<!-- Node2&#45;&gt;Node4 -->
<g id="edge4" class="edge">
<title>Node2&#45;&gt;Node4</title>
<path fill="none" stroke="#191970" d="M348.5268,-361.643C367.9062,-372.682 395.939,-387.4949 422,-397 432.1592,-400.7053 443.2968,-403.8561 453.9983,-406.4633"/>
<polygon fill="#191970" stroke="#191970" points="350.1633,-358.5462 339.755,-356.5668 346.6571,-364.6049 350.1633,-358.5462"/>
</g>
<!-- Node5 -->
<g id="node6" class="node">
<title>Node5</title>
<g id="a_node6"><a xlink:href="class_ogre_1_1_g_l3_plus_f_b_o_multi_render_target.html" target="_top" xlink:title="MultiRenderTarget for OpenGL. ">
<polygon fill="none" stroke="#000000" points="427,-357 427,-387 581,-387 581,-357 427,-357"/>
<text text-anchor="start" x="435" y="-375" font-family="Helvetica,sans-Serif" font-size="10.00" fill="#000000">Ogre::GL3PlusFBOMultiRender</text>
<text text-anchor="middle" x="504" y="-364" font-family="Helvetica,sans-Serif" font-size="10.00" fill="#000000">Target</text>
</a>
</g>
</g>
<!-- Node2&#45;&gt;Node5 -->
<g id="edge5" class="edge">
<title>Node2&#45;&gt;Node5</title>
<path fill="none" stroke="#191970" d="M396.1731,-357.024C406.2722,-358.4267 416.6833,-359.8727 426.8698,-361.2875"/>
<polygon fill="#191970" stroke="#191970" points="396.5843,-353.5476 386.1978,-355.6386 395.6212,-360.4811 396.5843,-353.5476"/>
</g>
<!-- Node6 -->
<g id="node7" class="node">
<title>Node6</title>
<g id="a_node7"><a xlink:href="class_ogre_1_1_g_l_e_s2_f_b_o_multi_render_target.html" target="_top" xlink:title="MultiRenderTarget for GL ES 2.x. ">
<polygon fill="none" stroke="#000000" points="430,-308 430,-338 578,-338 578,-308 430,-308"/>
<text text-anchor="start" x="438" y="-326" font-family="Helvetica,sans-Serif" font-size="10.00" fill="#000000">Ogre::GLES2FBOMultiRender</text>
<text text-anchor="middle" x="504" y="-315" font-family="Helvetica,sans-Serif" font-size="10.00" fill="#000000">Target</text>
</a>
</g>
</g>
<!-- Node2&#45;&gt;Node6 -->
<g id="edge6" class="edge">
<title>Node2&#45;&gt;Node6</title>
<path fill="none" stroke="#191970" d="M396.2024,-337.373C407.2319,-335.9024 418.6327,-334.3823 429.7062,-332.9058"/>
<polygon fill="#191970" stroke="#191970" points="395.6475,-333.9159 386.1978,-338.707 396.5727,-340.8545 395.6475,-333.9159"/>
</g>
<!-- Node7 -->
<g id="node8" class="node">
<title>Node7</title>
<g id="a_node8"><a xlink:href="class_ogre_1_1_g_l_f_b_o_multi_render_target.html" target="_top" xlink:title="MultiRenderTarget for GL. ">
<polygon fill="none" stroke="#000000" points="425.5,-269.5 425.5,-288.5 582.5,-288.5 582.5,-269.5 425.5,-269.5"/>
<text text-anchor="middle" x="504" y="-276.5" font-family="Helvetica,sans-Serif" font-size="10.00" fill="#000000">Ogre::GLFBOMultiRenderTarget</text>
</a>
</g>
</g>
<!-- Node2&#45;&gt;Node7 -->
<g id="edge7" class="edge">
<title>Node2&#45;&gt;Node7</title>
<path fill="none" stroke="#191970" d="M349.6764,-332.5142C369.0656,-322.0517 396.5876,-308.1998 422,-299 433.1605,-294.9597 445.4677,-291.4739 457.0787,-288.5962"/>
<polygon fill="#191970" stroke="#191970" points="347.9471,-329.4707 340.8562,-337.3429 351.3085,-335.6108 347.9471,-329.4707"/>
</g>
<!-- Node9 -->
<g id="node10" class="node">
<title>Node9</title>
<g id="a_node10"><a xlink:href="class_ogre_1_1_d3_d11_render_texture.html" target="_top" xlink:title="RenderTexture implementation for D3D11. ">
<polygon fill="none" stroke="#000000" points="434.5,-231.5 434.5,-250.5 573.5,-250.5 573.5,-231.5 434.5,-231.5"/>
<text text-anchor="middle" x="504" y="-238.5" font-family="Helvetica,sans-Serif" font-size="10.00" fill="#000000">Ogre::D3D11RenderTexture</text>
</a>
</g>
</g>
<!-- Node8&#45;&gt;Node9 -->
<g id="edge9" class="edge">
<title>Node8&#45;&gt;Node9</title>
<path fill="none" stroke="#191970" d="M379.331,-214.681C404.8574,-220.0699 434.7761,-226.3861 458.905,-231.4799"/>
<polygon fill="#191970" stroke="#191970" points="379.9289,-211.2301 369.4216,-212.589 378.483,-218.0792 379.9289,-211.2301"/>
</g>
<!-- Node10 -->
<g id="node11" class="node">
<title>Node10</title>
<g id="a_node11"><a xlink:href="class_ogre_1_1_d3_d9_render_texture.html" target="_top" xlink:title="RenderTexture implementation for D3D9. ">
<polygon fill="none" stroke="#000000" points="437,-193.5 437,-212.5 571,-212.5 571,-193.5 437,-193.5"/>
<text text-anchor="middle" x="504" y="-200.5" font-family="Helvetica,sans-Serif" font-size="10.00" fill="#000000">Ogre::D3D9RenderTexture</text>
</a>
</g>
</g>
<!-- Node8&#45;&gt;Node10 -->
<g id="edge10" class="edge">
<title>Node8&#45;&gt;Node10</title>
<path fill="none" stroke="#191970" d="M388.2114,-203C404.0308,-203 421.0112,-203 436.9606,-203"/>
<polygon fill="#191970" stroke="#191970" points="388.006,-199.5001 378.0059,-203 388.0059,-206.5001 388.006,-199.5001"/>
</g>
<!-- Node11 -->
<g id="node12" class="node">
<title>Node11</title>
<g id="a_node12"><a xlink:href="class_ogre_1_1_g_l_render_texture.html" target="_top" xlink:title="Base class for GL Render Textures. ">
<polygon fill="none" stroke="#000000" points="443.5,-155.5 443.5,-174.5 564.5,-174.5 564.5,-155.5 443.5,-155.5"/>
<text text-anchor="middle" x="504" y="-162.5" font-family="Helvetica,sans-Serif" font-size="10.00" fill="#000000">Ogre::GLRenderTexture</text>
</a>
</g>
</g>
<!-- Node8&#45;&gt;Node11 -->
<g id="edge11" class="edge">
<title>Node8&#45;&gt;Node11</title>
<path fill="none" stroke="#191970" d="M379.331,-191.319C404.8574,-185.9301 434.7761,-179.6139 458.905,-174.5201"/>
<polygon fill="#191970" stroke="#191970" points="378.483,-187.9208 369.4216,-193.411 379.9289,-194.7699 378.483,-187.9208"/>
</g>
<!-- Node12 -->
<g id="node13" class="node">
<title>Node12</title>
<g id="a_node13"><a xlink:href="class_ogre_1_1_g_l3_plus_f_b_o_render_texture.html" target="_top" xlink:title="RenderTexture for GL FBO. ">
<polygon fill="none" stroke="#000000" points="622,-250.5 622,-269.5 788,-269.5 788,-250.5 622,-250.5"/>
<text text-anchor="middle" x="705" y="-257.5" font-family="Helvetica,sans-Serif" font-size="10.00" fill="#000000">Ogre::GL3PlusFBORenderTexture</text>
</a>
</g>
</g>
<!-- Node11&#45;&gt;Node12 -->
<g id="edge12" class="edge">
<title>Node11&#45;&gt;Node12</title>
<path fill="none" stroke="#191970" d="M574.0364,-177.1111C578.2489,-179.0783 582.2806,-181.3582 586,-184 610.4282,-201.3506 597.5489,-223.6818 622,-241 627.4284,-244.8448 633.513,-247.925 639.8554,-250.3906"/>
<polygon fill="#191970" stroke="#191970" points="575.1595,-173.7899 564.5767,-173.2852 572.5349,-180.2793 575.1595,-173.7899"/>
</g>
<!-- Node13 -->
<g id="node14" class="node">
<title>Node13</title>
<g id="a_node14"><a xlink:href="class_ogre_1_1_g_l_copying_render_texture.html" target="_top" xlink:title="Ogre::GLCopyingRenderTexture">
<polygon fill="none" stroke="#000000" points="626.5,-212.5 626.5,-231.5 783.5,-231.5 783.5,-212.5 626.5,-212.5"/>
<text text-anchor="middle" x="705" y="-219.5" font-family="Helvetica,sans-Serif" font-size="10.00" fill="#000000">Ogre::GLCopyingRenderTexture</text>
</a>
</g>
</g>
<!-- Node11&#45;&gt;Node13 -->
<g id="edge13" class="edge">
<title>Node11&#45;&gt;Node13</title>
<path fill="none" stroke="#191970" d="M564.2047,-177.0616C571.6314,-179.1006 579.0494,-181.4103 586,-184 602.9532,-190.3166 605.0385,-196.7059 622,-203 631.9785,-206.7028 642.9095,-209.8257 653.468,-212.402"/>
<polygon fill="#191970" stroke="#191970" points="565.0336,-173.6609 554.475,-174.5365 563.275,-180.4364 565.0336,-173.6609"/>
</g>
<!-- Node14 -->
<g id="node15" class="node">
<title>Node14</title>
<g id="a_node15"><a xlink:href="class_ogre_1_1_g_l_e_s2_f_b_o_render_texture.html" target="_top" xlink:title="RenderTexture for GL ES 2 FBO. ">
<polygon fill="none" stroke="#000000" points="625,-174.5 625,-193.5 785,-193.5 785,-174.5 625,-174.5"/>
<text text-anchor="middle" x="705" y="-181.5" font-family="Helvetica,sans-Serif" font-size="10.00" fill="#000000">Ogre::GLES2FBORenderTexture</text>
</a>
</g>
</g>
<!-- Node11&#45;&gt;Node14 -->
<g id="edge14" class="edge">
<title>Node11&#45;&gt;Node14</title>
<path fill="none" stroke="#191970" d="M574.5372,-171.6677C590.7972,-173.2047 608.2088,-174.8506 624.8442,-176.4231"/>
<polygon fill="#191970" stroke="#191970" points="574.8642,-168.1831 564.5792,-170.7264 574.2054,-175.152 574.8642,-168.1831"/>
</g>
<!-- Node15 -->
<g id="node16" class="node">
<title>Node15</title>
<g id="a_node16"><a xlink:href="class_ogre_1_1_g_l_f_b_o_render_texture.html" target="_top" xlink:title="RenderTexture for GL FBO. ">
<polygon fill="none" stroke="#000000" points="634.5,-136.5 634.5,-155.5 775.5,-155.5 775.5,-136.5 634.5,-136.5"/>
<text text-anchor="middle" x="705" y="-143.5" font-family="Helvetica,sans-Serif" font-size="10.00" fill="#000000">Ogre::GLFBORenderTexture</text>
</a>
</g>
</g>
<!-- Node11&#45;&gt;Node15 -->
<g id="edge15" class="edge">
<title>Node11&#45;&gt;Node15</title>
<path fill="none" stroke="#191970" d="M574.5429,-158.3318C593.914,-156.5007 614.9194,-154.5151 634.2994,-152.6831"/>
<polygon fill="#191970" stroke="#191970" points="574.2054,-154.848 564.5792,-159.2736 574.8642,-161.8169 574.2054,-154.848"/>
</g>
<!-- Node16 -->
<g id="node17" class="node">
<title>Node16</title>
<g id="a_node17"><a xlink:href="class_ogre_1_1_g_l_p_b_render_texture.html" target="_top" xlink:title="Ogre::GLPBRenderTexture">
<polygon fill="none" stroke="#000000" points="638,-98.5 638,-117.5 772,-117.5 772,-98.5 638,-98.5"/>
<text text-anchor="middle" x="705" y="-105.5" font-family="Helvetica,sans-Serif" font-size="10.00" fill="#000000">Ogre::GLPBRenderTexture</text>
</a>
</g>
</g>
<!-- Node11&#45;&gt;Node16 -->
<g id="edge16" class="edge">
<title>Node11&#45;&gt;Node16</title>
<path fill="none" stroke="#191970" d="M541.1993,-152.1086C564.3054,-144.3291 594.7035,-134.5044 622,-127 634.2581,-123.63 647.6472,-120.38 660.024,-117.5497"/>
<polygon fill="#191970" stroke="#191970" points="539.8001,-148.8873 531.4541,-155.4138 542.0484,-155.5164 539.8001,-148.8873"/>
</g>
<!-- Node18 -->
<g id="node19" class="node">
<title>Node18</title>
<g id="a_node19"><a xlink:href="class_ogre_1_1_d3_d11_render_window_base.html" target="_top" xlink:title="Ogre::D3D11RenderWindowBase">
<polygon fill="none" stroke="#000000" points="422,-76.5 422,-95.5 586,-95.5 586,-76.5 422,-76.5"/>
<text text-anchor="middle" x="504" y="-83.5" font-family="Helvetica,sans-Serif" font-size="10.00" fill="#000000">Ogre::D3D11RenderWindowBase</text>
</a>
</g>
</g>
<!-- Node17&#45;&gt;Node18 -->
<g id="edge18" class="edge">
<title>Node17&#45;&gt;Node18</title>
<path fill="none" stroke="#191970" d="M389.4231,-73.9058C399.9774,-75.0198 411.0201,-76.1855 421.9073,-77.3347"/>
<polygon fill="#191970" stroke="#191970" points="389.7869,-70.4248 379.4747,-72.8557 389.052,-77.3861 389.7869,-70.4248"/>
</g>
<!-- Node20 -->
<g id="node21" class="node">
<title>Node20</title>
<g id="a_node21"><a xlink:href="class_ogre_1_1_d3_d9_render_window.html" target="_top" xlink:title="Ogre::D3D9RenderWindow">
<polygon fill="none" stroke="#000000" points="436,-38.5 436,-57.5 572,-57.5 572,-38.5 436,-38.5"/>
<text text-anchor="middle" x="504" y="-45.5" font-family="Helvetica,sans-Serif" font-size="10.00" fill="#000000">Ogre::D3D9RenderWindow</text>
</a>
</g>
</g>
<!-- Node17&#45;&gt;Node20 -->
<g id="edge20" class="edge">
<title>Node17&#45;&gt;Node20</title>
<path fill="none" stroke="#191970" d="M389.6693,-60.0682C404.6519,-58.4867 420.6072,-56.8026 435.6971,-55.2098"/>
<polygon fill="#191970" stroke="#191970" points="389.052,-56.6139 379.4747,-61.1443 389.7869,-63.5752 389.052,-56.6139"/>
</g>
<!-- Node21 -->
<g id="node22" class="node">
<title>Node21</title>
<g id="a_node22"><a xlink:href="class_ogre_1_1_g_l_window.html" target="_top" xlink:title="Ogre::GLWindow">
<polygon fill="none" stroke="#000000" points="458,-.5 458,-19.5 550,-19.5 550,-.5 458,-.5"/>
<text text-anchor="middle" x="504" y="-7.5" font-family="Helvetica,sans-Serif" font-size="10.00" fill="#000000">Ogre::GLWindow</text>
</a>
</g>
</g>
<!-- Node17&#45;&gt;Node21 -->
<g id="edge21" class="edge">
<title>Node17&#45;&gt;Node21</title>
<path fill="none" stroke="#191970" d="M355.2483,-53.5726C374.3003,-45.7164 399.2781,-35.9988 422,-29 433.4519,-25.4726 445.9807,-22.2555 457.7214,-19.5119"/>
<polygon fill="#191970" stroke="#191970" points="353.7495,-50.4055 345.8689,-57.487 356.4455,-56.8656 353.7495,-50.4055"/>
</g>
<!-- Node19 -->
<g id="node20" class="node">
<title>Node19</title>
<g id="a_node20"><a xlink:href="class_ogre_1_1_d3_d11_render_window_swap_chain_based.html" target="_top" xlink:title="Ogre::D3D11RenderWindowSwap\lChainBased">
<polygon fill="none" stroke="#000000" points="622,-49 622,-79 788,-79 788,-49 622,-49"/>
<text text-anchor="start" x="630" y="-67" font-family="Helvetica,sans-Serif" font-size="10.00" fill="#000000">Ogre::D3D11RenderWindowSwap</text>
<text text-anchor="middle" x="705" y="-56" font-family="Helvetica,sans-Serif" font-size="10.00" fill="#000000">ChainBased</text>
</a>
</g>
</g>
<!-- Node18&#45;&gt;Node19 -->
<g id="edge19" class="edge">
<title>Node18&#45;&gt;Node19</title>
<path fill="none" stroke="#191970" d="M596.0963,-75.9198C604.7045,-74.9776 613.3956,-74.0264 621.9144,-73.0939"/>
<polygon fill="#191970" stroke="#191970" points="595.6041,-72.4527 586.0443,-77.02 596.3658,-79.4111 595.6041,-72.4527"/>
</g>
</g>
</svg>
