<?xml version="1.0" encoding="UTF-8" standalone="no"?>
<!DOCTYPE svg PUBLIC "-//W3C//DTD SVG 1.1//EN"
 "http://www.w3.org/Graphics/SVG/1.1/DTD/svg11.dtd">
<!-- Generated by graphviz version 2.40.1 (20161225.0304)
 -->
<!-- Title: Ogre::HardwareBuffer Pages: 1 -->
<svg width="958pt" height="881pt"
 viewBox="0.00 0.00 958.00 880.50" xmlns="http://www.w3.org/2000/svg" xmlns:xlink="http://www.w3.org/1999/xlink">
<g id="graph0" class="graph" transform="scale(1 1) rotate(0) translate(4 876.5)">
<title>Ogre::HardwareBuffer</title>
<!-- Node0 -->
<g id="node1" class="node">
<title>Node0</title>
<polygon fill="#bfbfbf" stroke="#000000" points="101,-529.5 101,-548.5 213,-548.5 213,-529.5 101,-529.5"/>
<text text-anchor="middle" x="157" y="-536.5" font-family="Helvetica,sans-Serif" font-size="10.00" fill="#000000">Ogre::HardwareBuffer</text>
</g>
<!-- Node2 -->
<g id="node3" class="node">
<title>Node2</title>
<g id="a_node3"><a xlink:href="class_ogre_1_1_d3_d11_hardware_buffer.html" target="_top" xlink:title="Base implementation of a D3D11 buffer, dealing with all the common aspects. ">
<polygon fill="none" stroke="#000000" points="250.5,-723.5 250.5,-742.5 393.5,-742.5 393.5,-723.5 250.5,-723.5"/>
<text text-anchor="middle" x="322" y="-730.5" font-family="Helvetica,sans-Serif" font-size="10.00" fill="#000000">Ogre::D3D11HardwareBuffer</text>
</a>
</g>
</g>
<!-- Node0&#45;&gt;Node2 -->
<g id="edge2" class="edge">
<title>Node0&#45;&gt;Node2</title>
<path fill="none" stroke="#191970" d="M161.6759,-558.5924C171.4026,-594.9803 197.339,-673.0119 249,-714 253.9243,-717.907 259.5685,-721.0169 265.4893,-723.4911"/>
<polygon fill="#191970" stroke="#191970" points="165.0231,-557.5531 159.1671,-548.7237 158.2388,-559.2778 165.0231,-557.5531"/>
</g>
<!-- Node3 -->
<g id="node4" class="node">
<title>Node3</title>
<g id="a_node4"><a xlink:href="class_ogre_1_1_hardware_index_buffer.html" target="_top" xlink:title="Specialisation of HardwareBuffer for vertex index buffers, still abstract. ">
<polygon fill="none" stroke="#000000" points="254,-685.5 254,-704.5 390,-704.5 390,-685.5 254,-685.5"/>
<text text-anchor="middle" x="322" y="-692.5" font-family="Helvetica,sans-Serif" font-size="10.00" fill="#000000">Ogre::HardwareIndexBuffer</text>
</a>
</g>
</g>
<!-- Node0&#45;&gt;Node3 -->
<g id="edge3" class="edge">
<title>Node0&#45;&gt;Node3</title>
<path fill="none" stroke="#191970" d="M174.7905,-555.8201C209.28,-588.4284 284.2544,-659.3132 311.6824,-685.2452"/>
<polygon fill="#191970" stroke="#191970" points="176.9925,-553.0854 167.3215,-548.7585 172.1834,-558.1719 176.9925,-553.0854"/>
</g>
<!-- Node10 -->
<g id="node11" class="node">
<title>Node10</title>
<g id="a_node11"><a xlink:href="class_ogre_1_1_hardware_pixel_buffer.html" target="_top" xlink:title="Specialisation of HardwareBuffer for a pixel buffer. ">
<polygon fill="none" stroke="#000000" points="255,-529.5 255,-548.5 389,-548.5 389,-529.5 255,-529.5"/>
<text text-anchor="middle" x="322" y="-536.5" font-family="Helvetica,sans-Serif" font-size="10.00" fill="#000000">Ogre::HardwarePixelBuffer</text>
</a>
</g>
</g>
<!-- Node0&#45;&gt;Node10 -->
<g id="edge10" class="edge">
<title>Node0&#45;&gt;Node10</title>
<path fill="none" stroke="#191970" d="M223.5009,-539C233.8206,-539 244.4876,-539 254.8222,-539"/>
<polygon fill="#191970" stroke="#191970" points="223.3222,-535.5001 213.3222,-539 223.3221,-542.5001 223.3222,-535.5001"/>
</g>
<!-- Node23 -->
<g id="node24" class="node">
<title>Node23</title>
<g id="a_node24"><a xlink:href="class_ogre_1_1_hardware_uniform_buffer.html" target="_top" xlink:title="Specialisation of HardwareBuffer for a uniform buffer. ">
<polygon fill="none" stroke="#000000" points="249,-387.5 249,-406.5 395,-406.5 395,-387.5 249,-387.5"/>
<text text-anchor="middle" x="322" y="-394.5" font-family="Helvetica,sans-Serif" font-size="10.00" fill="#000000">Ogre::HardwareUniformBuffer</text>
</a>
</g>
</g>
<!-- Node0&#45;&gt;Node23 -->
<g id="edge23" class="edge">
<title>Node0&#45;&gt;Node23</title>
<path fill="none" stroke="#191970" d="M176.0007,-522.6479C210.5195,-492.9408 282.5407,-430.9589 310.5295,-406.8715"/>
<polygon fill="#191970" stroke="#191970" points="173.3789,-520.2866 168.0823,-529.4625 177.945,-525.5923 173.3789,-520.2866"/>
</g>
<!-- Node28 -->
<g id="node29" class="node">
<title>Node28</title>
<g id="a_node29"><a xlink:href="class_ogre_1_1_hardware_vertex_buffer.html" target="_top" xlink:title="Specialisation of HardwareBuffer for a vertex buffer. ">
<polygon fill="none" stroke="#000000" points="252,-142.5 252,-161.5 392,-161.5 392,-142.5 252,-142.5"/>
<text text-anchor="middle" x="322" y="-149.5" font-family="Helvetica,sans-Serif" font-size="10.00" fill="#000000">Ogre::HardwareVertexBuffer</text>
</a>
</g>
</g>
<!-- Node0&#45;&gt;Node28 -->
<g id="edge28" class="edge">
<title>Node0&#45;&gt;Node28</title>
<path fill="none" stroke="#191970" d="M165.0277,-520.1714C194.5121,-451.017 296.2373,-212.4252 317.9162,-161.5784"/>
<polygon fill="#191970" stroke="#191970" points="161.7811,-518.8621 161.0787,-529.4337 168.2203,-521.6075 161.7811,-518.8621"/>
</g>
<!-- Node1 -->
<g id="node2" class="node">
<title>Node1</title>
<g id="a_node2"><a xlink:href="class_ogre_1_1_allocated_object.html" target="_top" xlink:title="BufferAlloc">
<polygon fill="none" stroke="#000000" points="0,-529.5 0,-548.5 65,-548.5 65,-529.5 0,-529.5"/>
<text text-anchor="middle" x="32.5" y="-536.5" font-family="Helvetica,sans-Serif" font-size="10.00" fill="#000000">BufferAlloc</text>
</a>
</g>
</g>
<!-- Node1&#45;&gt;Node0 -->
<g id="edge1" class="edge">
<title>Node1&#45;&gt;Node0</title>
<path fill="none" stroke="#191970" d="M75.3339,-539C83.5784,-539 92.3278,-539 100.9189,-539"/>
<polygon fill="#191970" stroke="#191970" points="75.2109,-535.5001 65.2109,-539 75.2109,-542.5001 75.2109,-535.5001"/>
</g>
<!-- Node4 -->
<g id="node5" class="node">
<title>Node4</title>
<g id="a_node5"><a xlink:href="class_ogre_1_1_d3_d11_hardware_index_buffer.html" target="_top" xlink:title="Ogre::D3D11HardwareIndex\lBuffer">
<polygon fill="none" stroke="#000000" points="441.5,-842 441.5,-872 581.5,-872 581.5,-842 441.5,-842"/>
<text text-anchor="start" x="449.5" y="-860" font-family="Helvetica,sans-Serif" font-size="10.00" fill="#000000">Ogre::D3D11HardwareIndex</text>
<text text-anchor="middle" x="511.5" y="-849" font-family="Helvetica,sans-Serif" font-size="10.00" fill="#000000">Buffer</text>
</a>
</g>
</g>
<!-- Node3&#45;&gt;Node4 -->
<g id="edge4" class="edge">
<title>Node3&#45;&gt;Node4</title>
<path fill="none" stroke="#191970" d="M390.2723,-710.0203C391.93,-711.248 393.5116,-712.5721 395,-714 434.5672,-751.9586 392.3258,-793.1319 431,-832 434.8191,-835.8383 439.2159,-839.0893 443.9435,-841.8426"/>
<polygon fill="#191970" stroke="#191970" points="391.7936,-706.8493 381.4293,-704.6511 388.1606,-712.8328 391.7936,-706.8493"/>
</g>
<!-- Node5 -->
<g id="node6" class="node">
<title>Node5</title>
<g id="a_node6"><a xlink:href="class_ogre_1_1_d3_d9_hardware_index_buffer.html" target="_top" xlink:title="Ogre::D3D9HardwareIndexBuffer">
<polygon fill="none" stroke="#000000" points="431,-803.5 431,-822.5 592,-822.5 592,-803.5 431,-803.5"/>
<text text-anchor="middle" x="511.5" y="-810.5" font-family="Helvetica,sans-Serif" font-size="10.00" fill="#000000">Ogre::D3D9HardwareIndexBuffer</text>
</a>
</g>
</g>
<!-- Node3&#45;&gt;Node5 -->
<g id="edge5" class="edge">
<title>Node3&#45;&gt;Node5</title>
<path fill="none" stroke="#191970" d="M388.5892,-709.3354C390.8383,-710.749 392.9864,-712.2996 395,-714 424.7887,-739.1561 400.9259,-769.1857 431,-794 435.652,-797.8384 440.9443,-800.9287 446.5416,-803.4131"/>
<polygon fill="#191970" stroke="#191970" points="389.9628,-706.103 379.4848,-704.5338 386.6973,-712.2946 389.9628,-706.103"/>
</g>
<!-- Node6 -->
<g id="node7" class="node">
<title>Node6</title>
<g id="a_node7"><a xlink:href="class_ogre_1_1_default_hardware_index_buffer.html" target="_top" xlink:title="Specialisation of HardwareIndexBuffer for emulation. ">
<polygon fill="none" stroke="#000000" points="441,-754 441,-784 582,-784 582,-754 441,-754"/>
<text text-anchor="start" x="449" y="-772" font-family="Helvetica,sans-Serif" font-size="10.00" fill="#000000">Ogre::DefaultHardwareIndex</text>
<text text-anchor="middle" x="511.5" y="-761" font-family="Helvetica,sans-Serif" font-size="10.00" fill="#000000">Buffer</text>
</a>
</g>
</g>
<!-- Node3&#45;&gt;Node6 -->
<g id="edge6" class="edge">
<title>Node3&#45;&gt;Node6</title>
<path fill="none" stroke="#191970" d="M381.2892,-707.9273C386.0317,-709.7107 390.6612,-711.7259 395,-714 413.7015,-723.8021 412.4735,-734.871 431,-745 437.1421,-748.3581 443.811,-751.3006 450.5932,-753.8654"/>
<polygon fill="#191970" stroke="#191970" points="382.0471,-704.4883 371.4527,-704.5835 379.7942,-711.1158 382.0471,-704.4883"/>
</g>
<!-- Node7 -->
<g id="node8" class="node">
<title>Node7</title>
<g id="a_node8"><a xlink:href="class_ogre_1_1_g_l3_plus_hardware_index_buffer.html" target="_top" xlink:title="Ogre::GL3PlusHardwareIndex\lBuffer">
<polygon fill="none" stroke="#000000" points="438,-705 438,-735 585,-735 585,-705 438,-705"/>
<text text-anchor="start" x="446" y="-723" font-family="Helvetica,sans-Serif" font-size="10.00" fill="#000000">Ogre::GL3PlusHardwareIndex</text>
<text text-anchor="middle" x="511.5" y="-712" font-family="Helvetica,sans-Serif" font-size="10.00" fill="#000000">Buffer</text>
</a>
</g>
</g>
<!-- Node3&#45;&gt;Node7 -->
<g id="edge7" class="edge">
<title>Node3&#45;&gt;Node7</title>
<path fill="none" stroke="#191970" d="M400.0701,-705.2995C412.573,-706.9489 425.476,-708.6512 437.8709,-710.2864"/>
<polygon fill="#191970" stroke="#191970" points="400.518,-701.8283 390.1461,-703.9903 399.6024,-708.7682 400.518,-701.8283"/>
</g>
<!-- Node8 -->
<g id="node9" class="node">
<title>Node8</title>
<g id="a_node9"><a xlink:href="class_ogre_1_1_g_l_e_s2_hardware_index_buffer.html" target="_top" xlink:title="Ogre::GLES2HardwareIndex\lBuffer">
<polygon fill="none" stroke="#000000" points="441,-656 441,-686 582,-686 582,-656 441,-656"/>
<text text-anchor="start" x="449" y="-674" font-family="Helvetica,sans-Serif" font-size="10.00" fill="#000000">Ogre::GLES2HardwareIndex</text>
<text text-anchor="middle" x="511.5" y="-663" font-family="Helvetica,sans-Serif" font-size="10.00" fill="#000000">Buffer</text>
</a>
</g>
</g>
<!-- Node3&#45;&gt;Node8 -->
<g id="edge8" class="edge">
<title>Node3&#45;&gt;Node8</title>
<path fill="none" stroke="#191970" d="M400.294,-685.0841C413.7041,-683.3858 427.5679,-681.6299 440.7662,-679.9584"/>
<polygon fill="#191970" stroke="#191970" points="399.6271,-681.6406 390.1461,-686.3694 400.5067,-688.5851 399.6271,-681.6406"/>
</g>
<!-- Node9 -->
<g id="node10" class="node">
<title>Node9</title>
<g id="a_node10"><a xlink:href="class_ogre_1_1_g_l_hardware_index_buffer.html" target="_top" xlink:title="Ogre::GLHardwareIndexBuffer">
<polygon fill="none" stroke="#000000" points="437,-617.5 437,-636.5 586,-636.5 586,-617.5 437,-617.5"/>
<text text-anchor="middle" x="511.5" y="-624.5" font-family="Helvetica,sans-Serif" font-size="10.00" fill="#000000">Ogre::GLHardwareIndexBuffer</text>
</a>
</g>
</g>
<!-- Node3&#45;&gt;Node9 -->
<g id="edge9" class="edge">
<title>Node3&#45;&gt;Node9</title>
<path fill="none" stroke="#191970" d="M350.1761,-680.9932C371.8773,-670.6002 402.8325,-656.6218 431,-647 442.5833,-643.0432 455.3493,-639.5091 467.2356,-636.5532"/>
<polygon fill="#191970" stroke="#191970" points="348.3731,-677.9776 340.8997,-685.4876 351.4252,-684.2772 348.3731,-677.9776"/>
</g>
<!-- Node11 -->
<g id="node12" class="node">
<title>Node11</title>
<g id="a_node12"><a xlink:href="class_ogre_1_1_d3_d11_hardware_pixel_buffer.html" target="_top" xlink:title="Ogre::D3D11HardwarePixel\lBuffer">
<polygon fill="none" stroke="#000000" points="442.5,-568 442.5,-598 580.5,-598 580.5,-568 442.5,-568"/>
<text text-anchor="start" x="450.5" y="-586" font-family="Helvetica,sans-Serif" font-size="10.00" fill="#000000">Ogre::D3D11HardwarePixel</text>
<text text-anchor="middle" x="511.5" y="-575" font-family="Helvetica,sans-Serif" font-size="10.00" fill="#000000">Buffer</text>
</a>
</g>
</g>
<!-- Node10&#45;&gt;Node11 -->
<g id="edge11" class="edge">
<title>Node10&#45;&gt;Node11</title>
<path fill="none" stroke="#191970" d="M372.8772,-550.8132C395.5471,-556.0769 422.5173,-562.3391 446.6162,-567.9346"/>
<polygon fill="#191970" stroke="#191970" points="373.6512,-547.3998 363.1187,-548.5473 372.0679,-554.2185 373.6512,-547.3998"/>
</g>
<!-- Node12 -->
<g id="node13" class="node">
<title>Node12</title>
<g id="a_node13"><a xlink:href="class_ogre_1_1_d3_d9_hardware_pixel_buffer.html" target="_top" xlink:title="Ogre::D3D9HardwarePixelBuffer">
<polygon fill="none" stroke="#000000" points="432,-529.5 432,-548.5 591,-548.5 591,-529.5 432,-529.5"/>
<text text-anchor="middle" x="511.5" y="-536.5" font-family="Helvetica,sans-Serif" font-size="10.00" fill="#000000">Ogre::D3D9HardwarePixelBuffer</text>
</a>
</g>
</g>
<!-- Node10&#45;&gt;Node12 -->
<g id="edge12" class="edge">
<title>Node10&#45;&gt;Node12</title>
<path fill="none" stroke="#191970" d="M399.2669,-539C410.0138,-539 421.0716,-539 431.8611,-539"/>
<polygon fill="#191970" stroke="#191970" points="399.0773,-535.5001 389.0773,-539 399.0773,-542.5001 399.0773,-535.5001"/>
</g>
<!-- Node13 -->
<g id="node14" class="node">
<title>Node13</title>
<g id="a_node14"><a xlink:href="class_ogre_1_1_g_l_hardware_pixel_buffer_common.html" target="_top" xlink:title="Ogre::GLHardwarePixelBuffer\lCommon">
<polygon fill="none" stroke="#000000" points="438.5,-480 438.5,-510 584.5,-510 584.5,-480 438.5,-480"/>
<text text-anchor="start" x="446.5" y="-498" font-family="Helvetica,sans-Serif" font-size="10.00" fill="#000000">Ogre::GLHardwarePixelBuffer</text>
<text text-anchor="middle" x="511.5" y="-487" font-family="Helvetica,sans-Serif" font-size="10.00" fill="#000000">Common</text>
</a>
</g>
</g>
<!-- Node10&#45;&gt;Node13 -->
<g id="edge13" class="edge">
<title>Node10&#45;&gt;Node13</title>
<path fill="none" stroke="#191970" d="M372.8772,-527.1868C395.5471,-521.9231 422.5173,-515.6609 446.6162,-510.0654"/>
<polygon fill="#191970" stroke="#191970" points="372.0679,-523.7815 363.1187,-529.4527 373.6512,-530.6002 372.0679,-523.7815"/>
</g>
<!-- Node14 -->
<g id="node15" class="node">
<title>Node14</title>
<g id="a_node15"><a xlink:href="class_ogre_1_1_g_l3_plus_hardware_pixel_buffer.html" target="_top" xlink:title="Ogre::GL3PlusHardwarePixel\lBuffer">
<polygon fill="none" stroke="#000000" points="628.5,-539 628.5,-569 773.5,-569 773.5,-539 628.5,-539"/>
<text text-anchor="start" x="636.5" y="-557" font-family="Helvetica,sans-Serif" font-size="10.00" fill="#000000">Ogre::GL3PlusHardwarePixel</text>
<text text-anchor="middle" x="701" y="-546" font-family="Helvetica,sans-Serif" font-size="10.00" fill="#000000">Buffer</text>
</a>
</g>
</g>
<!-- Node13&#45;&gt;Node14 -->
<g id="edge14" class="edge">
<title>Node13&#45;&gt;Node14</title>
<path fill="none" stroke="#191970" d="M569.7816,-513.0905C577.259,-515.4142 584.8105,-517.7623 592,-520 611.8737,-526.1855 633.7816,-533.0167 652.7117,-538.9234"/>
<polygon fill="#191970" stroke="#191970" points="570.6193,-509.6857 560.0311,-510.0611 568.5423,-516.3705 570.6193,-509.6857"/>
</g>
<!-- Node17 -->
<g id="node18" class="node">
<title>Node17</title>
<g id="a_node18"><a xlink:href="class_ogre_1_1_g_l_e_s2_hardware_pixel_buffer.html" target="_top" xlink:title="Ogre::GLES2HardwarePixel\lBuffer">
<polygon fill="none" stroke="#000000" points="631.5,-480 631.5,-510 770.5,-510 770.5,-480 631.5,-480"/>
<text text-anchor="start" x="639.5" y="-498" font-family="Helvetica,sans-Serif" font-size="10.00" fill="#000000">Ogre::GLES2HardwarePixel</text>
<text text-anchor="middle" x="701" y="-487" font-family="Helvetica,sans-Serif" font-size="10.00" fill="#000000">Buffer</text>
</a>
</g>
</g>
<!-- Node13&#45;&gt;Node17 -->
<g id="edge17" class="edge">
<title>Node13&#45;&gt;Node17</title>
<path fill="none" stroke="#191970" d="M594.9084,-495C607.0754,-495 619.4955,-495 631.3506,-495"/>
<polygon fill="#191970" stroke="#191970" points="594.7657,-491.5001 584.7656,-495 594.7656,-498.5001 594.7657,-491.5001"/>
</g>
<!-- Node20 -->
<g id="node21" class="node">
<title>Node20</title>
<g id="a_node21"><a xlink:href="class_ogre_1_1_g_l_hardware_pixel_buffer.html" target="_top" xlink:title="Ogre::GLHardwarePixelBuffer">
<polygon fill="none" stroke="#000000" points="628,-430.5 628,-449.5 774,-449.5 774,-430.5 628,-430.5"/>
<text text-anchor="middle" x="701" y="-437.5" font-family="Helvetica,sans-Serif" font-size="10.00" fill="#000000">Ogre::GLHardwarePixelBuffer</text>
</a>
</g>
</g>
<!-- Node13&#45;&gt;Node20 -->
<g id="edge20" class="edge">
<title>Node13&#45;&gt;Node20</title>
<path fill="none" stroke="#191970" d="M572.902,-477.1788C604.5494,-467.9936 641.8862,-457.157 668.0593,-449.5606"/>
<polygon fill="#191970" stroke="#191970" points="571.9098,-473.8223 563.2817,-479.971 573.861,-480.5449 571.9098,-473.8223"/>
</g>
<!-- Node15 -->
<g id="node16" class="node">
<title>Node15</title>
<g id="a_node16"><a xlink:href="class_ogre_1_1_g_l3_plus_render_buffer.html" target="_top" xlink:title="Renderbuffer surface. ">
<polygon fill="none" stroke="#000000" points="810.5,-582.5 810.5,-601.5 949.5,-601.5 949.5,-582.5 810.5,-582.5"/>
<text text-anchor="middle" x="880" y="-589.5" font-family="Helvetica,sans-Serif" font-size="10.00" fill="#000000">Ogre::GL3PlusRenderBuffer</text>
</a>
</g>
</g>
<!-- Node14&#45;&gt;Node15 -->
<g id="edge15" class="edge">
<title>Node14&#45;&gt;Node15</title>
<path fill="none" stroke="#191970" d="M781.6124,-571.1133C800.0378,-575.0248 818.9706,-579.044 835.2457,-582.4991"/>
<polygon fill="#191970" stroke="#191970" points="782.2544,-567.6716 771.7455,-569.0186 780.8007,-574.519 782.2544,-567.6716"/>
</g>
<!-- Node16 -->
<g id="node17" class="node">
<title>Node16</title>
<g id="a_node17"><a xlink:href="class_ogre_1_1_g_l3_plus_texture_buffer.html" target="_top" xlink:title="Texture surface. ">
<polygon fill="none" stroke="#000000" points="810,-544.5 810,-563.5 950,-563.5 950,-544.5 810,-544.5"/>
<text text-anchor="middle" x="880" y="-551.5" font-family="Helvetica,sans-Serif" font-size="10.00" fill="#000000">Ogre::GL3PlusTextureBuffer</text>
</a>
</g>
</g>
<!-- Node14&#45;&gt;Node16 -->
<g id="edge16" class="edge">
<title>Node14&#45;&gt;Node16</title>
<path fill="none" stroke="#191970" d="M783.7676,-554C792.5241,-554 801.3671,-554 809.9587,-554"/>
<polygon fill="#191970" stroke="#191970" points="783.5481,-550.5001 773.5481,-554 783.5481,-557.5001 783.5481,-550.5001"/>
</g>
<!-- Node18 -->
<g id="node19" class="node">
<title>Node18</title>
<g id="a_node19"><a xlink:href="class_ogre_1_1_g_l_e_s2_render_buffer.html" target="_top" xlink:title="Renderbuffer surface. ">
<polygon fill="none" stroke="#000000" points="813.5,-506.5 813.5,-525.5 946.5,-525.5 946.5,-506.5 813.5,-506.5"/>
<text text-anchor="middle" x="880" y="-513.5" font-family="Helvetica,sans-Serif" font-size="10.00" fill="#000000">Ogre::GLES2RenderBuffer</text>
</a>
</g>
</g>
<!-- Node17&#45;&gt;Node18 -->
<g id="edge18" class="edge">
<title>Node17&#45;&gt;Node18</title>
<path fill="none" stroke="#191970" d="M780.6824,-504.3482C791.613,-505.6306 802.7414,-506.9361 813.4047,-508.1871"/>
<polygon fill="#191970" stroke="#191970" points="781.0584,-500.8684 770.7186,-503.1793 780.2427,-507.8207 781.0584,-500.8684"/>
</g>
<!-- Node19 -->
<g id="node20" class="node">
<title>Node19</title>
<g id="a_node20"><a xlink:href="class_ogre_1_1_g_l_e_s2_texture_buffer.html" target="_top" xlink:title="Texture surface. ">
<polygon fill="none" stroke="#000000" points="813,-468.5 813,-487.5 947,-487.5 947,-468.5 813,-468.5"/>
<text text-anchor="middle" x="880" y="-475.5" font-family="Helvetica,sans-Serif" font-size="10.00" fill="#000000">Ogre::GLES2TextureBuffer</text>
</a>
</g>
</g>
<!-- Node17&#45;&gt;Node19 -->
<g id="edge19" class="edge">
<title>Node17&#45;&gt;Node19</title>
<path fill="none" stroke="#191970" d="M780.8719,-487.4144C791.5419,-486.401 802.3966,-485.3702 812.8198,-484.3802"/>
<polygon fill="#191970" stroke="#191970" points="780.3429,-483.9488 770.7186,-488.3787 781.0048,-490.9174 780.3429,-483.9488"/>
</g>
<!-- Node21 -->
<g id="node22" class="node">
<title>Node21</title>
<g id="a_node22"><a xlink:href="class_ogre_1_1_g_l_render_buffer.html" target="_top" xlink:title="Renderbuffer surface. ">
<polygon fill="none" stroke="#000000" points="823,-430.5 823,-449.5 937,-449.5 937,-430.5 823,-430.5"/>
<text text-anchor="middle" x="880" y="-437.5" font-family="Helvetica,sans-Serif" font-size="10.00" fill="#000000">Ogre::GLRenderBuffer</text>
</a>
</g>
</g>
<!-- Node20&#45;&gt;Node21 -->
<g id="edge21" class="edge">
<title>Node20&#45;&gt;Node21</title>
<path fill="none" stroke="#191970" d="M784.4204,-440C797.4056,-440 810.5623,-440 822.7903,-440"/>
<polygon fill="#191970" stroke="#191970" points="784.0644,-436.5001 774.0643,-440 784.0643,-443.5001 784.0644,-436.5001"/>
</g>
<!-- Node22 -->
<g id="node23" class="node">
<title>Node22</title>
<g id="a_node23"><a xlink:href="class_ogre_1_1_g_l_texture_buffer.html" target="_top" xlink:title="Texture surface. ">
<polygon fill="none" stroke="#000000" points="822,-392.5 822,-411.5 938,-411.5 938,-392.5 822,-392.5"/>
<text text-anchor="middle" x="880" y="-399.5" font-family="Helvetica,sans-Serif" font-size="10.00" fill="#000000">Ogre::GLTextureBuffer</text>
</a>
</g>
</g>
<!-- Node20&#45;&gt;Node22 -->
<g id="edge22" class="edge">
<title>Node20&#45;&gt;Node22</title>
<path fill="none" stroke="#191970" d="M756.0236,-428.319C781.4082,-422.9301 811.1607,-416.6139 835.1556,-411.5201"/>
<polygon fill="#191970" stroke="#191970" points="755.2244,-424.9106 746.1693,-430.411 756.6781,-431.758 755.2244,-424.9106"/>
</g>
<!-- Node24 -->
<g id="node25" class="node">
<title>Node24</title>
<g id="a_node25"><a xlink:href="class_ogre_1_1_d3_d11_hardware_uniform_buffer.html" target="_top" xlink:title="Specialisation of HardwareBuffer for D3D11. ">
<polygon fill="none" stroke="#000000" points="436,-431 436,-461 587,-461 587,-431 436,-431"/>
<text text-anchor="start" x="444" y="-449" font-family="Helvetica,sans-Serif" font-size="10.00" fill="#000000">Ogre::D3D11HardwareUniform</text>
<text text-anchor="middle" x="511.5" y="-438" font-family="Helvetica,sans-Serif" font-size="10.00" fill="#000000">Buffer</text>
</a>
</g>
</g>
<!-- Node23&#45;&gt;Node24 -->
<g id="edge24" class="edge">
<title>Node23&#45;&gt;Node24</title>
<path fill="none" stroke="#191970" d="M368.8018,-409.1018C394.3502,-415.708 426.214,-423.9471 453.3468,-430.963"/>
<polygon fill="#191970" stroke="#191970" points="369.5452,-405.679 358.9874,-406.564 367.7927,-412.4561 369.5452,-405.679"/>
</g>
<!-- Node25 -->
<g id="node26" class="node">
<title>Node25</title>
<g id="a_node26"><a xlink:href="class_ogre_1_1_default_hardware_uniform_buffer.html" target="_top" xlink:title="Specialisation of HardwareUniformBuffer for emulation. ">
<polygon fill="none" stroke="#000000" points="435.5,-382 435.5,-412 587.5,-412 587.5,-382 435.5,-382"/>
<text text-anchor="start" x="443.5" y="-400" font-family="Helvetica,sans-Serif" font-size="10.00" fill="#000000">Ogre::DefaultHardwareUniform</text>
<text text-anchor="middle" x="511.5" y="-389" font-family="Helvetica,sans-Serif" font-size="10.00" fill="#000000">Buffer</text>
</a>
</g>
</g>
<!-- Node23&#45;&gt;Node25 -->
<g id="edge25" class="edge">
<title>Node23&#45;&gt;Node25</title>
<path fill="none" stroke="#191970" d="M405.5127,-397C415.4213,-397 425.4961,-397 435.2955,-397"/>
<polygon fill="#191970" stroke="#191970" points="405.2657,-393.5001 395.2656,-397 405.2656,-400.5001 405.2657,-393.5001"/>
</g>
<!-- Node26 -->
<g id="node27" class="node">
<title>Node26</title>
<g id="a_node27"><a xlink:href="class_ogre_1_1_g_l3_plus_hardware_uniform_buffer.html" target="_top" xlink:title="Specialisation of HardwareUniformBuffer for OpenGL. ">
<polygon fill="none" stroke="#000000" points="432.5,-333 432.5,-363 590.5,-363 590.5,-333 432.5,-333"/>
<text text-anchor="start" x="440.5" y="-351" font-family="Helvetica,sans-Serif" font-size="10.00" fill="#000000">Ogre::GL3PlusHardwareUniform</text>
<text text-anchor="middle" x="511.5" y="-340" font-family="Helvetica,sans-Serif" font-size="10.00" fill="#000000">Buffer</text>
</a>
</g>
</g>
<!-- Node23&#45;&gt;Node26 -->
<g id="edge26" class="edge">
<title>Node23&#45;&gt;Node26</title>
<path fill="none" stroke="#191970" d="M368.8018,-384.8982C394.3502,-378.292 426.214,-370.0529 453.3468,-363.037"/>
<polygon fill="#191970" stroke="#191970" points="367.7927,-381.5439 358.9874,-387.436 369.5452,-388.321 367.7927,-381.5439"/>
</g>
<!-- Node27 -->
<g id="node28" class="node">
<title>Node27</title>
<g id="a_node28"><a xlink:href="class_ogre_1_1_g_l_e_s2_hardware_uniform_buffer.html" target="_top" xlink:title="Specialisation of HardwareUniformBuffer for OpenGL. ">
<polygon fill="none" stroke="#000000" points="435.5,-284 435.5,-314 587.5,-314 587.5,-284 435.5,-284"/>
<text text-anchor="start" x="443.5" y="-302" font-family="Helvetica,sans-Serif" font-size="10.00" fill="#000000">Ogre::GLES2HardwareUniform</text>
<text text-anchor="middle" x="511.5" y="-291" font-family="Helvetica,sans-Serif" font-size="10.00" fill="#000000">Buffer</text>
</a>
</g>
</g>
<!-- Node23&#45;&gt;Node27 -->
<g id="edge27" class="edge">
<title>Node23&#45;&gt;Node27</title>
<path fill="none" stroke="#191970" d="M341.5237,-381.0035C362.5108,-364.4873 397.4011,-338.9445 431,-323 437.9829,-319.6862 445.5248,-316.7159 453.095,-314.0888"/>
<polygon fill="#191970" stroke="#191970" points="339.3102,-378.292 333.6806,-387.2674 343.6786,-383.7617 339.3102,-378.292"/>
</g>
<!-- Node29 -->
<g id="node30" class="node">
<title>Node29</title>
<g id="a_node30"><a xlink:href="class_ogre_1_1_d3_d11_hardware_vertex_buffer.html" target="_top" xlink:title="Specialisation of HardwareVertexBuffer for D3D11. ">
<polygon fill="none" stroke="#000000" points="439,-235 439,-265 584,-265 584,-235 439,-235"/>
<text text-anchor="start" x="447" y="-253" font-family="Helvetica,sans-Serif" font-size="10.00" fill="#000000">Ogre::D3D11HardwareVertex</text>
<text text-anchor="middle" x="511.5" y="-242" font-family="Helvetica,sans-Serif" font-size="10.00" fill="#000000">Buffer</text>
</a>
</g>
</g>
<!-- Node28&#45;&gt;Node29 -->
<g id="edge29" class="edge">
<title>Node28&#45;&gt;Node29</title>
<path fill="none" stroke="#191970" d="M341.8782,-167.9043C362.9548,-184.127 397.7325,-209.1094 431,-225 438.791,-228.7214 447.2666,-232.0554 455.6975,-234.9829"/>
<polygon fill="#191970" stroke="#191970" points="343.7643,-164.9364 333.7286,-161.54 339.4559,-170.4534 343.7643,-164.9364"/>
</g>
<!-- Node30 -->
<g id="node31" class="node">
<title>Node30</title>
<g id="a_node31"><a xlink:href="class_ogre_1_1_d3_d9_hardware_vertex_buffer.html" target="_top" xlink:title="Specialisation of HardwareVertexBuffer for D3D9. ">
<polygon fill="none" stroke="#000000" points="441.5,-186 441.5,-216 581.5,-216 581.5,-186 441.5,-186"/>
<text text-anchor="start" x="449.5" y="-204" font-family="Helvetica,sans-Serif" font-size="10.00" fill="#000000">Ogre::D3D9HardwareVertex</text>
<text text-anchor="middle" x="511.5" y="-193" font-family="Helvetica,sans-Serif" font-size="10.00" fill="#000000">Buffer</text>
</a>
</g>
</g>
<!-- Node28&#45;&gt;Node30 -->
<g id="edge30" class="edge">
<title>Node28&#45;&gt;Node30</title>
<path fill="none" stroke="#191970" d="M368.8018,-164.1018C394.3502,-170.708 426.214,-178.9471 453.3468,-185.963"/>
<polygon fill="#191970" stroke="#191970" points="369.5452,-160.679 358.9874,-161.564 367.7927,-167.4561 369.5452,-160.679"/>
</g>
<!-- Node31 -->
<g id="node32" class="node">
<title>Node31</title>
<g id="a_node32"><a xlink:href="class_ogre_1_1_default_hardware_vertex_buffer.html" target="_top" xlink:title="Specialisation of HardwareVertexBuffer for emulation. ">
<polygon fill="none" stroke="#000000" points="438.5,-137 438.5,-167 584.5,-167 584.5,-137 438.5,-137"/>
<text text-anchor="start" x="446.5" y="-155" font-family="Helvetica,sans-Serif" font-size="10.00" fill="#000000">Ogre::DefaultHardwareVertex</text>
<text text-anchor="middle" x="511.5" y="-144" font-family="Helvetica,sans-Serif" font-size="10.00" fill="#000000">Buffer</text>
</a>
</g>
</g>
<!-- Node28&#45;&gt;Node31 -->
<g id="edge31" class="edge">
<title>Node28&#45;&gt;Node31</title>
<path fill="none" stroke="#191970" d="M402.03,-152C414.053,-152 426.4001,-152 438.2714,-152"/>
<polygon fill="#191970" stroke="#191970" points="402.0244,-148.5001 392.0244,-152 402.0244,-155.5001 402.0244,-148.5001"/>
</g>
<!-- Node32 -->
<g id="node33" class="node">
<title>Node32</title>
<g id="a_node33"><a xlink:href="class_ogre_1_1_g_l3_plus_hardware_vertex_buffer.html" target="_top" xlink:title="Specialisation of HardwareVertexBuffer for OpenGL. ">
<polygon fill="none" stroke="#000000" points="435.5,-88 435.5,-118 587.5,-118 587.5,-88 435.5,-88"/>
<text text-anchor="start" x="443.5" y="-106" font-family="Helvetica,sans-Serif" font-size="10.00" fill="#000000">Ogre::GL3PlusHardwareVertex</text>
<text text-anchor="middle" x="511.5" y="-95" font-family="Helvetica,sans-Serif" font-size="10.00" fill="#000000">Buffer</text>
</a>
</g>
</g>
<!-- Node28&#45;&gt;Node32 -->
<g id="edge32" class="edge">
<title>Node28&#45;&gt;Node32</title>
<path fill="none" stroke="#191970" d="M368.8018,-139.8982C394.3502,-133.292 426.214,-125.0529 453.3468,-118.037"/>
<polygon fill="#191970" stroke="#191970" points="367.7927,-136.5439 358.9874,-142.436 369.5452,-143.321 367.7927,-136.5439"/>
</g>
<!-- Node33 -->
<g id="node34" class="node">
<title>Node33</title>
<g id="a_node34"><a xlink:href="class_ogre_1_1_g_l_e_s2_hardware_vertex_buffer.html" target="_top" xlink:title="Specialisation of HardwareVertexBuffer for OpenGL ES. ">
<polygon fill="none" stroke="#000000" points="438.5,-39 438.5,-69 584.5,-69 584.5,-39 438.5,-39"/>
<text text-anchor="start" x="446.5" y="-57" font-family="Helvetica,sans-Serif" font-size="10.00" fill="#000000">Ogre::GLES2HardwareVertex</text>
<text text-anchor="middle" x="511.5" y="-46" font-family="Helvetica,sans-Serif" font-size="10.00" fill="#000000">Buffer</text>
</a>
</g>
</g>
<!-- Node28&#45;&gt;Node33 -->
<g id="edge33" class="edge">
<title>Node28&#45;&gt;Node33</title>
<path fill="none" stroke="#191970" d="M341.5237,-136.0035C362.5108,-119.4873 397.4011,-93.9445 431,-78 437.9829,-74.6862 445.5248,-71.7159 453.095,-69.0888"/>
<polygon fill="#191970" stroke="#191970" points="339.3102,-133.292 333.6806,-142.2674 343.6786,-138.7617 339.3102,-133.292"/>
</g>
<!-- Node34 -->
<g id="node35" class="node">
<title>Node34</title>
<g id="a_node35"><a xlink:href="class_ogre_1_1_g_l_hardware_vertex_buffer.html" target="_top" xlink:title="Specialisation of HardwareVertexBuffer for OpenGL. ">
<polygon fill="none" stroke="#000000" points="435,-.5 435,-19.5 588,-19.5 588,-.5 435,-.5"/>
<text text-anchor="middle" x="511.5" y="-7.5" font-family="Helvetica,sans-Serif" font-size="10.00" fill="#000000">Ogre::GLHardwareVertexBuffer</text>
</a>
</g>
</g>
<!-- Node28&#45;&gt;Node34 -->
<g id="edge34" class="edge">
<title>Node28&#45;&gt;Node34</title>
<path fill="none" stroke="#191970" d="M333.0013,-133.6031C350.3021,-106.3411 386.5264,-55.5819 431,-29 437.5327,-25.0954 444.8108,-21.9932 452.2457,-19.5285"/>
<polygon fill="#191970" stroke="#191970" points="329.9747,-131.8427 327.6884,-142.1879 335.9271,-135.5264 329.9747,-131.8427"/>
</g>
</g>
</svg>
