<?xml version="1.0" encoding="UTF-8" standalone="no"?>
<!DOCTYPE svg PUBLIC "-//W3C//DTD SVG 1.1//EN"
 "http://www.w3.org/Graphics/SVG/1.1/DTD/svg11.dtd">
<!-- Generated by graphviz version 2.40.1 (20161225.0304)
 -->
<!-- Title: Ogre::RTShader::SubRenderStateFactory Pages: 1 -->
<svg width="505pt" height="656pt"
 viewBox="0.00 0.00 505.00 656.00" xmlns="http://www.w3.org/2000/svg" xmlns:xlink="http://www.w3.org/1999/xlink">
<g id="graph0" class="graph" transform="scale(1 1) rotate(0) translate(4 652)">
<title>Ogre::RTShader::SubRenderStateFactory</title>
<!-- Node0 -->
<g id="node1" class="node">
<title>Node0</title>
<polygon fill="#bfbfbf" stroke="#000000" points="152,-316.5 152,-346.5 295,-346.5 295,-316.5 152,-316.5"/>
<text text-anchor="start" x="160" y="-334.5" font-family="Helvetica,sans-Serif" font-size="10.00" fill="#000000">Ogre::RTShader::SubRender</text>
<text text-anchor="middle" x="223.5" y="-323.5" font-family="Helvetica,sans-Serif" font-size="10.00" fill="#000000">StateFactory</text>
</g>
<!-- Node2 -->
<g id="node3" class="node">
<title>Node2</title>
<g id="a_node3"><a xlink:href="class_ogre_1_1_r_t_shader_1_1_f_f_p_alpha_test_factory.html" target="_top" xlink:title="Ogre::RTShader::FFPAlpha\lTestFactory">
<polygon fill="none" stroke="#000000" points="345.5,-617.5 345.5,-647.5 482.5,-647.5 482.5,-617.5 345.5,-617.5"/>
<text text-anchor="start" x="353.5" y="-635.5" font-family="Helvetica,sans-Serif" font-size="10.00" fill="#000000">Ogre::RTShader::FFPAlpha</text>
<text text-anchor="middle" x="414" y="-624.5" font-family="Helvetica,sans-Serif" font-size="10.00" fill="#000000">TestFactory</text>
</a>
</g>
</g>
<!-- Node0&#45;&gt;Node2 -->
<g id="edge2" class="edge">
<title>Node0&#45;&gt;Node2</title>
<path fill="none" stroke="#191970" d="M225.9164,-356.8188C232.4699,-411.1201 255.5183,-539.4342 331,-608.5 335.3159,-612.4491 340.2432,-615.7519 345.4953,-618.5138"/>
<polygon fill="#191970" stroke="#191970" points="229.3739,-356.2427 224.7851,-346.6932 222.4172,-357.0201 229.3739,-356.2427"/>
</g>
<!-- Node3 -->
<g id="node4" class="node">
<title>Node3</title>
<g id="a_node4"><a xlink:href="class_ogre_1_1_r_t_shader_1_1_f_f_p_colour_factory.html" target="_top" xlink:title="A factory that enables creation of FFPColour instances. ">
<polygon fill="none" stroke="#000000" points="343.5,-568.5 343.5,-598.5 484.5,-598.5 484.5,-568.5 343.5,-568.5"/>
<text text-anchor="start" x="351.5" y="-586.5" font-family="Helvetica,sans-Serif" font-size="10.00" fill="#000000">Ogre::RTShader::FFPColour</text>
<text text-anchor="middle" x="414" y="-575.5" font-family="Helvetica,sans-Serif" font-size="10.00" fill="#000000">Factory</text>
</a>
</g>
</g>
<!-- Node0&#45;&gt;Node3 -->
<g id="edge3" class="edge">
<title>Node0&#45;&gt;Node3</title>
<path fill="none" stroke="#191970" d="M228.316,-356.3619C238.6491,-402.9805 267.3705,-503.749 331,-558.5 335.4489,-562.3281 340.4686,-565.5701 345.7819,-568.3156"/>
<polygon fill="#191970" stroke="#191970" points="231.7237,-355.5591 226.2282,-346.5009 224.8755,-357.009 231.7237,-355.5591"/>
</g>
<!-- Node4 -->
<g id="node5" class="node">
<title>Node4</title>
<g id="a_node5"><a xlink:href="class_ogre_1_1_r_t_shader_1_1_f_f_p_fog_factory.html" target="_top" xlink:title="A factory that enables creation of FFPFog instances. ">
<polygon fill="none" stroke="#000000" points="333,-530 333,-549 495,-549 495,-530 333,-530"/>
<text text-anchor="middle" x="414" y="-537" font-family="Helvetica,sans-Serif" font-size="10.00" fill="#000000">Ogre::RTShader::FFPFogFactory</text>
</a>
</g>
</g>
<!-- Node0&#45;&gt;Node4 -->
<g id="edge4" class="edge">
<title>Node0&#45;&gt;Node4</title>
<path fill="none" stroke="#191970" d="M230.4253,-356.2778C243.1885,-397.1705 274.4296,-478.4386 331,-520.5 336.2196,-524.3809 342.0969,-527.489 348.2516,-529.9753"/>
<polygon fill="#191970" stroke="#191970" points="233.7377,-355.1388 227.5078,-346.5691 227.0338,-357.1534 233.7377,-355.1388"/>
</g>
<!-- Node5 -->
<g id="node6" class="node">
<title>Node5</title>
<g id="a_node6"><a xlink:href="class_ogre_1_1_r_t_shader_1_1_f_f_p_lighting_factory.html" target="_top" xlink:title="A factory that enables creation of FFPLighting instances. ">
<polygon fill="none" stroke="#000000" points="341,-480.5 341,-510.5 487,-510.5 487,-480.5 341,-480.5"/>
<text text-anchor="start" x="349" y="-498.5" font-family="Helvetica,sans-Serif" font-size="10.00" fill="#000000">Ogre::RTShader::FFPLighting</text>
<text text-anchor="middle" x="414" y="-487.5" font-family="Helvetica,sans-Serif" font-size="10.00" fill="#000000">Factory</text>
</a>
</g>
</g>
<!-- Node0&#45;&gt;Node5 -->
<g id="edge5" class="edge">
<title>Node0&#45;&gt;Node5</title>
<path fill="none" stroke="#191970" d="M235.6986,-355.6511C252.7684,-387.0101 286.7243,-441.2924 331,-471.5 336.0803,-474.9661 341.6622,-477.9375 347.4548,-480.4839"/>
<polygon fill="#191970" stroke="#191970" points="238.7308,-353.8984 230.9505,-346.7069 232.548,-357.1806 238.7308,-353.8984"/>
</g>
<!-- Node6 -->
<g id="node7" class="node">
<title>Node6</title>
<g id="a_node7"><a xlink:href="class_ogre_1_1_r_t_shader_1_1_f_f_p_texturing_factory.html" target="_top" xlink:title="A factory that enables creation of FFPTexturing instances. ">
<polygon fill="none" stroke="#000000" points="337.5,-431.5 337.5,-461.5 490.5,-461.5 490.5,-431.5 337.5,-431.5"/>
<text text-anchor="start" x="345.5" y="-449.5" font-family="Helvetica,sans-Serif" font-size="10.00" fill="#000000">Ogre::RTShader::FFPTexturing</text>
<text text-anchor="middle" x="414" y="-438.5" font-family="Helvetica,sans-Serif" font-size="10.00" fill="#000000">Factory</text>
</a>
</g>
</g>
<!-- Node0&#45;&gt;Node6 -->
<g id="edge6" class="edge">
<title>Node0&#45;&gt;Node6</title>
<path fill="none" stroke="#191970" d="M244.4795,-354.0355C264.7883,-374.6073 297.365,-404.4742 331,-422.5 337.3461,-425.901 344.2304,-428.8704 351.228,-431.4505"/>
<polygon fill="#191970" stroke="#191970" points="246.7935,-351.3941 237.32,-346.6503 241.7675,-356.2664 246.7935,-351.3941"/>
</g>
<!-- Node7 -->
<g id="node8" class="node">
<title>Node7</title>
<g id="a_node8"><a xlink:href="class_ogre_1_1_r_t_shader_1_1_f_f_p_transform_factory.html" target="_top" xlink:title="A factory that enables creation of FFPTransform instances. ">
<polygon fill="none" stroke="#000000" points="335.5,-382.5 335.5,-412.5 492.5,-412.5 492.5,-382.5 335.5,-382.5"/>
<text text-anchor="start" x="343.5" y="-400.5" font-family="Helvetica,sans-Serif" font-size="10.00" fill="#000000">Ogre::RTShader::FFPTransform</text>
<text text-anchor="middle" x="414" y="-389.5" font-family="Helvetica,sans-Serif" font-size="10.00" fill="#000000">Factory</text>
</a>
</g>
</g>
<!-- Node0&#45;&gt;Node7 -->
<g id="edge7" class="edge">
<title>Node0&#45;&gt;Node7</title>
<path fill="none" stroke="#191970" d="M270.5451,-350.2819C289.2514,-357.5294 311.0357,-365.696 331,-372.5 340.9713,-375.8983 351.6952,-379.3073 362.0147,-382.4672"/>
<polygon fill="#191970" stroke="#191970" points="271.6577,-346.9591 261.0694,-346.5877 269.1151,-353.481 271.6577,-346.9591"/>
</g>
<!-- Node8 -->
<g id="node9" class="node">
<title>Node8</title>
<g id="a_node9"><a xlink:href="class_ogre_1_1_r_t_shader_1_1_g_buffer_factory.html" target="_top" xlink:title="A factory that enables creation of GBuffer instances. ">
<polygon fill="none" stroke="#000000" points="333.5,-344 333.5,-363 494.5,-363 494.5,-344 333.5,-344"/>
<text text-anchor="middle" x="414" y="-351" font-family="Helvetica,sans-Serif" font-size="10.00" fill="#000000">Ogre::RTShader::GBufferFactory</text>
</a>
</g>
</g>
<!-- Node0&#45;&gt;Node8 -->
<g id="edge8" class="edge">
<title>Node0&#45;&gt;Node8</title>
<path fill="none" stroke="#191970" d="M305.2695,-340.9432C314.5841,-342.0189 324.0742,-343.1149 333.3737,-344.1888"/>
<polygon fill="#191970" stroke="#191970" points="305.584,-337.4563 295.2484,-339.7859 304.7808,-344.4101 305.584,-337.4563"/>
</g>
<!-- Node9 -->
<g id="node10" class="node">
<title>Node9</title>
<g id="a_node10"><a xlink:href="class_ogre_1_1_r_t_shader_1_1_hardware_skinning_factory.html" target="_top" xlink:title="A factory that enables creation of HardwareSkinning instances. ">
<polygon fill="none" stroke="#000000" points="346,-294.5 346,-324.5 482,-324.5 482,-294.5 346,-294.5"/>
<text text-anchor="start" x="354" y="-312.5" font-family="Helvetica,sans-Serif" font-size="10.00" fill="#000000">Ogre::RTShader::Hardware</text>
<text text-anchor="middle" x="414" y="-301.5" font-family="Helvetica,sans-Serif" font-size="10.00" fill="#000000">SkinningFactory</text>
</a>
</g>
</g>
<!-- Node0&#45;&gt;Node9 -->
<g id="edge9" class="edge">
<title>Node0&#45;&gt;Node9</title>
<path fill="none" stroke="#191970" d="M305.4459,-322.0364C318.8969,-320.483 332.709,-318.8879 345.7805,-317.3784"/>
<polygon fill="#191970" stroke="#191970" points="304.7808,-318.5899 295.2484,-323.2141 305.584,-325.5437 304.7808,-318.5899"/>
</g>
<!-- Node10 -->
<g id="node11" class="node">
<title>Node10</title>
<g id="a_node11"><a xlink:href="class_ogre_1_1_r_t_shader_1_1_integrated_p_s_s_m3_factory.html" target="_top" xlink:title="A factory that enables creation of IntegratedPSSM3 instances. ">
<polygon fill="none" stroke="#000000" points="345.5,-245.5 345.5,-275.5 482.5,-275.5 482.5,-245.5 345.5,-245.5"/>
<text text-anchor="start" x="353.5" y="-263.5" font-family="Helvetica,sans-Serif" font-size="10.00" fill="#000000">Ogre::RTShader::Integrated</text>
<text text-anchor="middle" x="414" y="-252.5" font-family="Helvetica,sans-Serif" font-size="10.00" fill="#000000">PSSM3Factory</text>
</a>
</g>
</g>
<!-- Node0&#45;&gt;Node10 -->
<g id="edge10" class="edge">
<title>Node0&#45;&gt;Node10</title>
<path fill="none" stroke="#191970" d="M264.4025,-312.1138C284.2589,-303.0916 308.6112,-292.592 331,-284.5 339.7463,-281.3388 349.1244,-278.3011 358.3154,-275.5125"/>
<polygon fill="#191970" stroke="#191970" points="262.6739,-309.056 255.0443,-316.4072 265.5929,-315.4184 262.6739,-309.056"/>
</g>
<!-- Node11 -->
<g id="node12" class="node">
<title>Node11</title>
<g id="a_node12"><a xlink:href="class_ogre_1_1_r_t_shader_1_1_layered_blending_factory.html" target="_top" xlink:title="A factory that enables creation of LayeredBlending instances. ">
<polygon fill="none" stroke="#000000" points="331,-196.5 331,-226.5 497,-226.5 497,-196.5 331,-196.5"/>
<text text-anchor="start" x="339" y="-214.5" font-family="Helvetica,sans-Serif" font-size="10.00" fill="#000000">Ogre::RTShader::LayeredBlending</text>
<text text-anchor="middle" x="414" y="-203.5" font-family="Helvetica,sans-Serif" font-size="10.00" fill="#000000">Factory</text>
</a>
</g>
</g>
<!-- Node0&#45;&gt;Node11 -->
<g id="edge11" class="edge">
<title>Node0&#45;&gt;Node11</title>
<path fill="none" stroke="#191970" d="M243.288,-308.6974C263.343,-286.9341 296.2882,-254.6988 331,-235.5 337.1693,-232.0878 343.8709,-229.1196 350.7015,-226.5473"/>
<polygon fill="#191970" stroke="#191970" points="240.6159,-306.434 236.5031,-316.1981 245.8072,-311.1299 240.6159,-306.434"/>
</g>
<!-- Node12 -->
<g id="node13" class="node">
<title>Node12</title>
<g id="a_node13"><a xlink:href="class_ogre_1_1_r_t_shader_1_1_normal_map_lighting_factory.html" target="_top" xlink:title="A factory that enables creation of NormalMapLighting instances. ">
<polygon fill="none" stroke="#000000" points="342,-147.5 342,-177.5 486,-177.5 486,-147.5 342,-147.5"/>
<text text-anchor="start" x="350" y="-165.5" font-family="Helvetica,sans-Serif" font-size="10.00" fill="#000000">Ogre::RTShader::NormalMap</text>
<text text-anchor="middle" x="414" y="-154.5" font-family="Helvetica,sans-Serif" font-size="10.00" fill="#000000">LightingFactory</text>
</a>
</g>
</g>
<!-- Node0&#45;&gt;Node12 -->
<g id="edge12" class="edge">
<title>Node0&#45;&gt;Node12</title>
<path fill="none" stroke="#191970" d="M235.216,-306.9849C251.9514,-274.5812 285.7521,-217.9336 331,-186.5 335.9277,-183.0768 341.3418,-180.1374 346.9701,-177.6142"/>
<polygon fill="#191970" stroke="#191970" points="231.9435,-305.7019 230.5763,-316.2081 238.1969,-308.8476 231.9435,-305.7019"/>
</g>
<!-- Node13 -->
<g id="node14" class="node">
<title>Node13</title>
<g id="a_node14"><a xlink:href="class_ogre_1_1_r_t_shader_1_1_per_pixel_lighting_factory.html" target="_top" xlink:title="A factory that enables creation of PerPixelLighting instances. ">
<polygon fill="none" stroke="#000000" points="348.5,-98.5 348.5,-128.5 479.5,-128.5 479.5,-98.5 348.5,-98.5"/>
<text text-anchor="start" x="356.5" y="-116.5" font-family="Helvetica,sans-Serif" font-size="10.00" fill="#000000">Ogre::RTShader::PerPixel</text>
<text text-anchor="middle" x="414" y="-105.5" font-family="Helvetica,sans-Serif" font-size="10.00" fill="#000000">LightingFactory</text>
</a>
</g>
</g>
<!-- Node0&#45;&gt;Node13 -->
<g id="edge13" class="edge">
<title>Node0&#45;&gt;Node13</title>
<path fill="none" stroke="#191970" d="M230.5017,-306.4303C243.3769,-264.9881 274.7778,-182.3299 331,-137.5 336.1604,-133.3853 341.9987,-129.976 348.1297,-127.1512"/>
<polygon fill="#191970" stroke="#191970" points="227.0729,-305.6799 227.5564,-316.2637 233.7786,-307.6884 227.0729,-305.6799"/>
</g>
<!-- Node14 -->
<g id="node15" class="node">
<title>Node14</title>
<g id="a_node15"><a xlink:href="class_ogre_1_1_r_t_shader_1_1_texture_atlas_sampler_factory.html" target="_top" xlink:title="A factory that enables creation of TextureAtlasSampler instances. ">
<polygon fill="none" stroke="#000000" points="339.5,-49.5 339.5,-79.5 488.5,-79.5 488.5,-49.5 339.5,-49.5"/>
<text text-anchor="start" x="347.5" y="-67.5" font-family="Helvetica,sans-Serif" font-size="10.00" fill="#000000">Ogre::RTShader::TextureAtlas</text>
<text text-anchor="middle" x="414" y="-56.5" font-family="Helvetica,sans-Serif" font-size="10.00" fill="#000000">SamplerFactory</text>
</a>
</g>
</g>
<!-- Node0&#45;&gt;Node14 -->
<g id="edge14" class="edge">
<title>Node0&#45;&gt;Node14</title>
<path fill="none" stroke="#191970" d="M227.4579,-306.2359C236.5299,-256.9078 263.4868,-147.4615 331,-88.5 334.9543,-85.0466 339.3788,-82.0888 344.071,-79.5558"/>
<polygon fill="#191970" stroke="#191970" points="223.9644,-305.8962 225.6967,-316.3485 230.8606,-307.0973 223.9644,-305.8962"/>
</g>
<!-- Node15 -->
<g id="node16" class="node">
<title>Node15</title>
<g id="a_node16"><a xlink:href="class_ogre_1_1_r_t_shader_1_1_triplanar_texturing_factory.html" target="_top" xlink:title="A factory that enables creation of TriplanarMapping instances. ">
<polygon fill="none" stroke="#000000" points="348.5,-.5 348.5,-30.5 479.5,-30.5 479.5,-.5 348.5,-.5"/>
<text text-anchor="start" x="356.5" y="-18.5" font-family="Helvetica,sans-Serif" font-size="10.00" fill="#000000">Ogre::RTShader::Triplanar</text>
<text text-anchor="middle" x="414" y="-7.5" font-family="Helvetica,sans-Serif" font-size="10.00" fill="#000000">TexturingFactory</text>
</a>
</g>
</g>
<!-- Node0&#45;&gt;Node15 -->
<g id="edge15" class="edge">
<title>Node0&#45;&gt;Node15</title>
<path fill="none" stroke="#191970" d="M225.3564,-305.9999C230.8601,-249.5068 252.0532,-113.0114 331,-39.5 336.0498,-34.7979 341.9647,-31.0107 348.2707,-27.9614"/>
<polygon fill="#191970" stroke="#191970" points="221.8499,-305.9192 224.4524,-316.1894 228.8225,-306.5378 221.8499,-305.9192"/>
</g>
<!-- Node1 -->
<g id="node2" class="node">
<title>Node1</title>
<g id="a_node2"><a xlink:href="class_ogre_1_1_allocated_object.html" target="_top" xlink:title="RTShaderSystemAlloc">
<polygon fill="none" stroke="#000000" points="0,-322 0,-341 116,-341 116,-322 0,-322"/>
<text text-anchor="middle" x="58" y="-329" font-family="Helvetica,sans-Serif" font-size="10.00" fill="#000000">RTShaderSystemAlloc</text>
</a>
</g>
</g>
<!-- Node1&#45;&gt;Node0 -->
<g id="edge1" class="edge">
<title>Node1&#45;&gt;Node0</title>
<path fill="none" stroke="#191970" d="M126.4232,-331.5C134.7836,-331.5 143.3452,-331.5 151.7525,-331.5"/>
<polygon fill="#191970" stroke="#191970" points="126.3491,-328.0001 116.3491,-331.5 126.3491,-335.0001 126.3491,-328.0001"/>
</g>
</g>
</svg>
