<?xml version="1.0" encoding="UTF-8" standalone="no"?>
<!DOCTYPE svg PUBLIC "-//W3C//DTD SVG 1.1//EN"
 "http://www.w3.org/Graphics/SVG/1.1/DTD/svg11.dtd">
<!-- Generated by graphviz version 2.40.1 (20161225.0304)
 -->
<!-- Title: Ogre::HardwareUniformBuffer Pages: 1 -->
<svg width="597pt" height="186pt"
 viewBox="0.00 0.00 597.00 186.00" xmlns="http://www.w3.org/2000/svg" xmlns:xlink="http://www.w3.org/1999/xlink">
<g id="graph0" class="graph" transform="scale(1 1) rotate(0) translate(4 182)">
<title>Ogre::HardwareUniformBuffer</title>
<!-- Node0 -->
<g id="node1" class="node">
<title>Node0</title>
<polygon fill="#bfbfbf" stroke="#000000" points="249,-79 249,-98 395,-98 395,-79 249,-79"/>
<text text-anchor="middle" x="322" y="-86" font-family="Helvetica,sans-Serif" font-size="10.00" fill="#000000">Ogre::HardwareUniformBuffer</text>
</g>
<!-- Node3 -->
<g id="node4" class="node">
<title>Node3</title>
<g id="a_node4"><a xlink:href="class_ogre_1_1_d3_d11_hardware_uniform_buffer.html" target="_top" xlink:title="Specialisation of HardwareBuffer for D3D11. ">
<polygon fill="none" stroke="#000000" points="434.5,-147.5 434.5,-177.5 585.5,-177.5 585.5,-147.5 434.5,-147.5"/>
<text text-anchor="start" x="442.5" y="-165.5" font-family="Helvetica,sans-Serif" font-size="10.00" fill="#000000">Ogre::D3D11HardwareUniform</text>
<text text-anchor="middle" x="510" y="-154.5" font-family="Helvetica,sans-Serif" font-size="10.00" fill="#000000">Buffer</text>
</a>
</g>
</g>
<!-- Node0&#45;&gt;Node3 -->
<g id="edge3" class="edge">
<title>Node0&#45;&gt;Node3</title>
<path fill="none" stroke="#191970" d="M349.966,-102.5989C371.725,-113.2559 402.8511,-127.824 431,-138.5 439.3096,-141.6516 448.228,-144.6843 456.9729,-147.471"/>
<polygon fill="#191970" stroke="#191970" points="351.4774,-99.4417 340.9616,-98.1499 348.3766,-105.7175 351.4774,-99.4417"/>
</g>
<!-- Node4 -->
<g id="node5" class="node">
<title>Node4</title>
<g id="a_node5"><a xlink:href="class_ogre_1_1_default_hardware_uniform_buffer.html" target="_top" xlink:title="Specialisation of HardwareUniformBuffer for emulation. ">
<polygon fill="none" stroke="#000000" points="434,-98.5 434,-128.5 586,-128.5 586,-98.5 434,-98.5"/>
<text text-anchor="start" x="442" y="-116.5" font-family="Helvetica,sans-Serif" font-size="10.00" fill="#000000">Ogre::DefaultHardwareUniform</text>
<text text-anchor="middle" x="510" y="-105.5" font-family="Helvetica,sans-Serif" font-size="10.00" fill="#000000">Buffer</text>
</a>
</g>
</g>
<!-- Node0&#45;&gt;Node4 -->
<g id="edge4" class="edge">
<title>Node0&#45;&gt;Node4</title>
<path fill="none" stroke="#191970" d="M403.5942,-99.3503C413.6593,-100.6887 423.9175,-102.0529 433.8963,-103.3798"/>
<polygon fill="#191970" stroke="#191970" points="403.9852,-95.8716 393.611,-98.0227 403.0624,-102.8105 403.9852,-95.8716"/>
</g>
<!-- Node5 -->
<g id="node6" class="node">
<title>Node5</title>
<g id="a_node6"><a xlink:href="class_ogre_1_1_g_l3_plus_hardware_uniform_buffer.html" target="_top" xlink:title="Specialisation of HardwareUniformBuffer for OpenGL. ">
<polygon fill="none" stroke="#000000" points="431,-49.5 431,-79.5 589,-79.5 589,-49.5 431,-49.5"/>
<text text-anchor="start" x="439" y="-67.5" font-family="Helvetica,sans-Serif" font-size="10.00" fill="#000000">Ogre::GL3PlusHardwareUniform</text>
<text text-anchor="middle" x="510" y="-56.5" font-family="Helvetica,sans-Serif" font-size="10.00" fill="#000000">Buffer</text>
</a>
</g>
</g>
<!-- Node0&#45;&gt;Node5 -->
<g id="edge5" class="edge">
<title>Node0&#45;&gt;Node5</title>
<path fill="none" stroke="#191970" d="M405.4209,-77.8505C413.8423,-76.7755 422.3784,-75.6857 430.7543,-74.6165"/>
<polygon fill="#191970" stroke="#191970" points="404.7003,-74.414 395.224,-79.1523 405.5868,-81.3577 404.7003,-74.414"/>
</g>
<!-- Node6 -->
<g id="node7" class="node">
<title>Node6</title>
<g id="a_node7"><a xlink:href="class_ogre_1_1_g_l_e_s2_hardware_uniform_buffer.html" target="_top" xlink:title="Specialisation of HardwareUniformBuffer for OpenGL. ">
<polygon fill="none" stroke="#000000" points="434,-.5 434,-30.5 586,-30.5 586,-.5 434,-.5"/>
<text text-anchor="start" x="442" y="-18.5" font-family="Helvetica,sans-Serif" font-size="10.00" fill="#000000">Ogre::GLES2HardwareUniform</text>
<text text-anchor="middle" x="510" y="-7.5" font-family="Helvetica,sans-Serif" font-size="10.00" fill="#000000">Buffer</text>
</a>
</g>
</g>
<!-- Node0&#45;&gt;Node6 -->
<g id="edge6" class="edge">
<title>Node0&#45;&gt;Node6</title>
<path fill="none" stroke="#191970" d="M350.3929,-74.5341C372.1494,-64.1283 403.0771,-49.969 431,-39.5 439.3216,-36.38 448.2461,-33.3636 456.9934,-30.5835"/>
<polygon fill="#191970" stroke="#191970" points="348.8627,-71.3862 341.3761,-78.883 351.9037,-77.6912 348.8627,-71.3862"/>
</g>
<!-- Node1 -->
<g id="node2" class="node">
<title>Node1</title>
<g id="a_node2"><a xlink:href="class_ogre_1_1_hardware_buffer.html" target="_top" xlink:title="Abstract class defining common features of hardware buffers. ">
<polygon fill="none" stroke="#000000" points="101,-79 101,-98 213,-98 213,-79 101,-79"/>
<text text-anchor="middle" x="157" y="-86" font-family="Helvetica,sans-Serif" font-size="10.00" fill="#000000">Ogre::HardwareBuffer</text>
</a>
</g>
</g>
<!-- Node1&#45;&gt;Node0 -->
<g id="edge1" class="edge">
<title>Node1&#45;&gt;Node0</title>
<path fill="none" stroke="#191970" d="M223.3611,-88.5C231.7042,-88.5 240.2765,-88.5 248.7184,-88.5"/>
<polygon fill="#191970" stroke="#191970" points="223.3222,-85.0001 213.3222,-88.5 223.3221,-92.0001 223.3222,-85.0001"/>
</g>
<!-- Node2 -->
<g id="node3" class="node">
<title>Node2</title>
<g id="a_node3"><a xlink:href="class_ogre_1_1_allocated_object.html" target="_top" xlink:title="BufferAlloc">
<polygon fill="none" stroke="#000000" points="0,-79 0,-98 65,-98 65,-79 0,-79"/>
<text text-anchor="middle" x="32.5" y="-86" font-family="Helvetica,sans-Serif" font-size="10.00" fill="#000000">BufferAlloc</text>
</a>
</g>
</g>
<!-- Node2&#45;&gt;Node1 -->
<g id="edge2" class="edge">
<title>Node2&#45;&gt;Node1</title>
<path fill="none" stroke="#191970" d="M75.3339,-88.5C83.5784,-88.5 92.3278,-88.5 100.9189,-88.5"/>
<polygon fill="#191970" stroke="#191970" points="75.2109,-85.0001 65.2109,-88.5 75.2109,-92.0001 75.2109,-85.0001"/>
</g>
</g>
</svg>
