<?xml version="1.0" encoding="UTF-8" standalone="no"?>
<!DOCTYPE svg PUBLIC "-//W3C//DTD SVG 1.1//EN"
 "http://www.w3.org/Graphics/SVG/1.1/DTD/svg11.dtd">
<!-- Generated by graphviz version 2.40.1 (20161225.0304)
 -->
<!-- Title: Ogre::Plugin Pages: 1 -->
<svg width="369pt" height="522pt"
 viewBox="0.00 0.00 369.00 522.00" xmlns="http://www.w3.org/2000/svg" xmlns:xlink="http://www.w3.org/1999/xlink">
<g id="graph0" class="graph" transform="scale(1 1) rotate(0) translate(4 518)">
<title>Ogre::Plugin</title>
<!-- Node0 -->
<g id="node1" class="node">
<title>Node0</title>
<polygon fill="#bfbfbf" stroke="#000000" points="101,-247.5 101,-266.5 172,-266.5 172,-247.5 101,-247.5"/>
<text text-anchor="middle" x="136.5" y="-254.5" font-family="Helvetica,sans-Serif" font-size="10.00" fill="#000000">Ogre::Plugin</text>
</g>
<!-- Node2 -->
<g id="node3" class="node">
<title>Node2</title>
<g id="a_node3"><a xlink:href="class_ogre_1_1_bsp_scene_manager_plugin.html" target="_top" xlink:title="Plugin instance for BSPSceneManager. ">
<polygon fill="none" stroke="#000000" points="208,-494.5 208,-513.5 361,-513.5 361,-494.5 208,-494.5"/>
<text text-anchor="middle" x="284.5" y="-501.5" font-family="Helvetica,sans-Serif" font-size="10.00" fill="#000000">Ogre::BspSceneManagerPlugin</text>
</a>
</g>
</g>
<!-- Node0&#45;&gt;Node2 -->
<g id="edge2" class="edge">
<title>Node0&#45;&gt;Node2</title>
<path fill="none" stroke="#191970" d="M140.1269,-276.7109C149.6833,-326.5628 176.9637,-455.7851 208,-485 212.0855,-488.8457 216.8245,-491.9469 221.9031,-494.4435"/>
<polygon fill="#191970" stroke="#191970" points="143.5116,-275.7712 138.223,-266.5908 136.6323,-277.0655 143.5116,-275.7712"/>
</g>
<!-- Node3 -->
<g id="node4" class="node">
<title>Node3</title>
<g id="a_node4"><a xlink:href="class_ogre_1_1_cg_plugin.html" target="_top" xlink:title="Plugin instance for Cg Program Manager. ">
<polygon fill="none" stroke="#000000" points="243,-456.5 243,-475.5 326,-475.5 326,-456.5 243,-456.5"/>
<text text-anchor="middle" x="284.5" y="-463.5" font-family="Helvetica,sans-Serif" font-size="10.00" fill="#000000">Ogre::CgPlugin</text>
</a>
</g>
</g>
<!-- Node0&#45;&gt;Node3 -->
<g id="edge3" class="edge">
<title>Node0&#45;&gt;Node3</title>
<path fill="none" stroke="#191970" d="M138.0128,-276.5751C142.0802,-315.1874 156.7162,-401.3672 208,-447 217.61,-455.5511 230.4769,-460.3842 242.9133,-463.0768"/>
<polygon fill="#191970" stroke="#191970" points="141.4979,-276.2511 137.0922,-266.6158 134.5276,-276.8955 141.4979,-276.2511"/>
</g>
<!-- Node4 -->
<g id="node5" class="node">
<title>Node4</title>
<g id="a_node5"><a xlink:href="class_ogre_1_1_d3_d11_plugin.html" target="_top" xlink:title="Plugin instance for D3D11 Manager. ">
<polygon fill="none" stroke="#000000" points="234,-418.5 234,-437.5 335,-437.5 335,-418.5 234,-418.5"/>
<text text-anchor="middle" x="284.5" y="-425.5" font-family="Helvetica,sans-Serif" font-size="10.00" fill="#000000">Ogre::D3D11Plugin</text>
</a>
</g>
</g>
<!-- Node0&#45;&gt;Node4 -->
<g id="edge4" class="edge">
<title>Node0&#45;&gt;Node4</title>
<path fill="none" stroke="#191970" d="M140.1006,-276.6566C147.1338,-309.2744 165.856,-374.4096 208,-409 215.4046,-415.0775 224.4796,-419.2519 233.7578,-422.1096"/>
<polygon fill="#191970" stroke="#191970" points="143.4778,-275.6962 138.0811,-266.5788 136.6142,-277.0716 143.4778,-275.6962"/>
</g>
<!-- Node5 -->
<g id="node6" class="node">
<title>Node5</title>
<g id="a_node6"><a xlink:href="class_ogre_1_1_d3_d9_plugin.html" target="_top" xlink:title="Plugin instance for D3D9 Manager. ">
<polygon fill="none" stroke="#000000" points="236.5,-380.5 236.5,-399.5 332.5,-399.5 332.5,-380.5 236.5,-380.5"/>
<text text-anchor="middle" x="284.5" y="-387.5" font-family="Helvetica,sans-Serif" font-size="10.00" fill="#000000">Ogre::D3D9Plugin</text>
</a>
</g>
</g>
<!-- Node0&#45;&gt;Node5 -->
<g id="edge5" class="edge">
<title>Node0&#45;&gt;Node5</title>
<path fill="none" stroke="#191970" d="M143.2158,-276.0844C153.2354,-301.7021 174.5791,-346.784 208,-371 216.3112,-377.0221 226.3185,-381.1464 236.3149,-383.968"/>
<polygon fill="#191970" stroke="#191970" points="146.4928,-274.8548 139.7172,-266.7097 139.9345,-277.3023 146.4928,-274.8548"/>
</g>
<!-- Node6 -->
<g id="node7" class="node">
<title>Node6</title>
<g id="a_node7"><a xlink:href="class_ogre_1_1_dot_scene_plugin.html" target="_top" xlink:title="Ogre::DotScenePlugin">
<polygon fill="none" stroke="#000000" points="227.5,-342.5 227.5,-361.5 341.5,-361.5 341.5,-342.5 227.5,-342.5"/>
<text text-anchor="middle" x="284.5" y="-349.5" font-family="Helvetica,sans-Serif" font-size="10.00" fill="#000000">Ogre::DotScenePlugin</text>
</a>
</g>
</g>
<!-- Node0&#45;&gt;Node6 -->
<g id="edge6" class="edge">
<title>Node0&#45;&gt;Node6</title>
<path fill="none" stroke="#191970" d="M148.5481,-274.838C161.2848,-292.2985 182.9718,-318.3467 208,-333 214.6134,-336.8719 221.994,-339.9591 229.4898,-342.4195"/>
<polygon fill="#191970" stroke="#191970" points="151.3579,-272.7493 142.7332,-266.5959 145.6382,-276.7847 151.3579,-272.7493"/>
</g>
<!-- Node7 -->
<g id="node8" class="node">
<title>Node7</title>
<g id="a_node8"><a xlink:href="class_ogre_1_1_free_image_plugin.html" target="_top" xlink:title="Ogre::FreeImagePlugin">
<polygon fill="none" stroke="#000000" points="226,-304.5 226,-323.5 343,-323.5 343,-304.5 226,-304.5"/>
<text text-anchor="middle" x="284.5" y="-311.5" font-family="Helvetica,sans-Serif" font-size="10.00" fill="#000000">Ogre::FreeImagePlugin</text>
</a>
</g>
</g>
<!-- Node0&#45;&gt;Node7 -->
<g id="edge7" class="edge">
<title>Node0&#45;&gt;Node7</title>
<path fill="none" stroke="#191970" d="M160.5763,-271.7047C174.1255,-279.4861 191.5755,-288.7055 208,-295 217.5839,-298.6729 228.1182,-301.8245 238.2236,-304.445"/>
<polygon fill="#191970" stroke="#191970" points="162.2758,-268.6439 151.8798,-266.601 158.7327,-274.6811 162.2758,-268.6439"/>
</g>
<!-- Node8 -->
<g id="node9" class="node">
<title>Node8</title>
<g id="a_node9"><a xlink:href="class_ogre_1_1_g_l3_plus_plugin.html" target="_top" xlink:title="Plugin instance for GL3Plus Manager. ">
<polygon fill="none" stroke="#000000" points="230.5,-266.5 230.5,-285.5 338.5,-285.5 338.5,-266.5 230.5,-266.5"/>
<text text-anchor="middle" x="284.5" y="-273.5" font-family="Helvetica,sans-Serif" font-size="10.00" fill="#000000">Ogre::GL3PlusPlugin</text>
</a>
</g>
</g>
<!-- Node0&#45;&gt;Node8 -->
<g id="edge8" class="edge">
<title>Node0&#45;&gt;Node8</title>
<path fill="none" stroke="#191970" d="M182.4645,-262.9008C197.5861,-264.8421 214.5406,-267.0187 230.2208,-269.0317"/>
<polygon fill="#191970" stroke="#191970" points="182.691,-259.4013 172.3267,-261.5994 181.7996,-266.3443 182.691,-259.4013"/>
</g>
<!-- Node9 -->
<g id="node10" class="node">
<title>Node9</title>
<g id="a_node10"><a xlink:href="class_ogre_1_1_g_l_e_s2_plugin.html" target="_top" xlink:title="Plugin instance for GL ES 2 Manager. ">
<polygon fill="none" stroke="#000000" points="233.5,-228.5 233.5,-247.5 335.5,-247.5 335.5,-228.5 233.5,-228.5"/>
<text text-anchor="middle" x="284.5" y="-235.5" font-family="Helvetica,sans-Serif" font-size="10.00" fill="#000000">Ogre::GLES2Plugin</text>
</a>
</g>
</g>
<!-- Node0&#45;&gt;Node9 -->
<g id="edge9" class="edge">
<title>Node0&#45;&gt;Node9</title>
<path fill="none" stroke="#191970" d="M182.5719,-251.0854C198.6755,-249.018 216.8469,-246.6852 233.3401,-244.5678"/>
<polygon fill="#191970" stroke="#191970" points="181.7996,-247.6557 172.3267,-252.4006 182.691,-254.5987 181.7996,-247.6557"/>
</g>
<!-- Node10 -->
<g id="node11" class="node">
<title>Node10</title>
<g id="a_node11"><a xlink:href="class_ogre_1_1_g_l_plugin.html" target="_top" xlink:title="Plugin instance for GL Manager. ">
<polygon fill="none" stroke="#000000" points="243,-190.5 243,-209.5 326,-209.5 326,-190.5 243,-190.5"/>
<text text-anchor="middle" x="284.5" y="-197.5" font-family="Helvetica,sans-Serif" font-size="10.00" fill="#000000">Ogre::GLPlugin</text>
</a>
</g>
</g>
<!-- Node0&#45;&gt;Node10 -->
<g id="edge10" class="edge">
<title>Node0&#45;&gt;Node10</title>
<path fill="none" stroke="#191970" d="M160.5763,-242.2953C174.1255,-234.5139 191.5755,-225.2945 208,-219 218.9895,-214.7884 231.2288,-211.2623 242.6379,-208.4363"/>
<polygon fill="#191970" stroke="#191970" points="158.7327,-239.3189 151.8798,-247.399 162.2758,-245.3561 158.7327,-239.3189"/>
</g>
<!-- Node11 -->
<g id="node12" class="node">
<title>Node11</title>
<g id="a_node12"><a xlink:href="class_ogre_1_1_octree_plugin.html" target="_top" xlink:title="Plugin instance for Octree Manager. ">
<polygon fill="none" stroke="#000000" points="234.5,-152.5 234.5,-171.5 334.5,-171.5 334.5,-152.5 234.5,-152.5"/>
<text text-anchor="middle" x="284.5" y="-159.5" font-family="Helvetica,sans-Serif" font-size="10.00" fill="#000000">Ogre::OctreePlugin</text>
</a>
</g>
</g>
<!-- Node0&#45;&gt;Node11 -->
<g id="edge11" class="edge">
<title>Node0&#45;&gt;Node11</title>
<path fill="none" stroke="#191970" d="M148.5481,-239.162C161.2848,-221.7015 182.9718,-195.6533 208,-181 216.0305,-176.2984 225.1924,-172.7539 234.318,-170.0836"/>
<polygon fill="#191970" stroke="#191970" points="145.6382,-237.2153 142.7332,-247.4041 151.3579,-241.2507 145.6382,-237.2153"/>
</g>
<!-- Node12 -->
<g id="node13" class="node">
<title>Node12</title>
<g id="a_node13"><a xlink:href="class_ogre_1_1_octree_zone_plugin.html" target="_top" xlink:title="Plugin instance for OctreeZone. ">
<polygon fill="none" stroke="#000000" points="223.5,-114.5 223.5,-133.5 345.5,-133.5 345.5,-114.5 223.5,-114.5"/>
<text text-anchor="middle" x="284.5" y="-121.5" font-family="Helvetica,sans-Serif" font-size="10.00" fill="#000000">Ogre::OctreeZonePlugin</text>
</a>
</g>
</g>
<!-- Node0&#45;&gt;Node12 -->
<g id="edge12" class="edge">
<title>Node0&#45;&gt;Node12</title>
<path fill="none" stroke="#191970" d="M143.2158,-237.9156C153.2354,-212.2979 174.5791,-167.216 208,-143 213.3191,-139.1459 219.3331,-136.0691 225.5942,-133.6136"/>
<polygon fill="#191970" stroke="#191970" points="139.9345,-236.6977 139.7172,-247.2903 146.4928,-239.1452 139.9345,-236.6977"/>
</g>
<!-- Node13 -->
<g id="node14" class="node">
<title>Node13</title>
<g id="a_node14"><a xlink:href="class_ogre_1_1_particle_f_x_plugin.html" target="_top" xlink:title="Plugin instance for ParticleFX Manager. ">
<polygon fill="none" stroke="#000000" points="226.5,-76.5 226.5,-95.5 342.5,-95.5 342.5,-76.5 226.5,-76.5"/>
<text text-anchor="middle" x="284.5" y="-83.5" font-family="Helvetica,sans-Serif" font-size="10.00" fill="#000000">Ogre::ParticleFXPlugin</text>
</a>
</g>
</g>
<!-- Node0&#45;&gt;Node13 -->
<g id="edge13" class="edge">
<title>Node0&#45;&gt;Node13</title>
<path fill="none" stroke="#191970" d="M140.1006,-237.3434C147.1338,-204.7256 165.856,-139.5904 208,-105 213.3948,-100.5721 219.6762,-97.1544 226.2769,-94.5201"/>
<polygon fill="#191970" stroke="#191970" points="136.6142,-236.9284 138.0811,-247.4212 143.4778,-238.3038 136.6142,-236.9284"/>
</g>
<!-- Node14 -->
<g id="node15" class="node">
<title>Node14</title>
<g id="a_node15"><a xlink:href="class_ogre_1_1_p_c_z_plugin.html" target="_top" xlink:title="Plugin instance for PCZ Manager. ">
<polygon fill="none" stroke="#000000" points="239,-38.5 239,-57.5 330,-57.5 330,-38.5 239,-38.5"/>
<text text-anchor="middle" x="284.5" y="-45.5" font-family="Helvetica,sans-Serif" font-size="10.00" fill="#000000">Ogre::PCZPlugin</text>
</a>
</g>
</g>
<!-- Node0&#45;&gt;Node14 -->
<g id="edge14" class="edge">
<title>Node0&#45;&gt;Node14</title>
<path fill="none" stroke="#191970" d="M138.0128,-237.4249C142.0802,-198.8126 156.7162,-112.6328 208,-67 216.5877,-59.3586 227.7762,-54.6862 238.934,-51.8571"/>
<polygon fill="#191970" stroke="#191970" points="134.5276,-237.1045 137.0922,-247.3842 141.4979,-237.7489 134.5276,-237.1045"/>
</g>
<!-- Node15 -->
<g id="node16" class="node">
<title>Node15</title>
<g id="a_node16"><a xlink:href="class_ogre_1_1_s_t_b_i_plugin.html" target="_top" xlink:title="Ogre::STBIPlugin">
<polygon fill="none" stroke="#000000" points="238,-.5 238,-19.5 331,-19.5 331,-.5 238,-.5"/>
<text text-anchor="middle" x="284.5" y="-7.5" font-family="Helvetica,sans-Serif" font-size="10.00" fill="#000000">Ogre::STBIPlugin</text>
</a>
</g>
</g>
<!-- Node0&#45;&gt;Node15 -->
<g id="edge15" class="edge">
<title>Node0&#45;&gt;Node15</title>
<path fill="none" stroke="#191970" d="M140.1269,-237.2891C149.6833,-187.4372 176.9637,-58.2149 208,-29 216.1709,-21.3086 226.9563,-16.5951 237.8428,-13.7409"/>
<polygon fill="#191970" stroke="#191970" points="136.6323,-236.9345 138.223,-247.4092 143.5116,-238.2288 136.6323,-236.9345"/>
</g>
<!-- Node1 -->
<g id="node2" class="node">
<title>Node1</title>
<g id="a_node2"><a xlink:href="class_ogre_1_1_allocated_object.html" target="_top" xlink:title="PluginAlloc">
<polygon fill="none" stroke="#000000" points="0,-247.5 0,-266.5 65,-266.5 65,-247.5 0,-247.5"/>
<text text-anchor="middle" x="32.5" y="-254.5" font-family="Helvetica,sans-Serif" font-size="10.00" fill="#000000">PluginAlloc</text>
</a>
</g>
</g>
<!-- Node1&#45;&gt;Node0 -->
<g id="edge1" class="edge">
<title>Node1&#45;&gt;Node0</title>
<path fill="none" stroke="#191970" d="M75.231,-257C83.7095,-257 92.5277,-257 100.7444,-257"/>
<polygon fill="#191970" stroke="#191970" points="75.1209,-253.5001 65.1209,-257 75.1209,-260.5001 75.1209,-253.5001"/>
</g>
</g>
</svg>
