<?xml version="1.0" encoding="UTF-8" standalone="no"?>
<!DOCTYPE svg PUBLIC "-//W3C//DTD SVG 1.1//EN"
 "http://www.w3.org/Graphics/SVG/1.1/DTD/svg11.dtd">
<!-- Generated by graphviz version 2.40.1 (20161225.0304)
 -->
<!-- Title: Ogre::GLRenderTarget Pages: 1 -->
<svg width="519pt" height="279pt"
 viewBox="0.00 0.00 519.00 278.50" xmlns="http://www.w3.org/2000/svg" xmlns:xlink="http://www.w3.org/1999/xlink">
<g id="graph0" class="graph" transform="scale(1 1) rotate(0) translate(4 274.5)">
<title>Ogre::GLRenderTarget</title>
<!-- Node0 -->
<g id="node1" class="node">
<title>Node0</title>
<polygon fill="#bfbfbf" stroke="#000000" points="0,-133.5 0,-152.5 116,-152.5 116,-133.5 0,-133.5"/>
<text text-anchor="middle" x="58" y="-140.5" font-family="Helvetica,sans-Serif" font-size="10.00" fill="#000000">Ogre::GLRenderTarget</text>
</g>
<!-- Node1 -->
<g id="node2" class="node">
<title>Node1</title>
<g id="a_node2"><a xlink:href="class_ogre_1_1_g_l3_plus_f_b_o_multi_render_target.html" target="_top" xlink:title="MultiRenderTarget for OpenGL. ">
<polygon fill="none" stroke="#000000" points="153.5,-240 153.5,-270 307.5,-270 307.5,-240 153.5,-240"/>
<text text-anchor="start" x="161.5" y="-258" font-family="Helvetica,sans-Serif" font-size="10.00" fill="#000000">Ogre::GL3PlusFBOMultiRender</text>
<text text-anchor="middle" x="230.5" y="-247" font-family="Helvetica,sans-Serif" font-size="10.00" fill="#000000">Target</text>
</a>
</g>
</g>
<!-- Node0&#45;&gt;Node1 -->
<g id="edge1" class="edge">
<title>Node0&#45;&gt;Node1</title>
<path fill="none" stroke="#191970" d="M72.1628,-160.3785C89.1697,-180.1699 119.4939,-212.1903 152,-231 157.7974,-234.3547 164.1121,-237.2865 170.5586,-239.8377"/>
<polygon fill="#191970" stroke="#191970" points="74.8368,-158.1202 65.7219,-152.7193 69.4793,-162.6255 74.8368,-158.1202"/>
</g>
<!-- Node2 -->
<g id="node3" class="node">
<title>Node2</title>
<g id="a_node3"><a xlink:href="class_ogre_1_1_g_l_e_s2_f_b_o_multi_render_target.html" target="_top" xlink:title="MultiRenderTarget for GL ES 2.x. ">
<polygon fill="none" stroke="#000000" points="156.5,-191 156.5,-221 304.5,-221 304.5,-191 156.5,-191"/>
<text text-anchor="start" x="164.5" y="-209" font-family="Helvetica,sans-Serif" font-size="10.00" fill="#000000">Ogre::GLES2FBOMultiRender</text>
<text text-anchor="middle" x="230.5" y="-198" font-family="Helvetica,sans-Serif" font-size="10.00" fill="#000000">Target</text>
</a>
</g>
</g>
<!-- Node0&#45;&gt;Node2 -->
<g id="edge2" class="edge">
<title>Node0&#45;&gt;Node2</title>
<path fill="none" stroke="#191970" d="M89.7197,-156.5216C107.8335,-164.0668 131.044,-173.4396 152,-181 161.4179,-184.3977 171.5546,-187.8065 181.313,-190.9663"/>
<polygon fill="#191970" stroke="#191970" points="90.803,-153.1807 80.2275,-152.541 88.0959,-159.6361 90.803,-153.1807"/>
</g>
<!-- Node3 -->
<g id="node4" class="node">
<title>Node3</title>
<g id="a_node4"><a xlink:href="class_ogre_1_1_g_l_f_b_o_multi_render_target.html" target="_top" xlink:title="MultiRenderTarget for GL. ">
<polygon fill="none" stroke="#000000" points="152,-152.5 152,-171.5 309,-171.5 309,-152.5 152,-152.5"/>
<text text-anchor="middle" x="230.5" y="-159.5" font-family="Helvetica,sans-Serif" font-size="10.00" fill="#000000">Ogre::GLFBOMultiRenderTarget</text>
</a>
</g>
</g>
<!-- Node0&#45;&gt;Node3 -->
<g id="edge3" class="edge">
<title>Node0&#45;&gt;Node3</title>
<path fill="none" stroke="#191970" d="M126.4785,-150.5426C134.854,-151.4651 143.4632,-152.4133 151.9714,-153.3505"/>
<polygon fill="#191970" stroke="#191970" points="126.7237,-147.0485 116.4006,-149.4325 125.9573,-154.0064 126.7237,-147.0485"/>
</g>
<!-- Node4 -->
<g id="node5" class="node">
<title>Node4</title>
<g id="a_node5"><a xlink:href="class_ogre_1_1_g_l_p_buffer.html" target="_top" xlink:title="An off&#45;screen rendering context. ">
<polygon fill="none" stroke="#000000" points="186,-114.5 186,-133.5 275,-133.5 275,-114.5 186,-114.5"/>
<text text-anchor="middle" x="230.5" y="-121.5" font-family="Helvetica,sans-Serif" font-size="10.00" fill="#000000">Ogre::GLPBuffer</text>
</a>
</g>
</g>
<!-- Node0&#45;&gt;Node4 -->
<g id="edge4" class="edge">
<title>Node0&#45;&gt;Node4</title>
<path fill="none" stroke="#191970" d="M126.3912,-135.4671C146.3714,-133.2663 167.6889,-130.9183 185.7965,-128.9239"/>
<polygon fill="#191970" stroke="#191970" points="125.9573,-131.9936 116.4006,-136.5675 126.7237,-138.9515 125.9573,-131.9936"/>
</g>
<!-- Node5 -->
<g id="node6" class="node">
<title>Node5</title>
<g id="a_node6"><a xlink:href="class_ogre_1_1_g_l_render_texture.html" target="_top" xlink:title="Base class for GL Render Textures. ">
<polygon fill="none" stroke="#000000" points="170,-76.5 170,-95.5 291,-95.5 291,-76.5 170,-76.5"/>
<text text-anchor="middle" x="230.5" y="-83.5" font-family="Helvetica,sans-Serif" font-size="10.00" fill="#000000">Ogre::GLRenderTexture</text>
</a>
</g>
</g>
<!-- Node0&#45;&gt;Node5 -->
<g id="edge5" class="edge">
<title>Node0&#45;&gt;Node5</title>
<path fill="none" stroke="#191970" d="M88.1952,-129.4756C106.427,-121.6425 130.265,-111.982 152,-105 162.9471,-101.4834 174.9353,-98.2703 186.1745,-95.5269"/>
<polygon fill="#191970" stroke="#191970" points="86.727,-126.2974 78.9531,-133.4958 89.5192,-132.7164 86.727,-126.2974"/>
</g>
<!-- Node11 -->
<g id="node12" class="node">
<title>Node11</title>
<g id="a_node12"><a xlink:href="class_ogre_1_1_g_l_window.html" target="_top" xlink:title="Ogre::GLWindow">
<polygon fill="none" stroke="#000000" points="184.5,-38.5 184.5,-57.5 276.5,-57.5 276.5,-38.5 184.5,-38.5"/>
<text text-anchor="middle" x="230.5" y="-45.5" font-family="Helvetica,sans-Serif" font-size="10.00" fill="#000000">Ogre::GLWindow</text>
</a>
</g>
</g>
<!-- Node0&#45;&gt;Node11 -->
<g id="edge11" class="edge">
<title>Node0&#45;&gt;Node11</title>
<path fill="none" stroke="#191970" d="M74.0496,-126.2041C91.5952,-108.8261 121.3226,-82.149 152,-67 162.0581,-62.0331 173.4959,-58.3151 184.4688,-55.5504"/>
<polygon fill="#191970" stroke="#191970" points="71.4212,-123.8846 66.8856,-133.4595 76.4022,-128.8029 71.4212,-123.8846"/>
</g>
<!-- Node6 -->
<g id="node7" class="node">
<title>Node6</title>
<g id="a_node7"><a xlink:href="class_ogre_1_1_g_l3_plus_f_b_o_render_texture.html" target="_top" xlink:title="RenderTexture for GL FBO. ">
<polygon fill="none" stroke="#000000" points="345,-152.5 345,-171.5 511,-171.5 511,-152.5 345,-152.5"/>
<text text-anchor="middle" x="428" y="-159.5" font-family="Helvetica,sans-Serif" font-size="10.00" fill="#000000">Ogre::GL3PlusFBORenderTexture</text>
</a>
</g>
</g>
<!-- Node5&#45;&gt;Node6 -->
<g id="edge6" class="edge">
<title>Node5&#45;&gt;Node6</title>
<path fill="none" stroke="#191970" d="M296.7898,-99.0518C301.031,-100.793 305.1418,-102.7655 309,-105 329.1319,-116.6593 324.796,-131.466 345,-143 351.804,-146.8843 359.3483,-149.9746 367.0347,-152.4332"/>
<polygon fill="#191970" stroke="#191970" points="297.9382,-95.7452 287.3444,-95.5978 295.5341,-102.3194 297.9382,-95.7452"/>
</g>
<!-- Node7 -->
<g id="node8" class="node">
<title>Node7</title>
<g id="a_node8"><a xlink:href="class_ogre_1_1_g_l_copying_render_texture.html" target="_top" xlink:title="Ogre::GLCopyingRenderTexture">
<polygon fill="none" stroke="#000000" points="349.5,-114.5 349.5,-133.5 506.5,-133.5 506.5,-114.5 349.5,-114.5"/>
<text text-anchor="middle" x="428" y="-121.5" font-family="Helvetica,sans-Serif" font-size="10.00" fill="#000000">Ogre::GLCopyingRenderTexture</text>
</a>
</g>
</g>
<!-- Node5&#45;&gt;Node7 -->
<g id="edge7" class="edge">
<title>Node5&#45;&gt;Node7</title>
<path fill="none" stroke="#191970" d="M290.2147,-97.4894C318.3946,-102.9114 351.629,-109.3058 378.3969,-114.4561"/>
<polygon fill="#191970" stroke="#191970" points="290.5639,-93.9925 280.0827,-95.54 289.2412,-100.8664 290.5639,-93.9925"/>
</g>
<!-- Node8 -->
<g id="node9" class="node">
<title>Node8</title>
<g id="a_node9"><a xlink:href="class_ogre_1_1_g_l_e_s2_f_b_o_render_texture.html" target="_top" xlink:title="RenderTexture for GL ES 2 FBO. ">
<polygon fill="none" stroke="#000000" points="348,-76.5 348,-95.5 508,-95.5 508,-76.5 348,-76.5"/>
<text text-anchor="middle" x="428" y="-83.5" font-family="Helvetica,sans-Serif" font-size="10.00" fill="#000000">Ogre::GLES2FBORenderTexture</text>
</a>
</g>
</g>
<!-- Node5&#45;&gt;Node8 -->
<g id="edge8" class="edge">
<title>Node5&#45;&gt;Node8</title>
<path fill="none" stroke="#191970" d="M301.3658,-86C316.4419,-86 332.4625,-86 347.8572,-86"/>
<polygon fill="#191970" stroke="#191970" points="301.0987,-82.5001 291.0987,-86 301.0987,-89.5001 301.0987,-82.5001"/>
</g>
<!-- Node9 -->
<g id="node10" class="node">
<title>Node9</title>
<g id="a_node10"><a xlink:href="class_ogre_1_1_g_l_f_b_o_render_texture.html" target="_top" xlink:title="RenderTexture for GL FBO. ">
<polygon fill="none" stroke="#000000" points="357.5,-38.5 357.5,-57.5 498.5,-57.5 498.5,-38.5 357.5,-38.5"/>
<text text-anchor="middle" x="428" y="-45.5" font-family="Helvetica,sans-Serif" font-size="10.00" fill="#000000">Ogre::GLFBORenderTexture</text>
</a>
</g>
</g>
<!-- Node5&#45;&gt;Node9 -->
<g id="edge9" class="edge">
<title>Node5&#45;&gt;Node9</title>
<path fill="none" stroke="#191970" d="M290.2147,-74.5106C318.3946,-69.0886 351.629,-62.6942 378.3969,-57.5439"/>
<polygon fill="#191970" stroke="#191970" points="289.2412,-71.1336 280.0827,-76.46 290.5639,-78.0075 289.2412,-71.1336"/>
</g>
<!-- Node10 -->
<g id="node11" class="node">
<title>Node10</title>
<g id="a_node11"><a xlink:href="class_ogre_1_1_g_l_p_b_render_texture.html" target="_top" xlink:title="Ogre::GLPBRenderTexture">
<polygon fill="none" stroke="#000000" points="361,-.5 361,-19.5 495,-19.5 495,-.5 361,-.5"/>
<text text-anchor="middle" x="428" y="-7.5" font-family="Helvetica,sans-Serif" font-size="10.00" fill="#000000">Ogre::GLPBRenderTexture</text>
</a>
</g>
</g>
<!-- Node5&#45;&gt;Node10 -->
<g id="edge10" class="edge">
<title>Node5&#45;&gt;Node10</title>
<path fill="none" stroke="#191970" d="M296.7898,-72.9482C301.031,-71.207 305.1418,-69.2345 309,-67 329.1319,-55.3407 324.796,-40.534 345,-29 351.804,-25.1157 359.3483,-22.0254 367.0347,-19.5668"/>
<polygon fill="#191970" stroke="#191970" points="295.5341,-69.6806 287.3444,-76.4022 297.9382,-76.2548 295.5341,-69.6806"/>
</g>
</g>
</svg>
