<?xml version="1.0" encoding="UTF-8" standalone="no"?>
<!DOCTYPE svg PUBLIC "-//W3C//DTD SVG 1.1//EN"
 "http://www.w3.org/Graphics/SVG/1.1/DTD/svg11.dtd">
<!-- Generated by graphviz version 2.40.1 (20161225.0304)
 -->
<!-- Title: Ogre::Renderable Pages: 1 -->
<svg width="828pt" height="513pt"
 viewBox="0.00 0.00 828.00 513.00" xmlns="http://www.w3.org/2000/svg" xmlns:xlink="http://www.w3.org/1999/xlink">
<g id="graph0" class="graph" transform="scale(1 1) rotate(0) translate(4 509)">
<title>Ogre::Renderable</title>
<!-- Node0 -->
<g id="node1" class="node">
<title>Node0</title>
<polygon fill="#bfbfbf" stroke="#000000" points="0,-251.5 0,-270.5 93,-270.5 93,-251.5 0,-251.5"/>
<text text-anchor="middle" x="46.5" y="-258.5" font-family="Helvetica,sans-Serif" font-size="10.00" fill="#000000">Ogre::Renderable</text>
</g>
<!-- Node1 -->
<g id="node2" class="node">
<title>Node1</title>
<g id="a_node2"><a xlink:href="class_ogre_1_1_billboard_chain.html" target="_top" xlink:title="Allows the rendering of a chain of connected billboards. ">
<polygon fill="none" stroke="#000000" points="151,-485.5 151,-504.5 258,-504.5 258,-485.5 151,-485.5"/>
<text text-anchor="middle" x="204.5" y="-492.5" font-family="Helvetica,sans-Serif" font-size="10.00" fill="#000000">Ogre::BillboardChain</text>
</a>
</g>
</g>
<!-- Node0&#45;&gt;Node1 -->
<g id="edge1" class="edge">
<title>Node0&#45;&gt;Node1</title>
<path fill="none" stroke="#191970" d="M48.1749,-281.1103C52.8349,-323.7287 69.8151,-423.5154 129,-476 135.2699,-481.5601 142.9313,-485.5415 150.9423,-488.3827"/>
<polygon fill="#191970" stroke="#191970" points="51.6344,-280.5235 47.1808,-270.9102 44.6674,-281.2026 51.6344,-280.5235"/>
</g>
<!-- Node3 -->
<g id="node4" class="node">
<title>Node3</title>
<g id="a_node4"><a xlink:href="class_ogre_1_1_billboard_set.html" target="_top" xlink:title="A collection of billboards (faces which are always facing the given direction) with the same (default...">
<polygon fill="none" stroke="#000000" points="156.5,-447.5 156.5,-466.5 252.5,-466.5 252.5,-447.5 156.5,-447.5"/>
<text text-anchor="middle" x="204.5" y="-454.5" font-family="Helvetica,sans-Serif" font-size="10.00" fill="#000000">Ogre::BillboardSet</text>
</a>
</g>
</g>
<!-- Node0&#45;&gt;Node3 -->
<g id="edge3" class="edge">
<title>Node0&#45;&gt;Node3</title>
<path fill="none" stroke="#191970" d="M49.9673,-280.8098C57.4763,-317.6027 78.788,-396.5088 129,-438 136.8145,-444.4573 146.5305,-448.7618 156.3629,-451.6207"/>
<polygon fill="#191970" stroke="#191970" points="53.3757,-279.9982 48.0634,-270.8314 46.4997,-281.3102 53.3757,-279.9982"/>
</g>
<!-- Node4 -->
<g id="node5" class="node">
<title>Node4</title>
<g id="a_node5"><a xlink:href="class_ogre_1_1_border_renderable.html" target="_top" xlink:title="Class for rendering the border of a BorderPanelOverlayElement. ">
<polygon fill="none" stroke="#000000" points="143.5,-409.5 143.5,-428.5 265.5,-428.5 265.5,-409.5 143.5,-409.5"/>
<text text-anchor="middle" x="204.5" y="-416.5" font-family="Helvetica,sans-Serif" font-size="10.00" fill="#000000">Ogre::BorderRenderable</text>
</a>
</g>
</g>
<!-- Node0&#45;&gt;Node4 -->
<g id="edge4" class="edge">
<title>Node0&#45;&gt;Node4</title>
<path fill="none" stroke="#191970" d="M52.5233,-280.2972C63.0028,-310.5996 87.5292,-369.0687 129,-400 134.2006,-403.8789 140.1053,-406.9712 146.2671,-409.4354"/>
<polygon fill="#191970" stroke="#191970" points="55.7511,-278.9095 49.2927,-270.5108 49.1039,-281.1039 55.7511,-278.9095"/>
</g>
<!-- Node5 -->
<g id="node6" class="node">
<title>Node5</title>
<g id="a_node6"><a xlink:href="class_ogre_1_1_bsp_level.html" target="_top" xlink:title="Holds all the data associated with a Binary Space Parition (BSP) based indoor level. ">
<polygon fill="none" stroke="#000000" points="162.5,-371.5 162.5,-390.5 246.5,-390.5 246.5,-371.5 162.5,-371.5"/>
<text text-anchor="middle" x="204.5" y="-378.5" font-family="Helvetica,sans-Serif" font-size="10.00" fill="#000000">Ogre::BspLevel</text>
</a>
</g>
</g>
<!-- Node0&#45;&gt;Node5 -->
<g id="edge5" class="edge">
<title>Node0&#45;&gt;Node5</title>
<path fill="none" stroke="#191970" d="M56.4108,-279.241C69.8137,-302.1386 95.896,-340.9581 129,-362 138.9241,-368.308 150.8227,-372.523 162.2076,-375.3389"/>
<polygon fill="#191970" stroke="#191970" points="59.4338,-277.4765 51.4594,-270.5008 53.3432,-280.9269 59.4338,-277.4765"/>
</g>
<!-- Node6 -->
<g id="node7" class="node">
<title>Node6</title>
<g id="a_node7"><a xlink:href="class_ogre_1_1_frustum.html" target="_top" xlink:title="A frustum represents a pyramid, capped at the near and far end which is used to represent either a vi...">
<polygon fill="none" stroke="#000000" points="164.5,-333.5 164.5,-352.5 244.5,-352.5 244.5,-333.5 164.5,-333.5"/>
<text text-anchor="middle" x="204.5" y="-340.5" font-family="Helvetica,sans-Serif" font-size="10.00" fill="#000000">Ogre::Frustum</text>
</a>
</g>
</g>
<!-- Node0&#45;&gt;Node6 -->
<g id="edge6" class="edge">
<title>Node0&#45;&gt;Node6</title>
<path fill="none" stroke="#191970" d="M63.6705,-277.4935C79.4561,-291.7848 104.1187,-312.0008 129,-324 139.9571,-329.2841 152.5415,-333.2012 164.2547,-336.0593"/>
<polygon fill="#191970" stroke="#191970" points="65.9841,-274.8657 56.2706,-270.635 61.2257,-279.9997 65.9841,-274.8657"/>
</g>
<!-- Node10 -->
<g id="node11" class="node">
<title>Node10</title>
<g id="a_node11"><a xlink:href="class_ogre_1_1_instance_batch.html" target="_top" xlink:title="InstanceBatch forms part of the new Instancing system This is an abstract class that must be derived ...">
<polygon fill="none" stroke="#000000" points="151,-295.5 151,-314.5 258,-314.5 258,-295.5 151,-295.5"/>
<text text-anchor="middle" x="204.5" y="-302.5" font-family="Helvetica,sans-Serif" font-size="10.00" fill="#000000">Ogre::InstanceBatch</text>
</a>
</g>
</g>
<!-- Node0&#45;&gt;Node10 -->
<g id="edge10" class="edge">
<title>Node0&#45;&gt;Node10</title>
<path fill="none" stroke="#191970" d="M86.8287,-273.6407C100.2093,-277.7223 115.2086,-282.1774 129,-286 140.7227,-289.2492 153.5344,-292.5622 165.2205,-295.4924"/>
<polygon fill="#191970" stroke="#191970" points="87.5458,-270.1996 76.9588,-270.6088 85.4902,-276.891 87.5458,-270.1996"/>
</g>
<!-- Node16 -->
<g id="node17" class="node">
<title>Node16</title>
<g id="a_node17"><a xlink:href="class_ogre_1_1_manual_object_1_1_manual_object_section.html" target="_top" xlink:title="Built, renderable section of geometry. ">
<polygon fill="none" stroke="#000000" points="146.5,-246 146.5,-276 262.5,-276 262.5,-246 146.5,-246"/>
<text text-anchor="start" x="154.5" y="-264" font-family="Helvetica,sans-Serif" font-size="10.00" fill="#000000">Ogre::ManualObject</text>
<text text-anchor="middle" x="204.5" y="-253" font-family="Helvetica,sans-Serif" font-size="10.00" fill="#000000">::ManualObjectSection</text>
</a>
</g>
</g>
<!-- Node0&#45;&gt;Node16 -->
<g id="edge16" class="edge">
<title>Node0&#45;&gt;Node16</title>
<path fill="none" stroke="#191970" d="M103.4582,-261C117.3621,-261 132.2561,-261 146.2207,-261"/>
<polygon fill="#191970" stroke="#191970" points="103.0507,-257.5001 93.0506,-261 103.0506,-264.5001 103.0507,-257.5001"/>
</g>
<!-- Node17 -->
<g id="node18" class="node">
<title>Node17</title>
<g id="a_node18"><a xlink:href="class_ogre_1_1_node_1_1_debug_renderable.html" target="_top" xlink:title="Inner class for displaying debug renderable for Node. ">
<polygon fill="none" stroke="#000000" points="129,-207.5 129,-226.5 280,-226.5 280,-207.5 129,-207.5"/>
<text text-anchor="middle" x="204.5" y="-214.5" font-family="Helvetica,sans-Serif" font-size="10.00" fill="#000000">Ogre::Node::DebugRenderable</text>
</a>
</g>
</g>
<!-- Node0&#45;&gt;Node17 -->
<g id="edge17" class="edge">
<title>Node0&#45;&gt;Node17</title>
<path fill="none" stroke="#191970" d="M88.2288,-248.6484C101.2672,-244.8462 115.7147,-240.6915 129,-237 141.5422,-233.515 155.2949,-229.8313 167.5865,-226.5879"/>
<polygon fill="#191970" stroke="#191970" points="87.1899,-245.3056 78.5756,-251.4737 89.1562,-252.0238 87.1899,-245.3056"/>
</g>
<!-- Node18 -->
<g id="node19" class="node">
<title>Node18</title>
<g id="a_node19"><a xlink:href="class_ogre_1_1_overlay_element.html" target="_top" xlink:title="Abstract definition of a 2D element to be displayed in an Overlay. ">
<polygon fill="none" stroke="#000000" points="148,-169.5 148,-188.5 261,-188.5 261,-169.5 148,-169.5"/>
<text text-anchor="middle" x="204.5" y="-176.5" font-family="Helvetica,sans-Serif" font-size="10.00" fill="#000000">Ogre::OverlayElement</text>
</a>
</g>
</g>
<!-- Node0&#45;&gt;Node18 -->
<g id="edge18" class="edge">
<title>Node0&#45;&gt;Node18</title>
<path fill="none" stroke="#191970" d="M63.6705,-244.5065C79.4561,-230.2152 104.1187,-209.9992 129,-198 136.9134,-194.1837 145.6757,-191.0804 154.3456,-188.5742"/>
<polygon fill="#191970" stroke="#191970" points="61.2257,-242.0003 56.2706,-251.365 65.9841,-247.1343 61.2257,-242.0003"/>
</g>
<!-- Node23 -->
<g id="node24" class="node">
<title>Node23</title>
<g id="a_node24"><a xlink:href="class_ogre_1_1_shadow_renderable.html" target="_top" xlink:title="Class which represents the renderable aspects of a set of shadow volume faces. ">
<polygon fill="none" stroke="#000000" points="140.5,-131.5 140.5,-150.5 268.5,-150.5 268.5,-131.5 140.5,-131.5"/>
<text text-anchor="middle" x="204.5" y="-138.5" font-family="Helvetica,sans-Serif" font-size="10.00" fill="#000000">Ogre::ShadowRenderable</text>
</a>
</g>
</g>
<!-- Node0&#45;&gt;Node23 -->
<g id="edge23" class="edge">
<title>Node0&#45;&gt;Node23</title>
<path fill="none" stroke="#191970" d="M56.4108,-242.759C69.8137,-219.8614 95.896,-181.0419 129,-160 135.1598,-156.0847 142.0802,-152.9757 149.1664,-150.5072"/>
<polygon fill="#191970" stroke="#191970" points="53.3432,-241.0731 51.4594,-251.4992 59.4338,-244.5235 53.3432,-241.0731"/>
</g>
<!-- Node25 -->
<g id="node26" class="node">
<title>Node25</title>
<g id="a_node26"><a xlink:href="class_ogre_1_1_simple_renderable.html" target="_top" xlink:title="Simple implementation of MovableObject and Renderable for single&#45;part custom objects. ">
<polygon fill="none" stroke="#000000" points="143,-88.5 143,-107.5 266,-107.5 266,-88.5 143,-88.5"/>
<text text-anchor="middle" x="204.5" y="-95.5" font-family="Helvetica,sans-Serif" font-size="10.00" fill="#000000">Ogre::SimpleRenderable</text>
</a>
</g>
</g>
<!-- Node0&#45;&gt;Node25 -->
<g id="edge25" class="edge">
<title>Node0&#45;&gt;Node25</title>
<path fill="none" stroke="#191970" d="M52.9078,-241.5624C63.7852,-211.5439 88.6913,-154.031 129,-122 136.9684,-115.668 146.6386,-110.9913 156.361,-107.542"/>
<polygon fill="#191970" stroke="#191970" points="49.5075,-240.685 49.5326,-251.2798 56.12,-242.9818 49.5075,-240.685"/>
</g>
<!-- Node29 -->
<g id="node30" class="node">
<title>Node29</title>
<g id="a_node30"><a xlink:href="class_ogre_1_1_static_geometry_1_1_geometry_bucket.html" target="_top" xlink:title="A GeometryBucket is a the lowest level bucket where geometry with the same vertex &amp; index format is s...">
<polygon fill="none" stroke="#000000" points="148.5,-39 148.5,-69 260.5,-69 260.5,-39 148.5,-39"/>
<text text-anchor="start" x="156.5" y="-57" font-family="Helvetica,sans-Serif" font-size="10.00" fill="#000000">Ogre::StaticGeometry</text>
<text text-anchor="middle" x="204.5" y="-46" font-family="Helvetica,sans-Serif" font-size="10.00" fill="#000000">::GeometryBucket</text>
</a>
</g>
</g>
<!-- Node0&#45;&gt;Node29 -->
<g id="edge29" class="edge">
<title>Node0&#45;&gt;Node29</title>
<path fill="none" stroke="#191970" d="M50.0897,-240.9869C57.8033,-203.7505 79.4433,-123.5713 129,-79 134.6464,-73.9217 141.3515,-69.8715 148.3998,-66.6421"/>
<polygon fill="#191970" stroke="#191970" points="46.6008,-240.5932 48.1274,-251.0774 53.4721,-241.9295 46.6008,-240.5932"/>
</g>
<!-- Node30 -->
<g id="node31" class="node">
<title>Node30</title>
<g id="a_node31"><a xlink:href="class_ogre_1_1_sub_entity.html" target="_top" xlink:title="Utility class which defines the sub&#45;parts of an Entity. ">
<polygon fill="none" stroke="#000000" points="161.5,-.5 161.5,-19.5 247.5,-19.5 247.5,-.5 161.5,-.5"/>
<text text-anchor="middle" x="204.5" y="-7.5" font-family="Helvetica,sans-Serif" font-size="10.00" fill="#000000">Ogre::SubEntity</text>
</a>
</g>
</g>
<!-- Node0&#45;&gt;Node30 -->
<g id="edge30" class="edge">
<title>Node0&#45;&gt;Node30</title>
<path fill="none" stroke="#191970" d="M47.5069,-241.174C50.8892,-196.3571 65.5667,-86.6692 129,-29 137.901,-20.9079 149.7383,-16.1459 161.3944,-13.3766"/>
<polygon fill="#191970" stroke="#191970" points="44.0031,-241.1224 46.8557,-251.3259 50.9888,-241.5705 44.0031,-241.1224"/>
</g>
<!-- Node2 -->
<g id="node3" class="node">
<title>Node2</title>
<g id="a_node3"><a xlink:href="class_ogre_1_1_ribbon_trail.html" target="_top" xlink:title="Subclass of BillboardChain which automatically leaves a trail behind one or more Node instances...">
<polygon fill="none" stroke="#000000" points="346,-485.5 346,-504.5 439,-504.5 439,-485.5 346,-485.5"/>
<text text-anchor="middle" x="392.5" y="-492.5" font-family="Helvetica,sans-Serif" font-size="10.00" fill="#000000">Ogre::RibbonTrail</text>
</a>
</g>
</g>
<!-- Node1&#45;&gt;Node2 -->
<g id="edge2" class="edge">
<title>Node1&#45;&gt;Node2</title>
<path fill="none" stroke="#191970" d="M268.4068,-495C293.7956,-495 322.4586,-495 345.8361,-495"/>
<polygon fill="#191970" stroke="#191970" points="268.1217,-491.5001 258.1217,-495 268.1216,-498.5001 268.1217,-491.5001"/>
</g>
<!-- Node7 -->
<g id="node8" class="node">
<title>Node7</title>
<g id="a_node8"><a xlink:href="class_ogre_1_1_camera.html" target="_top" xlink:title="A viewpoint from which the scene will be rendered. ">
<polygon fill="none" stroke="#000000" points="353.5,-371.5 353.5,-390.5 431.5,-390.5 431.5,-371.5 353.5,-371.5"/>
<text text-anchor="middle" x="392.5" y="-378.5" font-family="Helvetica,sans-Serif" font-size="10.00" fill="#000000">Ogre::Camera</text>
</a>
</g>
</g>
<!-- Node6&#45;&gt;Node7 -->
<g id="edge7" class="edge">
<title>Node6&#45;&gt;Node7</title>
<path fill="none" stroke="#191970" d="M254.9548,-353.1983C285.7934,-359.4316 324.6586,-367.2874 353.2026,-373.0569"/>
<polygon fill="#191970" stroke="#191970" points="255.3259,-349.7026 244.8307,-351.152 253.939,-356.5639 255.3259,-349.7026"/>
</g>
<!-- Node8 -->
<g id="node9" class="node">
<title>Node8</title>
<g id="a_node9"><a xlink:href="class_ogre_1_1_octree_camera.html" target="_top" xlink:title="Specialized viewpoint from which an Octree can be rendered. ">
<polygon fill="none" stroke="#000000" points="525.5,-409.5 525.5,-428.5 632.5,-428.5 632.5,-409.5 525.5,-409.5"/>
<text text-anchor="middle" x="579" y="-416.5" font-family="Helvetica,sans-Serif" font-size="10.00" fill="#000000">Ogre::OctreeCamera</text>
</a>
</g>
</g>
<!-- Node7&#45;&gt;Node8 -->
<g id="edge8" class="edge">
<title>Node7&#45;&gt;Node8</title>
<path fill="none" stroke="#191970" d="M441.6018,-391.0047C469.6839,-396.7265 504.7104,-403.8633 532.3695,-409.4989"/>
<polygon fill="#191970" stroke="#191970" points="442.094,-387.5331 431.5965,-388.966 440.6964,-394.3922 442.094,-387.5331"/>
</g>
<!-- Node9 -->
<g id="node10" class="node">
<title>Node9</title>
<g id="a_node10"><a xlink:href="class_ogre_1_1_p_c_z_camera.html" target="_top" xlink:title="Specialized viewpoint from which an PCZone Scene can be rendered. ">
<polygon fill="none" stroke="#000000" points="530,-371.5 530,-390.5 628,-390.5 628,-371.5 530,-371.5"/>
<text text-anchor="middle" x="579" y="-378.5" font-family="Helvetica,sans-Serif" font-size="10.00" fill="#000000">Ogre::PCZCamera</text>
</a>
</g>
</g>
<!-- Node7&#45;&gt;Node9 -->
<g id="edge9" class="edge">
<title>Node7&#45;&gt;Node9</title>
<path fill="none" stroke="#191970" d="M441.6986,-381C468.9613,-381 502.7462,-381 529.9803,-381"/>
<polygon fill="#191970" stroke="#191970" points="441.5965,-377.5001 431.5965,-381 441.5965,-384.5001 441.5965,-377.5001"/>
</g>
<!-- Node11 -->
<g id="node12" class="node">
<title>Node11</title>
<g id="a_node12"><a xlink:href="class_ogre_1_1_base_instance_batch_v_t_f.html" target="_top" xlink:title="Instancing implementation using vertex texture through Vertex Texture Fetch (VTF) This implementation...">
<polygon fill="none" stroke="#000000" points="318.5,-333.5 318.5,-352.5 466.5,-352.5 466.5,-333.5 318.5,-333.5"/>
<text text-anchor="middle" x="392.5" y="-340.5" font-family="Helvetica,sans-Serif" font-size="10.00" fill="#000000">Ogre::BaseInstanceBatchVTF</text>
</a>
</g>
</g>
<!-- Node10&#45;&gt;Node11 -->
<g id="edge11" class="edge">
<title>Node10&#45;&gt;Node11</title>
<path fill="none" stroke="#191970" d="M261.9365,-316.6095C288.6744,-322.014 320.0879,-328.3635 345.4008,-333.4799"/>
<polygon fill="#191970" stroke="#191970" points="262.4356,-313.1397 251.9403,-314.589 261.0487,-320.0009 262.4356,-313.1397"/>
</g>
<!-- Node14 -->
<g id="node15" class="node">
<title>Node14</title>
<g id="a_node15"><a xlink:href="class_ogre_1_1_instance_batch_h_w.html" target="_top" xlink:title="This is technique requires true instancing hardware support. ">
<polygon fill="none" stroke="#000000" points="330.5,-295.5 330.5,-314.5 454.5,-314.5 454.5,-295.5 330.5,-295.5"/>
<text text-anchor="middle" x="392.5" y="-302.5" font-family="Helvetica,sans-Serif" font-size="10.00" fill="#000000">Ogre::InstanceBatchHW</text>
</a>
</g>
</g>
<!-- Node10&#45;&gt;Node14 -->
<g id="edge14" class="edge">
<title>Node10&#45;&gt;Node14</title>
<path fill="none" stroke="#191970" d="M268.3551,-305C288.32,-305 310.3141,-305 330.1726,-305"/>
<polygon fill="#191970" stroke="#191970" points="268.1217,-301.5001 258.1217,-305 268.1216,-308.5001 268.1217,-301.5001"/>
</g>
<!-- Node15 -->
<g id="node16" class="node">
<title>Node15</title>
<g id="a_node16"><a xlink:href="class_ogre_1_1_instance_batch_shader.html" target="_top" xlink:title="This is the same technique the old &quot;InstancedGeometry&quot; implementation used (with improvements). ">
<polygon fill="none" stroke="#000000" points="324,-257.5 324,-276.5 461,-276.5 461,-257.5 324,-257.5"/>
<text text-anchor="middle" x="392.5" y="-264.5" font-family="Helvetica,sans-Serif" font-size="10.00" fill="#000000">Ogre::InstanceBatchShader</text>
</a>
</g>
</g>
<!-- Node10&#45;&gt;Node15 -->
<g id="edge15" class="edge">
<title>Node10&#45;&gt;Node15</title>
<path fill="none" stroke="#191970" d="M261.9365,-293.3905C288.6744,-287.986 320.0879,-281.6365 345.4008,-276.5201"/>
<polygon fill="#191970" stroke="#191970" points="261.0487,-289.9991 251.9403,-295.411 262.4356,-296.8603 261.0487,-289.9991"/>
</g>
<!-- Node12 -->
<g id="node13" class="node">
<title>Node12</title>
<g id="a_node13"><a xlink:href="class_ogre_1_1_instance_batch_h_w___v_t_f.html" target="_top" xlink:title="Instancing implementation using vertex texture through Vertex Texture Fetch (VTF) and hardware instan...">
<polygon fill="none" stroke="#000000" points="505,-333.5 505,-352.5 653,-352.5 653,-333.5 505,-333.5"/>
<text text-anchor="middle" x="579" y="-340.5" font-family="Helvetica,sans-Serif" font-size="10.00" fill="#000000">Ogre::InstanceBatchHW_VTF</text>
</a>
</g>
</g>
<!-- Node11&#45;&gt;Node12 -->
<g id="edge12" class="edge">
<title>Node11&#45;&gt;Node12</title>
<path fill="none" stroke="#191970" d="M476.7848,-343C486.0966,-343 495.5287,-343 504.7052,-343"/>
<polygon fill="#191970" stroke="#191970" points="476.7457,-339.5001 466.7456,-343 476.7456,-346.5001 476.7457,-339.5001"/>
</g>
<!-- Node13 -->
<g id="node14" class="node">
<title>Node13</title>
<g id="a_node14"><a xlink:href="class_ogre_1_1_instance_batch_v_t_f.html" target="_top" xlink:title="Ogre::InstanceBatchVTF">
<polygon fill="none" stroke="#000000" points="516.5,-295.5 516.5,-314.5 641.5,-314.5 641.5,-295.5 516.5,-295.5"/>
<text text-anchor="middle" x="579" y="-302.5" font-family="Helvetica,sans-Serif" font-size="10.00" fill="#000000">Ogre::InstanceBatchVTF</text>
</a>
</g>
</g>
<!-- Node11&#45;&gt;Node13 -->
<g id="edge13" class="edge">
<title>Node11&#45;&gt;Node13</title>
<path fill="none" stroke="#191970" d="M449.4782,-331.3905C476.0028,-325.986 507.1657,-319.6365 532.2766,-314.5201"/>
<polygon fill="#191970" stroke="#191970" points="448.6617,-327.9849 439.5618,-333.411 450.0593,-334.8439 448.6617,-327.9849"/>
</g>
<!-- Node19 -->
<g id="node20" class="node">
<title>Node19</title>
<g id="a_node20"><a xlink:href="class_ogre_1_1_overlay_container.html" target="_top" xlink:title="A 2D element which contains other OverlayElement instances. ">
<polygon fill="none" stroke="#000000" points="333,-219.5 333,-238.5 452,-238.5 452,-219.5 333,-219.5"/>
<text text-anchor="middle" x="392.5" y="-226.5" font-family="Helvetica,sans-Serif" font-size="10.00" fill="#000000">Ogre::OverlayContainer</text>
</a>
</g>
</g>
<!-- Node18&#45;&gt;Node19 -->
<g id="edge19" class="edge">
<title>Node18&#45;&gt;Node19</title>
<path fill="none" stroke="#191970" d="M254.4945,-191.0177C263.0337,-193.2312 271.7937,-195.6034 280,-198 296.1892,-202.728 299.8035,-205.2971 316,-210 327.4335,-213.3199 339.9311,-216.5777 351.449,-219.4322"/>
<polygon fill="#191970" stroke="#191970" points="255.1728,-187.5787 244.6181,-188.5001 253.4437,-194.3618 255.1728,-187.5787"/>
</g>
<!-- Node22 -->
<g id="node23" class="node">
<title>Node22</title>
<g id="a_node23"><a xlink:href="class_ogre_1_1_text_area_overlay_element.html" target="_top" xlink:title="This class implements an overlay element which contains simple unformatted text. ">
<polygon fill="none" stroke="#000000" points="316,-181.5 316,-200.5 469,-200.5 469,-181.5 316,-181.5"/>
<text text-anchor="middle" x="392.5" y="-188.5" font-family="Helvetica,sans-Serif" font-size="10.00" fill="#000000">Ogre::TextAreaOverlayElement</text>
</a>
</g>
</g>
<!-- Node18&#45;&gt;Node22 -->
<g id="edge22" class="edge">
<title>Node18&#45;&gt;Node22</title>
<path fill="none" stroke="#191970" d="M271.4398,-183.2728C285.8092,-184.1899 301.1008,-185.166 315.8071,-186.1047"/>
<polygon fill="#191970" stroke="#191970" points="271.3638,-179.7609 261.1611,-182.6167 270.9179,-186.7467 271.3638,-179.7609"/>
</g>
<!-- Node20 -->
<g id="node21" class="node">
<title>Node20</title>
<g id="a_node21"><a xlink:href="class_ogre_1_1_panel_overlay_element.html" target="_top" xlink:title="OverlayElement representing a flat, single&#45;material (or transparent) panel which can contain other el...">
<polygon fill="none" stroke="#000000" points="510,-219.5 510,-238.5 648,-238.5 648,-219.5 510,-219.5"/>
<text text-anchor="middle" x="579" y="-226.5" font-family="Helvetica,sans-Serif" font-size="10.00" fill="#000000">Ogre::PanelOverlayElement</text>
</a>
</g>
</g>
<!-- Node19&#45;&gt;Node20 -->
<g id="edge20" class="edge">
<title>Node19&#45;&gt;Node20</title>
<path fill="none" stroke="#191970" d="M462.1409,-229C477.7768,-229 494.3606,-229 509.9714,-229"/>
<polygon fill="#191970" stroke="#191970" points="462.0226,-225.5001 452.0225,-229 462.0225,-232.5001 462.0226,-225.5001"/>
</g>
<!-- Node21 -->
<g id="node22" class="node">
<title>Node21</title>
<g id="a_node22"><a xlink:href="class_ogre_1_1_border_panel_overlay_element.html" target="_top" xlink:title="A specialisation of the PanelOverlayElement to provide a panel with a border. ">
<polygon fill="none" stroke="#000000" points="689,-214 689,-244 820,-244 820,-214 689,-214"/>
<text text-anchor="start" x="697" y="-232" font-family="Helvetica,sans-Serif" font-size="10.00" fill="#000000">Ogre::BorderPanelOverlay</text>
<text text-anchor="middle" x="754.5" y="-221" font-family="Helvetica,sans-Serif" font-size="10.00" fill="#000000">Element</text>
</a>
</g>
</g>
<!-- Node20&#45;&gt;Node21 -->
<g id="edge21" class="edge">
<title>Node20&#45;&gt;Node21</title>
<path fill="none" stroke="#191970" d="M658.2756,-229C668.5136,-229 678.9068,-229 688.891,-229"/>
<polygon fill="#191970" stroke="#191970" points="658.1104,-225.5001 648.1103,-229 658.1103,-232.5001 658.1104,-225.5001"/>
</g>
<!-- Node24 -->
<g id="node25" class="node">
<title>Node24</title>
<g id="a_node25"><a xlink:href="class_ogre_1_1_manual_object_1_1_manual_object_section_shadow_renderable.html" target="_top" xlink:title="Nested class to allow shadows. ">
<polygon fill="none" stroke="#000000" points="317,-121.5 317,-162.5 468,-162.5 468,-121.5 317,-121.5"/>
<text text-anchor="start" x="325" y="-150.5" font-family="Helvetica,sans-Serif" font-size="10.00" fill="#000000">Ogre::ManualObject</text>
<text text-anchor="start" x="325" y="-139.5" font-family="Helvetica,sans-Serif" font-size="10.00" fill="#000000">::ManualObjectSectionShadow</text>
<text text-anchor="middle" x="392.5" y="-128.5" font-family="Helvetica,sans-Serif" font-size="10.00" fill="#000000">Renderable</text>
</a>
</g>
</g>
<!-- Node23&#45;&gt;Node24 -->
<g id="edge24" class="edge">
<title>Node23&#45;&gt;Node24</title>
<path fill="none" stroke="#191970" d="M279.0183,-141.3964C291.4925,-141.4627 304.4453,-141.5316 316.9452,-141.5981"/>
<polygon fill="#191970" stroke="#191970" points="278.6916,-137.8947 268.6731,-141.3413 278.6543,-144.8946 278.6916,-137.8947"/>
</g>
<!-- Node26 -->
<g id="node27" class="node">
<title>Node26</title>
<g id="a_node27"><a xlink:href="class_ogre_1_1_rectangle2_d.html" target="_top" xlink:title="Allows the rendering of a simple 2D rectangle This class renders a simple 2D rectangle; this rectangl...">
<polygon fill="none" stroke="#000000" points="342,-83.5 342,-102.5 443,-102.5 443,-83.5 342,-83.5"/>
<text text-anchor="middle" x="392.5" y="-90.5" font-family="Helvetica,sans-Serif" font-size="10.00" fill="#000000">Ogre::Rectangle2D</text>
</a>
</g>
</g>
<!-- Node25&#45;&gt;Node26 -->
<g id="edge26" class="edge">
<title>Node25&#45;&gt;Node26</title>
<path fill="none" stroke="#191970" d="M276.2846,-96.0908C298.1198,-95.5101 321.6514,-94.8843 341.7909,-94.3486"/>
<polygon fill="#191970" stroke="#191970" points="275.9616,-92.5981 266.0582,-96.3628 276.1478,-99.5956 275.9616,-92.5981"/>
</g>
<!-- Node27 -->
<g id="node28" class="node">
<title>Node27</title>
<g id="a_node28"><a xlink:href="class_ogre_1_1_volume_1_1_chunk.html" target="_top" xlink:title="A single volume chunk mesh. ">
<polygon fill="none" stroke="#000000" points="337,-45.5 337,-64.5 448,-64.5 448,-45.5 337,-45.5"/>
<text text-anchor="middle" x="392.5" y="-52.5" font-family="Helvetica,sans-Serif" font-size="10.00" fill="#000000">Ogre::Volume::Chunk</text>
</a>
</g>
</g>
<!-- Node25&#45;&gt;Node27 -->
<g id="edge27" class="edge">
<title>Node25&#45;&gt;Node27</title>
<path fill="none" stroke="#191970" d="M256.0398,-86.2116C285.8721,-79.3883 322.9279,-70.9128 350.8933,-64.5164"/>
<polygon fill="#191970" stroke="#191970" points="255.1912,-82.8153 246.2233,-88.4569 256.752,-89.6391 255.1912,-82.8153"/>
</g>
<!-- Node28 -->
<g id="node29" class="node">
<title>Node28</title>
<g id="a_node29"><a xlink:href="class_ogre_1_1_wire_bounding_box.html" target="_top" xlink:title="Allows the rendering of a wireframe bounding box. ">
<polygon fill="none" stroke="#000000" points="331.5,-7.5 331.5,-26.5 453.5,-26.5 453.5,-7.5 331.5,-7.5"/>
<text text-anchor="middle" x="392.5" y="-14.5" font-family="Helvetica,sans-Serif" font-size="10.00" fill="#000000">Ogre::WireBoundingBox</text>
</a>
</g>
</g>
<!-- Node25&#45;&gt;Node28 -->
<g id="edge28" class="edge">
<title>Node25&#45;&gt;Node28</title>
<path fill="none" stroke="#191970" d="M269.2787,-84.6793C273.0124,-83.0051 276.6185,-81.1208 280,-79 301.1154,-65.7571 294.8641,-49.2102 316,-36 322.2665,-32.0834 329.2931,-28.9737 336.4804,-26.5048"/>
<polygon fill="#191970" stroke="#191970" points="267.8072,-81.4972 259.7896,-88.4231 270.3763,-88.0087 267.8072,-81.4972"/>
</g>
</g>
</svg>
