<?xml version="1.0" encoding="UTF-8" standalone="no"?>
<!DOCTYPE svg PUBLIC "-//W3C//DTD SVG 1.1//EN"
 "http://www.w3.org/Graphics/SVG/1.1/DTD/svg11.dtd">
<!-- Generated by graphviz version 2.40.1 (20161225.0304)
 -->
<!-- Title: Graphical Class Hierarchy Pages: 1 -->
<svg width="339pt" height="223pt"
 viewBox="0.00 0.00 339.00 222.50" xmlns="http://www.w3.org/2000/svg" xmlns:xlink="http://www.w3.org/1999/xlink">
<g id="graph0" class="graph" transform="scale(1 1) rotate(0) translate(4 218.5)">
<title>Graphical Class Hierarchy</title>
<!-- Node432 -->
<g id="node1" class="node">
<title>Node432</title>
<g id="a_node1"><a xlink:href="class_ogre_1_1_resource_group_listener.html" target="_top" xlink:title="This class defines an interface which is called back during resource group loading to indicate the pr...">
<polygon fill="none" stroke="#000000" points="0,-195 0,-214 146,-214 146,-195 0,-195"/>
<text text-anchor="middle" x="73" y="-202" font-family="Helvetica,sans-Serif" font-size="10.00" fill="#000000">Ogre::ResourceGroupListener</text>
</a>
</g>
</g>
<!-- Node1 -->
<g id="node2" class="node">
<title>Node1</title>
<g id="a_node2"><a xlink:href="class_ogre_bites_1_1_tray_manager.html" target="_top" xlink:title="Main class to manage a cursor, backdrop, trays and widgets. ">
<polygon fill="none" stroke="#000000" points="195,-176 195,-195 318,-195 318,-176 195,-176"/>
<text text-anchor="middle" x="256.5" y="-183" font-family="Helvetica,sans-Serif" font-size="10.00" fill="#000000">OgreBites::TrayManager</text>
</a>
</g>
</g>
<!-- Node432&#45;&gt;Node1 -->
<g id="edge1" class="edge">
<title>Node432&#45;&gt;Node1</title>
<path fill="none" stroke="#191970" d="M156.0004,-195.906C169.0952,-194.5501 182.43,-193.1694 194.9246,-191.8757"/>
<polygon fill="#191970" stroke="#191970" points="155.6376,-192.4247 146.0513,-196.9361 156.3586,-199.3875 155.6376,-192.4247"/>
</g>
<!-- Node178 -->
<g id="node3" class="node">
<title>Node178</title>
<g id="a_node3"><a xlink:href="struct_ogre_bites_1_1_input_listener.html" target="_top" xlink:title="the return values of the callbacks are ignored by ApplicationContext however they can be used to cont...">
<polygon fill="none" stroke="#000000" points="12,-88 12,-107 134,-107 134,-88 12,-88"/>
<text text-anchor="middle" x="73" y="-95" font-family="Helvetica,sans-Serif" font-size="10.00" fill="#000000">OgreBites::InputListener</text>
</a>
</g>
</g>
<!-- Node178&#45;&gt;Node1 -->
<g id="edge6" class="edge">
<title>Node178&#45;&gt;Node1</title>
<path fill="none" stroke="#191970" d="M95.3922,-112.8554C121.8372,-130.7773 164.446,-158.9324 182,-166.5 190.7028,-170.2518 200.3088,-173.384 209.6476,-175.9517"/>
<polygon fill="#191970" stroke="#191970" points="97.3395,-109.947 87.1031,-107.2144 93.4012,-115.7341 97.3395,-109.947"/>
</g>
<!-- Node179 -->
<g id="node4" class="node">
<title>Node179</title>
<g id="a_node4"><a xlink:href="class_ogre_bites_1_1_advanced_render_controls.html" target="_top" xlink:title="OgreBites::AdvancedRender\lControls">
<polygon fill="none" stroke="#000000" points="186,-126.5 186,-156.5 327,-156.5 327,-126.5 186,-126.5"/>
<text text-anchor="start" x="194" y="-144.5" font-family="Helvetica,sans-Serif" font-size="10.00" fill="#000000">OgreBites::AdvancedRender</text>
<text text-anchor="middle" x="256.5" y="-133.5" font-family="Helvetica,sans-Serif" font-size="10.00" fill="#000000">Controls</text>
</a>
</g>
</g>
<!-- Node178&#45;&gt;Node179 -->
<g id="edge2" class="edge">
<title>Node178&#45;&gt;Node179</title>
<path fill="none" stroke="#191970" d="M122.5619,-109.384C144.4527,-114.6331 170.4394,-120.8642 193.6706,-126.4346"/>
<polygon fill="#191970" stroke="#191970" points="123.3573,-105.9756 112.8168,-107.0473 121.725,-112.7827 123.3573,-105.9756"/>
</g>
<!-- Node180 -->
<g id="node5" class="node">
<title>Node180</title>
<g id="a_node5"><a xlink:href="class_ogre_bites_1_1_camera_man.html" target="_top" xlink:title="Utility class for controlling the camera in samples. ">
<polygon fill="none" stroke="#000000" points="197,-88 197,-107 316,-107 316,-88 197,-88"/>
<text text-anchor="middle" x="256.5" y="-95" font-family="Helvetica,sans-Serif" font-size="10.00" fill="#000000">OgreBites::CameraMan</text>
</a>
</g>
</g>
<!-- Node178&#45;&gt;Node180 -->
<g id="edge3" class="edge">
<title>Node178&#45;&gt;Node180</title>
<path fill="none" stroke="#191970" d="M144.2188,-97.5C161.6387,-97.5 180.0995,-97.5 196.9109,-97.5"/>
<polygon fill="#191970" stroke="#191970" points="144.1029,-94.0001 134.1028,-97.5 144.1028,-101.0001 144.1029,-94.0001"/>
</g>
<!-- Node181 -->
<g id="node6" class="node">
<title>Node181</title>
<g id="a_node6"><a xlink:href="struct_ogre_bites_1_1_im_gui_input_listener.html" target="_top" xlink:title="OgreBites::ImGuiInputListener">
<polygon fill="none" stroke="#000000" points="182,-50 182,-69 331,-69 331,-50 182,-50"/>
<text text-anchor="middle" x="256.5" y="-57" font-family="Helvetica,sans-Serif" font-size="10.00" fill="#000000">OgreBites::ImGuiInputListener</text>
</a>
</g>
</g>
<!-- Node178&#45;&gt;Node181 -->
<g id="edge4" class="edge">
<title>Node178&#45;&gt;Node181</title>
<path fill="none" stroke="#191970" d="M129.4069,-85.819C155.4296,-80.4301 185.9301,-74.1139 210.5282,-69.0201"/>
<polygon fill="#191970" stroke="#191970" points="128.3873,-82.4558 119.3048,-87.911 129.8068,-89.3104 128.3873,-82.4558"/>
</g>
<!-- Node182 -->
<g id="node7" class="node">
<title>Node182</title>
<g id="a_node7"><a xlink:href="class_ogre_bites_1_1_input_listener_chain.html" target="_top" xlink:title="Chain of multiple InputListeners that acts as a single InputListener. ">
<polygon fill="none" stroke="#000000" points="195.5,-.5 195.5,-30.5 317.5,-30.5 317.5,-.5 195.5,-.5"/>
<text text-anchor="start" x="203.5" y="-18.5" font-family="Helvetica,sans-Serif" font-size="10.00" fill="#000000">OgreBites::InputListener</text>
<text text-anchor="middle" x="256.5" y="-7.5" font-family="Helvetica,sans-Serif" font-size="10.00" fill="#000000">Chain</text>
</a>
</g>
</g>
<!-- Node178&#45;&gt;Node182 -->
<g id="edge5" class="edge">
<title>Node178&#45;&gt;Node182</title>
<path fill="none" stroke="#191970" d="M98.1272,-82.9048C119.8723,-70.6301 152.3939,-53.1149 182,-40.5 190.2837,-36.9704 199.2479,-33.5991 207.9911,-30.539"/>
<polygon fill="#191970" stroke="#191970" points="96.1815,-79.9851 89.2258,-87.977 99.6471,-86.067 96.1815,-79.9851"/>
</g>
<!-- Node0 -->
<g id="node8" class="node">
<title>Node0</title>
<g id="a_node8"><a xlink:href="class_ogre_bites_1_1_tray_listener.html" target="_top" xlink:title="Listener class for responding to tray events. ">
<polygon fill="none" stroke="#000000" points="13,-157 13,-176 133,-176 133,-157 13,-157"/>
<text text-anchor="middle" x="73" y="-164" font-family="Helvetica,sans-Serif" font-size="10.00" fill="#000000">OgreBites::TrayListener</text>
</a>
</g>
</g>
<!-- Node0&#45;&gt;Node1 -->
<g id="edge7" class="edge">
<title>Node0&#45;&gt;Node1</title>
<path fill="none" stroke="#191970" d="M143.4468,-173.7942C160.3357,-175.5429 178.2441,-177.3972 194.707,-179.1018"/>
<polygon fill="#191970" stroke="#191970" points="143.3921,-170.2699 133.0848,-172.7213 142.6711,-177.2327 143.3921,-170.2699"/>
</g>
</g>
</svg>
