<?xml version="1.0" encoding="UTF-8" standalone="no"?>
<!DOCTYPE svg PUBLIC "-//W3C//DTD SVG 1.1//EN"
 "http://www.w3.org/Graphics/SVG/1.1/DTD/svg11.dtd">
<!-- Generated by graphviz version 2.40.1 (20161225.0304)
 -->
<!-- Title: Graphical Class Hierarchy Pages: 1 -->
<svg width="293pt" height="1883pt"
 viewBox="0.00 0.00 293.00 1882.50" xmlns="http://www.w3.org/2000/svg" xmlns:xlink="http://www.w3.org/1999/xlink">
<g id="graph0" class="graph" transform="scale(1 1) rotate(0) translate(4 1878.5)">
<title>Graphical Class Hierarchy</title>
<!-- Node1303 -->
<g id="node1" class="node">
<title>Node1303</title>
<polygon fill="none" stroke="#bfbfbf" points="0,-958 0,-977 62,-977 62,-958 0,-958"/>
<text text-anchor="middle" x="31" y="-965" font-family="Helvetica,sans-Serif" font-size="10.00" fill="#000000">shared_ptr</text>
</g>
<!-- Node0 -->
<g id="node2" class="node">
<title>Node0</title>
<g id="a_node2"><a xlink:href="class_ogre_1_1_shared_ptr.html" target="_top" xlink:title="Ogre::SharedPtr\&lt; T \&gt;">
<polygon fill="none" stroke="#000000" points="136,-1855 136,-1874 247,-1874 247,-1855 136,-1855"/>
<text text-anchor="middle" x="191.5" y="-1862" font-family="Helvetica,sans-Serif" font-size="10.00" fill="#000000">Ogre::SharedPtr&lt; T &gt;</text>
</a>
</g>
</g>
<!-- Node1303&#45;&gt;Node0 -->
<g id="edge1" class="edge">
<title>Node1303&#45;&gt;Node0</title>
<path fill="none" stroke="#191970" d="M31.1088,-987.4257C31.9699,-1111.8551 39.3149,-1779.0251 98,-1845.5 107.5375,-1856.3035 121.3911,-1861.9583 135.5257,-1864.7163"/>
<polygon fill="#191970" stroke="#191970" points="34.6068,-987.0947 31.0442,-977.1168 27.607,-987.1386 34.6068,-987.0947"/>
</g>
<!-- Node1305 -->
<g id="node3" class="node">
<title>Node1305</title>
<g id="a_node3"><a xlink:href="class_ogre_1_1_shared_ptr.html" target="_top" xlink:title="Ogre::SharedPtr\&lt; Abstract\lNodeList \&gt;">
<polygon fill="none" stroke="#000000" points="125,-1805.5 125,-1835.5 258,-1835.5 258,-1805.5 125,-1805.5"/>
<text text-anchor="start" x="133" y="-1823.5" font-family="Helvetica,sans-Serif" font-size="10.00" fill="#000000">Ogre::SharedPtr&lt; Abstract</text>
<text text-anchor="middle" x="191.5" y="-1812.5" font-family="Helvetica,sans-Serif" font-size="10.00" fill="#000000">NodeList &gt;</text>
</a>
</g>
</g>
<!-- Node1303&#45;&gt;Node1305 -->
<g id="edge2" class="edge">
<title>Node1303&#45;&gt;Node1305</title>
<path fill="none" stroke="#191970" d="M31.2485,-987.3829C32.9247,-1107.4432 44.2056,-1732.6448 98,-1796.5 105.0184,-1804.831 114.5005,-1810.4786 124.7429,-1814.2685"/>
<polygon fill="#191970" stroke="#191970" points="34.7446,-987.0612 31.1118,-977.1087 27.7452,-987.1544 34.7446,-987.0612"/>
</g>
<!-- Node1306 -->
<g id="node4" class="node">
<title>Node1306</title>
<g id="a_node4"><a xlink:href="class_ogre_1_1_shared_ptr.html" target="_top" xlink:title="Ogre::SharedPtr\&lt; Animable\lValue \&gt;">
<polygon fill="none" stroke="#000000" points="123,-1756.5 123,-1786.5 260,-1786.5 260,-1756.5 123,-1756.5"/>
<text text-anchor="start" x="131" y="-1774.5" font-family="Helvetica,sans-Serif" font-size="10.00" fill="#000000">Ogre::SharedPtr&lt; Animable</text>
<text text-anchor="middle" x="191.5" y="-1763.5" font-family="Helvetica,sans-Serif" font-size="10.00" fill="#000000">Value &gt;</text>
</a>
</g>
</g>
<!-- Node1303&#45;&gt;Node1306 -->
<g id="edge3" class="edge">
<title>Node1303&#45;&gt;Node1306</title>
<path fill="none" stroke="#191970" d="M31.3637,-987.2418C33.6619,-1102.6096 47.7306,-1686.5342 98,-1746.5 104.5847,-1754.3549 113.3402,-1759.8858 122.858,-1763.7544"/>
<polygon fill="#191970" stroke="#191970" points="34.8595,-986.9843 31.1675,-977.0536 27.8608,-987.1191 34.8595,-986.9843"/>
</g>
<!-- Node1307 -->
<g id="node5" class="node">
<title>Node1307</title>
<g id="a_node5"><a xlink:href="class_ogre_1_1_shared_ptr.html" target="_top" xlink:title="Ogre::SharedPtr\&lt; BspLevel \&gt;">
<polygon fill="none" stroke="#000000" points="118.5,-1718 118.5,-1737 264.5,-1737 264.5,-1718 118.5,-1718"/>
<text text-anchor="middle" x="191.5" y="-1725" font-family="Helvetica,sans-Serif" font-size="10.00" fill="#000000">Ogre::SharedPtr&lt; BspLevel &gt;</text>
</a>
</g>
</g>
<!-- Node1303&#45;&gt;Node1307 -->
<g id="edge4" class="edge">
<title>Node1303&#45;&gt;Node1307</title>
<path fill="none" stroke="#191970" d="M31.4041,-987.3625C33.8718,-1099.7816 48.485,-1653.1982 98,-1708.5 103.6352,-1714.7937 110.7359,-1719.3339 118.4946,-1722.5694"/>
<polygon fill="#191970" stroke="#191970" points="34.8984,-987.0492 31.1868,-977.1258 27.8999,-987.1979 34.8984,-987.0492"/>
</g>
<!-- Node1308 -->
<g id="node6" class="node">
<title>Node1308</title>
<g id="a_node6"><a xlink:href="class_ogre_1_1_shared_ptr.html" target="_top" xlink:title="Ogre::SharedPtr\&lt; Controller\lFunction\&lt; Real \&gt; \&gt;">
<polygon fill="none" stroke="#000000" points="122.5,-1668.5 122.5,-1698.5 260.5,-1698.5 260.5,-1668.5 122.5,-1668.5"/>
<text text-anchor="start" x="130.5" y="-1686.5" font-family="Helvetica,sans-Serif" font-size="10.00" fill="#000000">Ogre::SharedPtr&lt; Controller</text>
<text text-anchor="middle" x="191.5" y="-1675.5" font-family="Helvetica,sans-Serif" font-size="10.00" fill="#000000">Function&lt; Real &gt; &gt;</text>
</a>
</g>
</g>
<!-- Node1303&#45;&gt;Node1308 -->
<g id="edge5" class="edge">
<title>Node1303&#45;&gt;Node1308</title>
<path fill="none" stroke="#191970" d="M31.583,-987.3454C34.9226,-1095.1049 53.0788,-1607.0284 98,-1659.5 104.4304,-1667.0112 112.8631,-1672.3349 122.0336,-1676.0806"/>
<polygon fill="#191970" stroke="#191970" points="35.0774,-987.107 31.2763,-977.2175 28.0806,-987.3189 35.0774,-987.107"/>
</g>
<!-- Node1309 -->
<g id="node7" class="node">
<title>Node1309</title>
<g id="a_node7"><a xlink:href="class_ogre_1_1_shared_ptr.html" target="_top" xlink:title="Ogre::SharedPtr\&lt; Controller\lValue\&lt; Real \&gt; \&gt;">
<polygon fill="none" stroke="#000000" points="122.5,-1619.5 122.5,-1649.5 260.5,-1649.5 260.5,-1619.5 122.5,-1619.5"/>
<text text-anchor="start" x="130.5" y="-1637.5" font-family="Helvetica,sans-Serif" font-size="10.00" fill="#000000">Ogre::SharedPtr&lt; Controller</text>
<text text-anchor="middle" x="191.5" y="-1626.5" font-family="Helvetica,sans-Serif" font-size="10.00" fill="#000000">Value&lt; Real &gt; &gt;</text>
</a>
</g>
</g>
<!-- Node1303&#45;&gt;Node1309 -->
<g id="edge6" class="edge">
<title>Node1303&#45;&gt;Node1309</title>
<path fill="none" stroke="#191970" d="M31.7553,-987.4916C35.8314,-1090.7732 56.5709,-1560.9828 98,-1609.5 104.4377,-1617.0391 112.8743,-1622.431 122.0466,-1626.2651"/>
<polygon fill="#191970" stroke="#191970" points="35.2424,-987.0875 31.3581,-977.2304 28.2476,-987.3584 35.2424,-987.0875"/>
</g>
<!-- Node1310 -->
<g id="node8" class="node">
<title>Node1310</title>
<g id="a_node8"><a xlink:href="class_ogre_1_1_shared_ptr.html" target="_top" xlink:title="Ogre::SharedPtr\&lt; DataStream \&gt;">
<polygon fill="none" stroke="#000000" points="112.5,-1581 112.5,-1600 270.5,-1600 270.5,-1581 112.5,-1581"/>
<text text-anchor="middle" x="191.5" y="-1588" font-family="Helvetica,sans-Serif" font-size="10.00" fill="#000000">Ogre::SharedPtr&lt; DataStream &gt;</text>
</a>
</g>
</g>
<!-- Node1303&#45;&gt;Node1310 -->
<g id="edge7" class="edge">
<title>Node1303&#45;&gt;Node1310</title>
<path fill="none" stroke="#191970" d="M31.829,-987.2797C36.1669,-1086.5335 57.6083,-1527.2989 98,-1571.5 102.1344,-1576.0243 107.0268,-1579.6377 112.3718,-1582.509"/>
<polygon fill="#191970" stroke="#191970" points="35.3196,-986.9829 31.394,-977.1422 28.326,-987.283 35.3196,-986.9829"/>
</g>
<!-- Node1311 -->
<g id="node9" class="node">
<title>Node1311</title>
<g id="a_node9"><a xlink:href="class_ogre_1_1_shared_ptr.html" target="_top" xlink:title="Ogre::SharedPtr\&lt; Font \&gt;">
<polygon fill="none" stroke="#000000" points="129,-1543 129,-1562 254,-1562 254,-1543 129,-1543"/>
<text text-anchor="middle" x="191.5" y="-1550" font-family="Helvetica,sans-Serif" font-size="10.00" fill="#000000">Ogre::SharedPtr&lt; Font &gt;</text>
</a>
</g>
</g>
<!-- Node1303&#45;&gt;Node1311 -->
<g id="edge8" class="edge">
<title>Node1303&#45;&gt;Node1311</title>
<path fill="none" stroke="#191970" d="M31.9965,-987.5304C36.9453,-1083.3944 60.1651,-1492.4012 98,-1533.5 106.0776,-1542.2744 117.0075,-1547.6162 128.5464,-1550.762"/>
<polygon fill="#191970" stroke="#191970" points="35.4867,-987.2473 31.4838,-977.4378 28.4957,-987.6025 35.4867,-987.2473"/>
</g>
<!-- Node1312 -->
<g id="node10" class="node">
<title>Node1312</title>
<g id="a_node10"><a xlink:href="class_ogre_1_1_shared_ptr.html" target="_top" xlink:title="Ogre::SharedPtr\&lt; GpuLogical\lBufferStruct \&gt;">
<polygon fill="none" stroke="#000000" points="119,-1493.5 119,-1523.5 264,-1523.5 264,-1493.5 119,-1493.5"/>
<text text-anchor="start" x="127" y="-1511.5" font-family="Helvetica,sans-Serif" font-size="10.00" fill="#000000">Ogre::SharedPtr&lt; GpuLogical</text>
<text text-anchor="middle" x="191.5" y="-1500.5" font-family="Helvetica,sans-Serif" font-size="10.00" fill="#000000">BufferStruct &gt;</text>
</a>
</g>
</g>
<!-- Node1303&#45;&gt;Node1312 -->
<g id="edge9" class="edge">
<title>Node1303&#45;&gt;Node1312</title>
<path fill="none" stroke="#191970" d="M32.2727,-987.4463C38.2143,-1077.8602 64.3593,-1446.468 98,-1484.5 103.6628,-1490.9019 110.7801,-1495.7056 118.5477,-1499.2938"/>
<polygon fill="#191970" stroke="#191970" points="35.7623,-987.172 31.6222,-977.4196 28.777,-987.6253 35.7623,-987.172"/>
</g>
<!-- Node1313 -->
<g id="node11" class="node">
<title>Node1313</title>
<g id="a_node11"><a xlink:href="class_ogre_1_1_shared_ptr.html" target="_top" xlink:title="Ogre::SharedPtr\&lt; GpuNamed\lConstants \&gt;">
<polygon fill="none" stroke="#000000" points="118.5,-1444.5 118.5,-1474.5 264.5,-1474.5 264.5,-1444.5 118.5,-1444.5"/>
<text text-anchor="start" x="126.5" y="-1462.5" font-family="Helvetica,sans-Serif" font-size="10.00" fill="#000000">Ogre::SharedPtr&lt; GpuNamed</text>
<text text-anchor="middle" x="191.5" y="-1451.5" font-family="Helvetica,sans-Serif" font-size="10.00" fill="#000000">Constants &gt;</text>
</a>
</g>
</g>
<!-- Node1303&#45;&gt;Node1313 -->
<g id="edge10" class="edge">
<title>Node1303&#45;&gt;Node1313</title>
<path fill="none" stroke="#191970" d="M32.5637,-987.3493C39.4053,-1072.0403 67.7172,-1400.3887 98,-1434.5 103.5777,-1440.7828 110.5433,-1445.5651 118.1419,-1449.1933"/>
<polygon fill="#191970" stroke="#191970" points="36.0436,-986.9569 31.7582,-977.2674 29.0658,-987.5144 36.0436,-986.9569"/>
</g>
<!-- Node1314 -->
<g id="node12" class="node">
<title>Node1314</title>
<g id="a_node12"><a xlink:href="class_ogre_1_1_shared_ptr.html" target="_top" xlink:title="Ogre::SharedPtr\&lt; GpuProgram \&gt;">
<polygon fill="none" stroke="#000000" points="111.5,-1406 111.5,-1425 271.5,-1425 271.5,-1406 111.5,-1406"/>
<text text-anchor="middle" x="191.5" y="-1413" font-family="Helvetica,sans-Serif" font-size="10.00" fill="#000000">Ogre::SharedPtr&lt; GpuProgram &gt;</text>
</a>
</g>
</g>
<!-- Node1303&#45;&gt;Node1314 -->
<g id="edge11" class="edge">
<title>Node1303&#45;&gt;Node1314</title>
<path fill="none" stroke="#191970" d="M31.2085,-987.2977C32.4292,-1063.5053 40.7898,-1336.6225 98,-1396.5 101.8906,-1400.572 106.3971,-1403.8975 111.2871,-1406.6031"/>
<polygon fill="#191970" stroke="#191970" points="34.7065,-987.1253 31.0713,-977.1737 27.7072,-987.2202 34.7065,-987.1253"/>
</g>
<!-- Node1315 -->
<g id="node13" class="node">
<title>Node1315</title>
<g id="a_node13"><a xlink:href="class_ogre_1_1_shared_ptr.html" target="_top" xlink:title="Ogre::SharedPtr\&lt; GpuProgram\lParameters \&gt;">
<polygon fill="none" stroke="#000000" points="116,-1356.5 116,-1386.5 267,-1386.5 267,-1356.5 116,-1356.5"/>
<text text-anchor="start" x="124" y="-1374.5" font-family="Helvetica,sans-Serif" font-size="10.00" fill="#000000">Ogre::SharedPtr&lt; GpuProgram</text>
<text text-anchor="middle" x="191.5" y="-1363.5" font-family="Helvetica,sans-Serif" font-size="10.00" fill="#000000">Parameters &gt;</text>
</a>
</g>
</g>
<!-- Node1303&#45;&gt;Node1315 -->
<g id="edge12" class="edge">
<title>Node1303&#45;&gt;Node1315</title>
<path fill="none" stroke="#191970" d="M31.7359,-987.171C34.7613,-1057.3483 48.5236,-1294.0733 98,-1347.5 103.0103,-1352.9103 109.0604,-1357.1698 115.6448,-1360.5143"/>
<polygon fill="#191970" stroke="#191970" points="35.2283,-986.9096 31.3261,-977.0596 28.234,-987.1931 35.2283,-986.9096"/>
</g>
<!-- Node1316 -->
<g id="node14" class="node">
<title>Node1316</title>
<g id="a_node14"><a xlink:href="class_ogre_1_1_shared_ptr.html" target="_top" xlink:title="Ogre::SharedPtr\&lt; GpuShared\lParameters \&gt;">
<polygon fill="none" stroke="#000000" points="119,-1307.5 119,-1337.5 264,-1337.5 264,-1307.5 119,-1307.5"/>
<text text-anchor="start" x="127" y="-1325.5" font-family="Helvetica,sans-Serif" font-size="10.00" fill="#000000">Ogre::SharedPtr&lt; GpuShared</text>
<text text-anchor="middle" x="191.5" y="-1314.5" font-family="Helvetica,sans-Serif" font-size="10.00" fill="#000000">Parameters &gt;</text>
</a>
</g>
</g>
<!-- Node1303&#45;&gt;Node1316 -->
<g id="edge13" class="edge">
<title>Node1303&#45;&gt;Node1316</title>
<path fill="none" stroke="#191970" d="M32.29,-987.0783C36.9032,-1051.1204 54.6735,-1252.8808 98,-1298.5 103.8859,-1304.6974 111.1375,-1309.378 118.977,-1312.9003"/>
<polygon fill="#191970" stroke="#191970" points="35.7812,-986.83 31.5986,-977.0957 28.798,-987.3137 35.7812,-986.83"/>
</g>
<!-- Node1317 -->
<g id="node15" class="node">
<title>Node1317</title>
<g id="a_node15"><a xlink:href="class_ogre_1_1_shared_ptr.html" target="_top" xlink:title="Ogre::SharedPtr\&lt; Hardware\lBuffer \&gt;">
<polygon fill="none" stroke="#000000" points="122.5,-1258.5 122.5,-1288.5 260.5,-1288.5 260.5,-1258.5 122.5,-1258.5"/>
<text text-anchor="start" x="130.5" y="-1276.5" font-family="Helvetica,sans-Serif" font-size="10.00" fill="#000000">Ogre::SharedPtr&lt; Hardware</text>
<text text-anchor="middle" x="191.5" y="-1265.5" font-family="Helvetica,sans-Serif" font-size="10.00" fill="#000000">Buffer &gt;</text>
</a>
</g>
</g>
<!-- Node1303&#45;&gt;Node1317 -->
<g id="edge14" class="edge">
<title>Node1303&#45;&gt;Node1317</title>
<path fill="none" stroke="#191970" d="M33.0402,-987.1174C39.4189,-1044.7103 60.8108,-1211.6355 98,-1249.5 104.8111,-1256.4347 113.3353,-1261.4591 122.4467,-1265.0828"/>
<polygon fill="#191970" stroke="#191970" points="36.515,-986.695 31.9644,-977.1273 29.5553,-987.4445 36.515,-986.695"/>
</g>
<!-- Node1318 -->
<g id="node16" class="node">
<title>Node1318</title>
<g id="a_node16"><a xlink:href="class_ogre_1_1_shared_ptr.html" target="_top" xlink:title="Ogre::SharedPtr\&lt; Hardware\lIndexBuffer \&gt;">
<polygon fill="none" stroke="#000000" points="122.5,-1209.5 122.5,-1239.5 260.5,-1239.5 260.5,-1209.5 122.5,-1209.5"/>
<text text-anchor="start" x="130.5" y="-1227.5" font-family="Helvetica,sans-Serif" font-size="10.00" fill="#000000">Ogre::SharedPtr&lt; Hardware</text>
<text text-anchor="middle" x="191.5" y="-1216.5" font-family="Helvetica,sans-Serif" font-size="10.00" fill="#000000">IndexBuffer &gt;</text>
</a>
</g>
</g>
<!-- Node1303&#45;&gt;Node1318 -->
<g id="edge15" class="edge">
<title>Node1303&#45;&gt;Node1318</title>
<path fill="none" stroke="#191970" d="M34.0635,-986.9484C42.3778,-1037.3232 66.8483,-1170.231 98,-1200.5 104.851,-1207.1569 113.2866,-1212.0392 122.2613,-1215.6072"/>
<polygon fill="#191970" stroke="#191970" points="37.5089,-986.3288 32.4584,-977.0152 30.5985,-987.4455 37.5089,-986.3288"/>
</g>
<!-- Node1319 -->
<g id="node17" class="node">
<title>Node1319</title>
<g id="a_node17"><a xlink:href="class_ogre_1_1_shared_ptr.html" target="_top" xlink:title="Ogre::SharedPtr\&lt; Hardware\lUniformBuffer \&gt;">
<polygon fill="none" stroke="#000000" points="122.5,-1160.5 122.5,-1190.5 260.5,-1190.5 260.5,-1160.5 122.5,-1160.5"/>
<text text-anchor="start" x="130.5" y="-1178.5" font-family="Helvetica,sans-Serif" font-size="10.00" fill="#000000">Ogre::SharedPtr&lt; Hardware</text>
<text text-anchor="middle" x="191.5" y="-1167.5" font-family="Helvetica,sans-Serif" font-size="10.00" fill="#000000">UniformBuffer &gt;</text>
</a>
</g>
</g>
<!-- Node1303&#45;&gt;Node1319 -->
<g id="edge16" class="edge">
<title>Node1303&#45;&gt;Node1319</title>
<path fill="none" stroke="#191970" d="M32.3421,-987.4206C35.9889,-1025.2025 49.3812,-1107.4244 98,-1151.5 104.9531,-1157.8033 113.3383,-1162.4974 122.1964,-1165.9846"/>
<polygon fill="#191970" stroke="#191970" points="35.8102,-986.8897 31.4951,-977.2134 28.8342,-987.4686 35.8102,-986.8897"/>
</g>
<!-- Node1320 -->
<g id="node18" class="node">
<title>Node1320</title>
<g id="a_node18"><a xlink:href="class_ogre_1_1_shared_ptr.html" target="_top" xlink:title="Ogre::SharedPtr\&lt; Hardware\lVertexBuffer \&gt;">
<polygon fill="none" stroke="#000000" points="122.5,-1111.5 122.5,-1141.5 260.5,-1141.5 260.5,-1111.5 122.5,-1111.5"/>
<text text-anchor="start" x="130.5" y="-1129.5" font-family="Helvetica,sans-Serif" font-size="10.00" fill="#000000">Ogre::SharedPtr&lt; Hardware</text>
<text text-anchor="middle" x="191.5" y="-1118.5" font-family="Helvetica,sans-Serif" font-size="10.00" fill="#000000">VertexBuffer &gt;</text>
</a>
</g>
</g>
<!-- Node1303&#45;&gt;Node1320 -->
<g id="edge17" class="edge">
<title>Node1303&#45;&gt;Node1320</title>
<path fill="none" stroke="#191970" d="M35.2004,-986.9835C42.6079,-1016.5348 60.857,-1072.4216 98,-1102.5 105.1632,-1108.3008 113.5642,-1112.7168 122.3405,-1116.0753"/>
<polygon fill="#191970" stroke="#191970" points="38.5635,-985.9944 32.8755,-977.0559 31.7479,-987.5906 38.5635,-985.9944"/>
</g>
<!-- Node1321 -->
<g id="node19" class="node">
<title>Node1321</title>
<g id="a_node19"><a xlink:href="class_ogre_1_1_shared_ptr.html" target="_top" xlink:title="Ogre::SharedPtr\&lt; HighLevel\lGpuProgram \&gt;">
<polygon fill="none" stroke="#000000" points="121.5,-1062.5 121.5,-1092.5 261.5,-1092.5 261.5,-1062.5 121.5,-1062.5"/>
<text text-anchor="start" x="129.5" y="-1080.5" font-family="Helvetica,sans-Serif" font-size="10.00" fill="#000000">Ogre::SharedPtr&lt; HighLevel</text>
<text text-anchor="middle" x="191.5" y="-1069.5" font-family="Helvetica,sans-Serif" font-size="10.00" fill="#000000">GpuProgram &gt;</text>
</a>
</g>
</g>
<!-- Node1303&#45;&gt;Node1321 -->
<g id="edge18" class="edge">
<title>Node1303&#45;&gt;Node1321</title>
<path fill="none" stroke="#191970" d="M40.7163,-985.8883C51.9423,-1005.344 72.2229,-1035.5279 98,-1052.5 105.1574,-1057.2125 113.1738,-1061.0396 121.423,-1064.147"/>
<polygon fill="#191970" stroke="#191970" points="43.731,-984.1076 35.819,-977.0613 37.61,-987.5037 43.731,-984.1076"/>
</g>
<!-- Node1322 -->
<g id="node20" class="node">
<title>Node1322</title>
<g id="a_node20"><a xlink:href="class_ogre_1_1_shared_ptr.html" target="_top" xlink:title="Ogre::SharedPtr\&lt; Material \&gt;">
<polygon fill="none" stroke="#000000" points="121.5,-1024 121.5,-1043 261.5,-1043 261.5,-1024 121.5,-1024"/>
<text text-anchor="middle" x="191.5" y="-1031" font-family="Helvetica,sans-Serif" font-size="10.00" fill="#000000">Ogre::SharedPtr&lt; Material &gt;</text>
</a>
</g>
</g>
<!-- Node1303&#45;&gt;Node1322 -->
<g id="edge19" class="edge">
<title>Node1303&#45;&gt;Node1322</title>
<path fill="none" stroke="#191970" d="M49.5209,-983.6543C62.3174,-993.9849 80.1827,-1006.8385 98,-1014.5 106.9781,-1018.3606 116.7842,-1021.451 126.5598,-1023.921"/>
<polygon fill="#191970" stroke="#191970" points="51.4577,-980.7124 41.5344,-977.0002 46.9769,-986.0904 51.4577,-980.7124"/>
</g>
<!-- Node1323 -->
<g id="node21" class="node">
<title>Node1323</title>
<g id="a_node21"><a xlink:href="class_ogre_1_1_shared_ptr.html" target="_top" xlink:title="Ogre::SharedPtr\&lt; MemoryData\lStream \&gt;">
<polygon fill="none" stroke="#000000" points="115.5,-974.5 115.5,-1004.5 267.5,-1004.5 267.5,-974.5 115.5,-974.5"/>
<text text-anchor="start" x="123.5" y="-992.5" font-family="Helvetica,sans-Serif" font-size="10.00" fill="#000000">Ogre::SharedPtr&lt; MemoryData</text>
<text text-anchor="middle" x="191.5" y="-981.5" font-family="Helvetica,sans-Serif" font-size="10.00" fill="#000000">Stream &gt;</text>
</a>
</g>
</g>
<!-- Node1303&#45;&gt;Node1323 -->
<g id="edge20" class="edge">
<title>Node1303&#45;&gt;Node1323</title>
<path fill="none" stroke="#191970" d="M72.4372,-973.1799C85.5808,-974.9815 100.5541,-977.0339 115.3417,-979.0609"/>
<polygon fill="#191970" stroke="#191970" points="72.7097,-969.6846 62.327,-971.794 71.7591,-976.6197 72.7097,-969.6846"/>
</g>
<!-- Node1324 -->
<g id="node22" class="node">
<title>Node1324</title>
<g id="a_node22"><a xlink:href="class_ogre_1_1_shared_ptr.html" target="_top" xlink:title="Ogre::SharedPtr\&lt; Mesh \&gt;">
<polygon fill="none" stroke="#000000" points="127,-936 127,-955 256,-955 256,-936 127,-936"/>
<text text-anchor="middle" x="191.5" y="-943" font-family="Helvetica,sans-Serif" font-size="10.00" fill="#000000">Ogre::SharedPtr&lt; Mesh &gt;</text>
</a>
</g>
</g>
<!-- Node1303&#45;&gt;Node1324 -->
<g id="edge21" class="edge">
<title>Node1303&#45;&gt;Node1324</title>
<path fill="none" stroke="#191970" d="M72.7039,-961.7836C89.1809,-959.5251 108.5011,-956.8768 126.7164,-954.38"/>
<polygon fill="#191970" stroke="#191970" points="71.7591,-958.3803 62.327,-963.206 72.7097,-965.3154 71.7591,-958.3803"/>
</g>
<!-- Node1325 -->
<g id="node23" class="node">
<title>Node1325</title>
<g id="a_node23"><a xlink:href="class_ogre_1_1_shared_ptr.html" target="_top" xlink:title="Ogre::SharedPtr\&lt; Ogre\l::ControllerFunction\l\&lt; Real \&gt; \&gt;">
<polygon fill="none" stroke="#000000" points="133,-876 133,-917 250,-917 250,-876 133,-876"/>
<text text-anchor="start" x="141" y="-905" font-family="Helvetica,sans-Serif" font-size="10.00" fill="#000000">Ogre::SharedPtr&lt; Ogre</text>
<text text-anchor="start" x="141" y="-894" font-family="Helvetica,sans-Serif" font-size="10.00" fill="#000000">::ControllerFunction</text>
<text text-anchor="middle" x="191.5" y="-883" font-family="Helvetica,sans-Serif" font-size="10.00" fill="#000000">&lt; Real &gt; &gt;</text>
</a>
</g>
</g>
<!-- Node1303&#45;&gt;Node1325 -->
<g id="edge22" class="edge">
<title>Node1303&#45;&gt;Node1325</title>
<path fill="none" stroke="#191970" d="M53.0998,-952.1255C65.8177,-943.7577 82.3386,-933.6792 98,-926.5 109.003,-921.4563 121.0947,-916.9026 132.8249,-912.9552"/>
<polygon fill="#191970" stroke="#191970" points="50.9271,-949.3686 44.578,-957.8503 54.8306,-955.1792 50.9271,-949.3686"/>
</g>
<!-- Node1326 -->
<g id="node24" class="node">
<title>Node1326</title>
<g id="a_node24"><a xlink:href="class_ogre_1_1_shared_ptr.html" target="_top" xlink:title="Ogre::SharedPtr\&lt; Ogre\l::ControllerFunction\l\&lt; T \&gt; \&gt;">
<polygon fill="none" stroke="#000000" points="133,-816 133,-857 250,-857 250,-816 133,-816"/>
<text text-anchor="start" x="141" y="-845" font-family="Helvetica,sans-Serif" font-size="10.00" fill="#000000">Ogre::SharedPtr&lt; Ogre</text>
<text text-anchor="start" x="141" y="-834" font-family="Helvetica,sans-Serif" font-size="10.00" fill="#000000">::ControllerFunction</text>
<text text-anchor="middle" x="191.5" y="-823" font-family="Helvetica,sans-Serif" font-size="10.00" fill="#000000">&lt; T &gt; &gt;</text>
</a>
</g>
</g>
<!-- Node1303&#45;&gt;Node1326 -->
<g id="edge23" class="edge">
<title>Node1303&#45;&gt;Node1326</title>
<path fill="none" stroke="#191970" d="M38.7941,-948.6056C49.0908,-925.9102 69.3346,-888.1913 98,-866.5 108.1957,-858.7848 120.4426,-853.0153 132.6636,-848.7137"/>
<polygon fill="#191970" stroke="#191970" points="35.546,-947.2982 34.7686,-957.8645 41.9656,-950.0893 35.546,-947.2982"/>
</g>
<!-- Node1327 -->
<g id="node25" class="node">
<title>Node1327</title>
<g id="a_node25"><a xlink:href="class_ogre_1_1_shared_ptr.html" target="_top" xlink:title="Ogre::SharedPtr\&lt; Ogre\l::ControllerValue\&lt; Real \&gt; \&gt;">
<polygon fill="none" stroke="#000000" points="123,-766.5 123,-796.5 260,-796.5 260,-766.5 123,-766.5"/>
<text text-anchor="start" x="131" y="-784.5" font-family="Helvetica,sans-Serif" font-size="10.00" fill="#000000">Ogre::SharedPtr&lt; Ogre</text>
<text text-anchor="middle" x="191.5" y="-773.5" font-family="Helvetica,sans-Serif" font-size="10.00" fill="#000000">::ControllerValue&lt; Real &gt; &gt;</text>
</a>
</g>
</g>
<!-- Node1303&#45;&gt;Node1327 -->
<g id="edge24" class="edge">
<title>Node1303&#45;&gt;Node1327</title>
<path fill="none" stroke="#191970" d="M33.5453,-947.7544C38.9967,-913.7358 55.0134,-844.1154 98,-806.5 105.2077,-800.1929 113.8411,-795.455 122.908,-791.9003"/>
<polygon fill="#191970" stroke="#191970" points="30.0559,-947.4285 32.0779,-957.8286 36.9828,-948.4376 30.0559,-947.4285"/>
</g>
<!-- Node1328 -->
<g id="node26" class="node">
<title>Node1328</title>
<g id="a_node26"><a xlink:href="class_ogre_1_1_shared_ptr.html" target="_top" xlink:title="Ogre::SharedPtr\&lt; Ogre\l::ControllerValue\&lt; T \&gt; \&gt;">
<polygon fill="none" stroke="#000000" points="130.5,-717.5 130.5,-747.5 252.5,-747.5 252.5,-717.5 130.5,-717.5"/>
<text text-anchor="start" x="138.5" y="-735.5" font-family="Helvetica,sans-Serif" font-size="10.00" fill="#000000">Ogre::SharedPtr&lt; Ogre</text>
<text text-anchor="middle" x="191.5" y="-724.5" font-family="Helvetica,sans-Serif" font-size="10.00" fill="#000000">::ControllerValue&lt; T &gt; &gt;</text>
</a>
</g>
</g>
<!-- Node1303&#45;&gt;Node1328 -->
<g id="edge25" class="edge">
<title>Node1303&#45;&gt;Node1328</title>
<path fill="none" stroke="#191970" d="M34.7778,-947.8387C44.1693,-900.9246 69.8549,-784.3371 98,-757.5 106.8773,-749.0353 118.2946,-743.3653 130.0815,-739.5844"/>
<polygon fill="#191970" stroke="#191970" points="31.2881,-947.4458 32.7948,-957.9329 38.1569,-948.7952 31.2881,-947.4458"/>
</g>
<!-- Node1329 -->
<g id="node27" class="node">
<title>Node1329</title>
<g id="a_node27"><a xlink:href="class_ogre_1_1_shared_ptr.html" target="_top" xlink:title="Ogre::SharedPtr\&lt; Ogre\l::D3D11VideoModeList \&gt;">
<polygon fill="none" stroke="#000000" points="128,-668.5 128,-698.5 255,-698.5 255,-668.5 128,-668.5"/>
<text text-anchor="start" x="136" y="-686.5" font-family="Helvetica,sans-Serif" font-size="10.00" fill="#000000">Ogre::SharedPtr&lt; Ogre</text>
<text text-anchor="middle" x="191.5" y="-675.5" font-family="Helvetica,sans-Serif" font-size="10.00" fill="#000000">::D3D11VideoModeList &gt;</text>
</a>
</g>
</g>
<!-- Node1303&#45;&gt;Node1329 -->
<g id="edge26" class="edge">
<title>Node1303&#45;&gt;Node1329</title>
<path fill="none" stroke="#191970" d="M33.5255,-947.7332C40.8681,-893.2884 63.8759,-742.9026 98,-708.5 106.1648,-700.2686 116.7208,-694.6582 127.7857,-690.854"/>
<polygon fill="#191970" stroke="#191970" points="30.033,-947.4474 32.1981,-957.8186 36.9731,-948.3609 30.033,-947.4474"/>
</g>
<!-- Node1330 -->
<g id="node28" class="node">
<title>Node1330</title>
<g id="a_node28"><a xlink:href="class_ogre_1_1_shared_ptr.html" target="_top" xlink:title="Ogre::SharedPtr\&lt; Ogre\l::GLStateCacheManagerCommon \&gt;">
<polygon fill="none" stroke="#000000" points="105,-619.5 105,-649.5 278,-649.5 278,-619.5 105,-619.5"/>
<text text-anchor="start" x="113" y="-637.5" font-family="Helvetica,sans-Serif" font-size="10.00" fill="#000000">Ogre::SharedPtr&lt; Ogre</text>
<text text-anchor="middle" x="191.5" y="-626.5" font-family="Helvetica,sans-Serif" font-size="10.00" fill="#000000">::GLStateCacheManagerCommon &gt;</text>
</a>
</g>
</g>
<!-- Node1303&#45;&gt;Node1330 -->
<g id="edge27" class="edge">
<title>Node1303&#45;&gt;Node1330</title>
<path fill="none" stroke="#191970" d="M32.6474,-947.7349C38.1427,-886.5152 57.8116,-701.6261 98,-659.5 101.5955,-655.7311 105.6913,-652.5084 110.1135,-649.7548"/>
<polygon fill="#191970" stroke="#191970" points="29.1379,-947.6939 31.7599,-957.9592 36.1117,-948.2994 29.1379,-947.6939"/>
</g>
<!-- Node1331 -->
<g id="node29" class="node">
<title>Node1331</title>
<g id="a_node29"><a xlink:href="class_ogre_1_1_shared_ptr.html" target="_top" xlink:title="Ogre::SharedPtr\&lt; Ogre\l::RTShader::DualQuaternionSkinning \&gt;">
<polygon fill="none" stroke="#000000" points="98,-570.5 98,-600.5 285,-600.5 285,-570.5 98,-570.5"/>
<text text-anchor="start" x="106" y="-588.5" font-family="Helvetica,sans-Serif" font-size="10.00" fill="#000000">Ogre::SharedPtr&lt; Ogre</text>
<text text-anchor="middle" x="191.5" y="-577.5" font-family="Helvetica,sans-Serif" font-size="10.00" fill="#000000">::RTShader::DualQuaternionSkinning &gt;</text>
</a>
</g>
</g>
<!-- Node1303&#45;&gt;Node1331 -->
<g id="edge28" class="edge">
<title>Node1303&#45;&gt;Node1331</title>
<path fill="none" stroke="#191970" d="M32.0047,-947.7381C35.8324,-880.2698 51.699,-660.4483 98,-610.5 101.5411,-606.6799 105.5957,-603.4184 109.9874,-600.6363"/>
<polygon fill="#191970" stroke="#191970" points="28.5028,-947.6811 31.4577,-957.8555 35.4926,-948.059 28.5028,-947.6811"/>
</g>
<!-- Node1332 -->
<g id="node30" class="node">
<title>Node1332</title>
<g id="a_node30"><a xlink:href="class_ogre_1_1_shared_ptr.html" target="_top" xlink:title="Ogre::SharedPtr\&lt; Ogre\l::RTShader::HardwareSkinning\lTechnique \&gt;">
<polygon fill="none" stroke="#000000" points="115.5,-510 115.5,-551 267.5,-551 267.5,-510 115.5,-510"/>
<text text-anchor="start" x="123.5" y="-539" font-family="Helvetica,sans-Serif" font-size="10.00" fill="#000000">Ogre::SharedPtr&lt; Ogre</text>
<text text-anchor="start" x="123.5" y="-528" font-family="Helvetica,sans-Serif" font-size="10.00" fill="#000000">::RTShader::HardwareSkinning</text>
<text text-anchor="middle" x="191.5" y="-517" font-family="Helvetica,sans-Serif" font-size="10.00" fill="#000000">Technique &gt;</text>
</a>
</g>
</g>
<!-- Node1303&#45;&gt;Node1332 -->
<g id="edge29" class="edge">
<title>Node1303&#45;&gt;Node1332</title>
<path fill="none" stroke="#191970" d="M31.6346,-947.5558C34.3584,-874.2326 47.3395,-620.7868 98,-561.5 102.8883,-555.7794 108.8583,-551.1094 115.3938,-547.298"/>
<polygon fill="#191970" stroke="#191970" points="28.1309,-947.6043 31.2814,-957.7198 35.1267,-947.8475 28.1309,-947.6043"/>
</g>
<!-- Node1333 -->
<g id="node31" class="node">
<title>Node1333</title>
<g id="a_node31"><a xlink:href="class_ogre_1_1_shared_ptr.html" target="_top" xlink:title="Ogre::SharedPtr\&lt; Ogre\l::RTShader::LinearSkinning \&gt;">
<polygon fill="none" stroke="#000000" points="118.5,-460.5 118.5,-490.5 264.5,-490.5 264.5,-460.5 118.5,-460.5"/>
<text text-anchor="start" x="126.5" y="-478.5" font-family="Helvetica,sans-Serif" font-size="10.00" fill="#000000">Ogre::SharedPtr&lt; Ogre</text>
<text text-anchor="middle" x="191.5" y="-467.5" font-family="Helvetica,sans-Serif" font-size="10.00" fill="#000000">::RTShader::LinearSkinning &gt;</text>
</a>
</g>
</g>
<!-- Node1303&#45;&gt;Node1333 -->
<g id="edge30" class="edge">
<title>Node1303&#45;&gt;Node1333</title>
<path fill="none" stroke="#191970" d="M32.5637,-947.6507C39.4053,-862.9597 67.7172,-534.6113 98,-500.5 103.5777,-494.2172 110.5433,-489.4349 118.1419,-485.8067"/>
<polygon fill="#191970" stroke="#191970" points="29.0658,-947.4856 31.7582,-957.7326 36.0436,-948.0431 29.0658,-947.4856"/>
</g>
<!-- Node1334 -->
<g id="node32" class="node">
<title>Node1334</title>
<g id="a_node32"><a xlink:href="class_ogre_1_1_shared_ptr.html" target="_top" xlink:title="Ogre::SharedPtr\&lt; Ogre\l::Vector \&gt;">
<polygon fill="none" stroke="#000000" points="133,-411.5 133,-441.5 250,-441.5 250,-411.5 133,-411.5"/>
<text text-anchor="start" x="141" y="-429.5" font-family="Helvetica,sans-Serif" font-size="10.00" fill="#000000">Ogre::SharedPtr&lt; Ogre</text>
<text text-anchor="middle" x="191.5" y="-418.5" font-family="Helvetica,sans-Serif" font-size="10.00" fill="#000000">::Vector &gt;</text>
</a>
</g>
</g>
<!-- Node1303&#45;&gt;Node1334 -->
<g id="edge31" class="edge">
<title>Node1303&#45;&gt;Node1334</title>
<path fill="none" stroke="#191970" d="M32.2841,-947.5998C38.2759,-857.3939 64.609,-489.623 98,-451.5 106.9675,-441.2616 119.6209,-434.9994 132.7298,-431.2222"/>
<polygon fill="#191970" stroke="#191970" points="28.79,-947.3957 31.6279,-957.6034 35.775,-947.8539 28.79,-947.3957"/>
</g>
<!-- Node1335 -->
<g id="node33" class="node">
<title>Node1335</title>
<g id="a_node33"><a xlink:href="class_ogre_1_1_shared_ptr.html" target="_top" xlink:title="Ogre::SharedPtr\&lt; RenderSystem\lData \&gt;">
<polygon fill="none" stroke="#000000" points="111,-362.5 111,-392.5 272,-392.5 272,-362.5 111,-362.5"/>
<text text-anchor="start" x="119" y="-380.5" font-family="Helvetica,sans-Serif" font-size="10.00" fill="#000000">Ogre::SharedPtr&lt; RenderSystem</text>
<text text-anchor="middle" x="191.5" y="-369.5" font-family="Helvetica,sans-Serif" font-size="10.00" fill="#000000">Data &gt;</text>
</a>
</g>
</g>
<!-- Node1303&#45;&gt;Node1335 -->
<g id="edge32" class="edge">
<title>Node1303&#45;&gt;Node1335</title>
<path fill="none" stroke="#191970" d="M32.0517,-947.5519C37.2579,-852.0759 61.4909,-444.6523 98,-402.5 101.7403,-398.1816 106.1363,-394.5693 110.9479,-391.5517"/>
<polygon fill="#191970" stroke="#191970" points="28.5533,-947.43 31.5116,-957.6034 35.5432,-947.8057 28.5533,-947.43"/>
</g>
<!-- Node1336 -->
<g id="node34" class="node">
<title>Node1336</title>
<g id="a_node34"><a xlink:href="class_ogre_1_1_shared_ptr.html" target="_top" xlink:title="Ogre::SharedPtr\&lt; Resource \&gt;">
<polygon fill="none" stroke="#000000" points="118,-324 118,-343 265,-343 265,-324 118,-324"/>
<text text-anchor="middle" x="191.5" y="-331" font-family="Helvetica,sans-Serif" font-size="10.00" fill="#000000">Ogre::SharedPtr&lt; Resource &gt;</text>
</a>
</g>
</g>
<!-- Node1303&#45;&gt;Node1336 -->
<g id="edge33" class="edge">
<title>Node1303&#45;&gt;Node1336</title>
<path fill="none" stroke="#191970" d="M31.8011,-947.708C36.0358,-847.4593 57.1773,-398.7161 98,-353.5 103.4508,-347.4626 110.2404,-343.0037 117.6567,-339.7402"/>
<polygon fill="#191970" stroke="#191970" points="28.304,-947.5663 31.3866,-957.7027 35.298,-947.8563 28.304,-947.5663"/>
</g>
<!-- Node1337 -->
<g id="node35" class="node">
<title>Node1337</title>
<g id="a_node35"><a xlink:href="class_ogre_1_1_shared_ptr.html" target="_top" xlink:title="Ogre::SharedPtr\&lt; ShadowCamera\lSetup \&gt;">
<polygon fill="none" stroke="#000000" points="108.5,-274.5 108.5,-304.5 274.5,-304.5 274.5,-274.5 108.5,-274.5"/>
<text text-anchor="start" x="116.5" y="-292.5" font-family="Helvetica,sans-Serif" font-size="10.00" fill="#000000">Ogre::SharedPtr&lt; ShadowCamera</text>
<text text-anchor="middle" x="191.5" y="-281.5" font-family="Helvetica,sans-Serif" font-size="10.00" fill="#000000">Setup &gt;</text>
</a>
</g>
</g>
<!-- Node1303&#45;&gt;Node1337 -->
<g id="edge34" class="edge">
<title>Node1303&#45;&gt;Node1337</title>
<path fill="none" stroke="#191970" d="M31.7192,-947.4854C35.6448,-843.0913 55.8689,-363.9264 98,-314.5 101.2701,-310.6637 105.0577,-307.3832 109.1968,-304.581"/>
<polygon fill="#191970" stroke="#191970" points="28.2171,-947.4812 31.3462,-957.6034 35.2123,-947.7392 28.2171,-947.4812"/>
</g>
<!-- Node1338 -->
<g id="node36" class="node">
<title>Node1338</title>
<g id="a_node36"><a xlink:href="class_ogre_1_1_shared_ptr.html" target="_top" xlink:title="Ogre::SharedPtr\&lt; Skeleton \&gt;">
<polygon fill="none" stroke="#000000" points="120,-236 120,-255 263,-255 263,-236 120,-236"/>
<text text-anchor="middle" x="191.5" y="-243" font-family="Helvetica,sans-Serif" font-size="10.00" fill="#000000">Ogre::SharedPtr&lt; Skeleton &gt;</text>
</a>
</g>
</g>
<!-- Node1303&#45;&gt;Node1338 -->
<g id="edge35" class="edge">
<title>Node1303&#45;&gt;Node1338</title>
<path fill="none" stroke="#191970" d="M31.5171,-947.682C34.5323,-838.9552 51.3531,-317.8755 98,-265.5 103.9618,-258.8061 111.5687,-254.0462 119.8614,-250.7024"/>
<polygon fill="#191970" stroke="#191970" points="28.0129,-947.7913 31.2417,-957.8821 35.0104,-947.9803 28.0129,-947.7913"/>
</g>
<!-- Node1339 -->
<g id="node37" class="node">
<title>Node1339</title>
<g id="a_node37"><a xlink:href="class_ogre_1_1_shared_ptr.html" target="_top" xlink:title="Ogre::SharedPtr\&lt; SubRender\lStateAccessor \&gt;">
<polygon fill="none" stroke="#000000" points="119,-186.5 119,-216.5 264,-216.5 264,-186.5 119,-186.5"/>
<text text-anchor="start" x="127" y="-204.5" font-family="Helvetica,sans-Serif" font-size="10.00" fill="#000000">Ogre::SharedPtr&lt; SubRender</text>
<text text-anchor="middle" x="191.5" y="-193.5" font-family="Helvetica,sans-Serif" font-size="10.00" fill="#000000">StateAccessor &gt;</text>
</a>
</g>
</g>
<!-- Node1303&#45;&gt;Node1339 -->
<g id="edge36" class="edge">
<title>Node1303&#45;&gt;Node1339</title>
<path fill="none" stroke="#191970" d="M31.4574,-947.6837C34.2196,-835.5205 50.1885,-283.2811 98,-226.5 103.6279,-219.8164 110.8272,-214.8164 118.7274,-211.092"/>
<polygon fill="#191970" stroke="#191970" points="27.9533,-947.816 31.2129,-957.8969 34.9513,-947.9836 27.9533,-947.816"/>
</g>
<!-- Node1340 -->
<g id="node38" class="node">
<title>Node1340</title>
<g id="a_node38"><a xlink:href="class_ogre_1_1_shared_ptr.html" target="_top" xlink:title="Ogre::SharedPtr\&lt; Terrain\lMaterialGenerator \&gt;">
<polygon fill="none" stroke="#000000" points="128.5,-137.5 128.5,-167.5 254.5,-167.5 254.5,-137.5 128.5,-137.5"/>
<text text-anchor="start" x="136.5" y="-155.5" font-family="Helvetica,sans-Serif" font-size="10.00" fill="#000000">Ogre::SharedPtr&lt; Terrain</text>
<text text-anchor="middle" x="191.5" y="-144.5" font-family="Helvetica,sans-Serif" font-size="10.00" fill="#000000">MaterialGenerator &gt;</text>
</a>
</g>
</g>
<!-- Node1303&#45;&gt;Node1340 -->
<g id="edge37" class="edge">
<title>Node1303&#45;&gt;Node1340</title>
<path fill="none" stroke="#191970" d="M31.3439,-947.4801C33.5291,-830.4874 47.0621,-238.3367 98,-177.5 105.7666,-168.2241 116.5605,-162.1883 128.0645,-158.3039"/>
<polygon fill="#191970" stroke="#191970" points="27.8386,-947.7504 31.1578,-957.8119 34.8374,-947.8765 27.8386,-947.7504"/>
</g>
<!-- Node1341 -->
<g id="node39" class="node">
<title>Node1341</title>
<g id="a_node39"><a xlink:href="class_ogre_1_1_shared_ptr.html" target="_top" xlink:title="Ogre::SharedPtr\&lt; Texture \&gt;">
<polygon fill="none" stroke="#000000" points="122.5,-99 122.5,-118 260.5,-118 260.5,-99 122.5,-99"/>
<text text-anchor="middle" x="191.5" y="-106" font-family="Helvetica,sans-Serif" font-size="10.00" fill="#000000">Ogre::SharedPtr&lt; Texture &gt;</text>
</a>
</g>
</g>
<!-- Node1303&#45;&gt;Node1341 -->
<g id="edge38" class="edge">
<title>Node1303&#45;&gt;Node1341</title>
<path fill="none" stroke="#191970" d="M31.191,-947.7135C32.5359,-826.9368 42.2368,-192.0948 98,-128.5 104.4571,-121.1361 112.9041,-116.1042 122.081,-112.7205"/>
<polygon fill="#191970" stroke="#191970" points="27.6908,-947.7242 31.0856,-957.7604 34.6904,-947.7977 27.6908,-947.7242"/>
</g>
<!-- Node1342 -->
<g id="node40" class="node">
<title>Node1342</title>
<g id="a_node40"><a xlink:href="class_ogre_1_1_shared_ptr.html" target="_top" xlink:title="Ogre::SharedPtr\&lt; Texture\lAtlasTable \&gt;">
<polygon fill="none" stroke="#000000" points="127,-49.5 127,-79.5 256,-79.5 256,-49.5 127,-49.5"/>
<text text-anchor="start" x="135" y="-67.5" font-family="Helvetica,sans-Serif" font-size="10.00" fill="#000000">Ogre::SharedPtr&lt; Texture</text>
<text text-anchor="middle" x="191.5" y="-56.5" font-family="Helvetica,sans-Serif" font-size="10.00" fill="#000000">AtlasTable &gt;</text>
</a>
</g>
</g>
<!-- Node1303&#45;&gt;Node1342 -->
<g id="edge39" class="edge">
<title>Node1303&#45;&gt;Node1342</title>
<path fill="none" stroke="#191970" d="M31.1627,-947.6204C32.3535,-823.4733 41.3622,-157.7276 98,-89.5 105.4054,-80.5792 115.6113,-74.6511 126.5702,-70.7505"/>
<polygon fill="#191970" stroke="#191970" points="27.6603,-947.8747 31.0705,-957.9057 34.6601,-947.9375 27.6603,-947.8747"/>
</g>
<!-- Node1343 -->
<g id="node41" class="node">
<title>Node1343</title>
<g id="a_node41"><a xlink:href="class_ogre_1_1_shared_ptr.html" target="_top" xlink:title="Ogre::SharedPtr\&lt; unsigned\l char \&gt;">
<polygon fill="none" stroke="#000000" points="124,-.5 124,-30.5 259,-30.5 259,-.5 124,-.5"/>
<text text-anchor="start" x="132" y="-18.5" font-family="Helvetica,sans-Serif" font-size="10.00" fill="#000000">Ogre::SharedPtr&lt; unsigned</text>
<text text-anchor="middle" x="191.5" y="-7.5" font-family="Helvetica,sans-Serif" font-size="10.00" fill="#000000"> char &gt;</text>
</a>
</g>
</g>
<!-- Node1303&#45;&gt;Node1343 -->
<g id="edge40" class="edge">
<title>Node1303&#45;&gt;Node1343</title>
<path fill="none" stroke="#191970" d="M31.0773,-947.7151C31.7515,-819.8143 38.1789,-112.8571 98,-40.5 104.7451,-32.3414 113.8329,-26.6843 123.7019,-22.7916"/>
<polygon fill="#191970" stroke="#191970" points="27.5763,-947.9475 31.0295,-957.9638 34.5762,-947.9802 27.5763,-947.9475"/>
</g>
</g>
</svg>
