<?xml version="1.0" encoding="UTF-8" standalone="no"?>
<!DOCTYPE svg PUBLIC "-//W3C//DTD SVG 1.1//EN"
 "http://www.w3.org/Graphics/SVG/1.1/DTD/svg11.dtd">
<!-- Generated by graphviz version 2.40.1 (20161225.0304)
 -->
<!-- Title: Graphical Class Hierarchy Pages: 1 -->
<svg width="263pt" height="66pt"
 viewBox="0.00 0.00 263.00 66.00" xmlns="http://www.w3.org/2000/svg" xmlns:xlink="http://www.w3.org/1999/xlink">
<g id="graph0" class="graph" transform="scale(1 1) rotate(0) translate(4 62)">
<title>Graphical Class Hierarchy</title>
<!-- Node0 -->
<g id="node1" class="node">
<title>Node0</title>
<g id="a_node1"><a xlink:href="class_ogre_1_1_scene_loader.html" target="_top" xlink:title="Abstract class for loading scenes from a file (DataStream). ">
<polygon fill="none" stroke="#000000" points="0,-19.5 0,-38.5 101,-38.5 101,-19.5 0,-19.5"/>
<text text-anchor="middle" x="50.5" y="-26.5" font-family="Helvetica,sans-Serif" font-size="10.00" fill="#000000">Ogre::SceneLoader</text>
</a>
</g>
</g>
<!-- Node1 -->
<g id="node2" class="node">
<title>Node1</title>
<g id="a_node2"><a xlink:href="class_ogre_1_1_bsp_scene_loader.html" target="_top" xlink:title="Manages the locating and loading of BSP&#45;based indoor levels. ">
<polygon fill="none" stroke="#000000" points="137,-38.5 137,-57.5 255,-57.5 255,-38.5 137,-38.5"/>
<text text-anchor="middle" x="196" y="-45.5" font-family="Helvetica,sans-Serif" font-size="10.00" fill="#000000">Ogre::BspSceneLoader</text>
</a>
</g>
</g>
<!-- Node0&#45;&gt;Node1 -->
<g id="edge1" class="edge">
<title>Node0&#45;&gt;Node1</title>
<path fill="none" stroke="#191970" d="M111.5072,-36.9666C119.9154,-38.0646 128.5386,-39.1906 136.9114,-40.284"/>
<polygon fill="#191970" stroke="#191970" points="111.7579,-33.4697 101.3888,-35.6453 110.8514,-40.4107 111.7579,-33.4697"/>
</g>
<!-- Node2 -->
<g id="node3" class="node">
<title>Node2</title>
<g id="a_node3"><a xlink:href="class_ogre_1_1_dot_scene_loader.html" target="_top" xlink:title="Ogre::DotSceneLoader">
<polygon fill="none" stroke="#000000" points="138,-.5 138,-19.5 254,-19.5 254,-.5 138,-.5"/>
<text text-anchor="middle" x="196" y="-7.5" font-family="Helvetica,sans-Serif" font-size="10.00" fill="#000000">Ogre::DotSceneLoader</text>
</a>
</g>
</g>
<!-- Node0&#45;&gt;Node2 -->
<g id="edge2" class="edge">
<title>Node0&#45;&gt;Node2</title>
<path fill="none" stroke="#191970" d="M111.5151,-21.0324C120.2587,-19.8906 129.2347,-18.7185 137.9196,-17.5844"/>
<polygon fill="#191970" stroke="#191970" points="110.8514,-17.5893 101.3888,-22.3547 111.7579,-24.5303 110.8514,-17.5893"/>
</g>
</g>
</svg>
