<?xml version="1.0" encoding="UTF-8" standalone="no"?>
<!DOCTYPE svg PUBLIC "-//W3C//DTD SVG 1.1//EN"
 "http://www.w3.org/Graphics/SVG/1.1/DTD/svg11.dtd">
<!-- Generated by graphviz version 2.40.1 (20161225.0304)
 -->
<!-- Title: OgreBites::InputListener Pages: 1 -->
<svg width="315pt" height="204pt"
 viewBox="0.00 0.00 315.00 203.50" xmlns="http://www.w3.org/2000/svg" xmlns:xlink="http://www.w3.org/1999/xlink">
<g id="graph0" class="graph" transform="scale(1 1) rotate(0) translate(4 199.5)">
<title>OgreBites::InputListener</title>
<!-- Node0 -->
<g id="node1" class="node">
<title>Node0</title>
<polygon fill="#bfbfbf" stroke="#000000" points="0,-88.5 0,-107.5 122,-107.5 122,-88.5 0,-88.5"/>
<text text-anchor="middle" x="61" y="-95.5" font-family="Helvetica,sans-Serif" font-size="10.00" fill="#000000">OgreBites::InputListener</text>
</g>
<!-- Node1 -->
<g id="node2" class="node">
<title>Node1</title>
<g id="a_node2"><a xlink:href="class_ogre_bites_1_1_advanced_render_controls.html" target="_top" xlink:title="OgreBites::AdvancedRender\lControls">
<polygon fill="none" stroke="#000000" points="162,-165 162,-195 303,-195 303,-165 162,-165"/>
<text text-anchor="start" x="170" y="-183" font-family="Helvetica,sans-Serif" font-size="10.00" fill="#000000">OgreBites::AdvancedRender</text>
<text text-anchor="middle" x="232.5" y="-172" font-family="Helvetica,sans-Serif" font-size="10.00" fill="#000000">Controls</text>
</a>
</g>
</g>
<!-- Node0&#45;&gt;Node1 -->
<g id="edge1" class="edge">
<title>Node0&#45;&gt;Node1</title>
<path fill="none" stroke="#191970" d="M83.657,-113.1386C102.868,-125.5227 131.454,-142.9051 158,-155 165.8214,-158.5636 174.3051,-161.8873 182.6514,-164.8733"/>
<polygon fill="#191970" stroke="#191970" points="85.5676,-110.2061 75.2804,-107.6717 81.7418,-116.0681 85.5676,-110.2061"/>
</g>
<!-- Node2 -->
<g id="node3" class="node">
<title>Node2</title>
<g id="a_node3"><a xlink:href="class_ogre_bites_1_1_camera_man.html" target="_top" xlink:title="Utility class for controlling the camera in samples. ">
<polygon fill="none" stroke="#000000" points="173,-126.5 173,-145.5 292,-145.5 292,-126.5 173,-126.5"/>
<text text-anchor="middle" x="232.5" y="-133.5" font-family="Helvetica,sans-Serif" font-size="10.00" fill="#000000">OgreBites::CameraMan</text>
</a>
</g>
</g>
<!-- Node0&#45;&gt;Node2 -->
<g id="edge2" class="edge">
<title>Node0&#45;&gt;Node2</title>
<path fill="none" stroke="#191970" d="M114.0412,-109.7526C138.2913,-115.1258 166.6467,-121.4086 189.5345,-126.4799"/>
<polygon fill="#191970" stroke="#191970" points="114.7971,-106.3352 104.2767,-107.589 113.2827,-113.1695 114.7971,-106.3352"/>
</g>
<!-- Node3 -->
<g id="node4" class="node">
<title>Node3</title>
<g id="a_node4"><a xlink:href="struct_ogre_bites_1_1_im_gui_input_listener.html" target="_top" xlink:title="OgreBites::ImGuiInputListener">
<polygon fill="none" stroke="#000000" points="158,-88.5 158,-107.5 307,-107.5 307,-88.5 158,-88.5"/>
<text text-anchor="middle" x="232.5" y="-95.5" font-family="Helvetica,sans-Serif" font-size="10.00" fill="#000000">OgreBites::ImGuiInputListener</text>
</a>
</g>
</g>
<!-- Node0&#45;&gt;Node3 -->
<g id="edge3" class="edge">
<title>Node0&#45;&gt;Node3</title>
<path fill="none" stroke="#191970" d="M132.4852,-98C140.8211,-98 149.3421,-98 157.721,-98"/>
<polygon fill="#191970" stroke="#191970" points="132.4311,-94.5001 122.431,-98 132.431,-101.5001 132.4311,-94.5001"/>
</g>
<!-- Node4 -->
<g id="node5" class="node">
<title>Node4</title>
<g id="a_node5"><a xlink:href="class_ogre_bites_1_1_input_listener_chain.html" target="_top" xlink:title="Chain of multiple InputListeners that acts as a single InputListener. ">
<polygon fill="none" stroke="#000000" points="171.5,-39 171.5,-69 293.5,-69 293.5,-39 171.5,-39"/>
<text text-anchor="start" x="179.5" y="-57" font-family="Helvetica,sans-Serif" font-size="10.00" fill="#000000">OgreBites::InputListener</text>
<text text-anchor="middle" x="232.5" y="-46" font-family="Helvetica,sans-Serif" font-size="10.00" fill="#000000">Chain</text>
</a>
</g>
</g>
<!-- Node0&#45;&gt;Node4 -->
<g id="edge4" class="edge">
<title>Node0&#45;&gt;Node4</title>
<path fill="none" stroke="#191970" d="M108.1523,-85.9026C128.4359,-80.6987 152.3607,-74.5605 173.7793,-69.0654"/>
<polygon fill="#191970" stroke="#191970" points="107.0294,-82.5773 98.2129,-88.4527 108.7691,-89.3577 107.0294,-82.5773"/>
</g>
<!-- Node5 -->
<g id="node6" class="node">
<title>Node5</title>
<g id="a_node6"><a xlink:href="class_ogre_bites_1_1_tray_manager.html" target="_top" xlink:title="Main class to manage a cursor, backdrop, trays and widgets. ">
<polygon fill="none" stroke="#000000" points="171,-.5 171,-19.5 294,-19.5 294,-.5 171,-.5"/>
<text text-anchor="middle" x="232.5" y="-7.5" font-family="Helvetica,sans-Serif" font-size="10.00" fill="#000000">OgreBites::TrayManager</text>
</a>
</g>
</g>
<!-- Node0&#45;&gt;Node5 -->
<g id="edge5" class="edge">
<title>Node0&#45;&gt;Node5</title>
<path fill="none" stroke="#191970" d="M79.5711,-81.9805C98.244,-66.6281 128.4275,-43.8084 158,-30 166.9794,-25.8072 176.9926,-22.3672 186.6917,-19.5952"/>
<polygon fill="#191970" stroke="#191970" points="77.2654,-79.3462 71.8452,-88.4497 81.7593,-84.7132 77.2654,-79.3462"/>
</g>
</g>
</svg>
